<svg width="410" height="90" viewBox="0 0 410 90" fill="none" xmlns="http://www.w3.org/2000/svg">
<path fill-rule="evenodd" clip-rule="evenodd" d="M398.146 16.388C375.165 16.388 362.937 29.277 362.464 45.984C359.16 27.806 343.474 15.939 325.614 15.939C307.848 15.937 292.683 27.76 289.377 45.721C289.318 29.753 276.843 15.97 260.621 15.97C253.555 15.97 247.424 18.683 242.526 23.423V0.123001H225.241V52.011C225.241 53.713 225.18 54.814 224.937 57.337C223.889 68.116 216.633 73.436 208.735 73.436C200.527 73.436 193.115 69.556 192.894 57.398C192.855 55.297 192.796 54.426 192.796 52.934V33.509H219.705V17.196H192.796V0.123001H175.272V45.809C171.944 28.802 156.961 15.966 138.969 15.966C127.38 15.966 117.038 21.299 110.255 29.636V16.388H108.336C85.758 16.388 73.558 28.828 72.687 45.107C69.37 28.612 55.73 16.388 38.493 16.388C29.473 16.388 22.422 19.666 16.915 25.174V0H0V43.754C0 46.984 0.0939967 50.028 0.130997 52.942C0.375997 73.186 14.541 89.794 36.482 89.794C55.415 89.794 69.201 77.472 72.632 61.051V88.063H89.967V54.344C89.967 52.806 90.055 51.099 90.103 49.523C90.427 39.247 97.156 33.126 107.856 32.947C104.14 38.715 101.978 45.571 101.978 52.941C101.978 73.366 118.536 89.916 138.968 89.916C156.96 89.916 171.943 77.086 175.271 60.077V60.123C175.271 77.887 189.534 89.999 206.716 89.999C213.961 89.999 220.358 86.896 225.24 81.819V88.053H242.525V51.354C242.534 50.483 242.567 49.778 242.588 49.102C243.026 37.329 249.927 32.207 257.507 32.207C265.021 32.207 271.523 37.349 271.783 49.046C271.844 50.061 271.857 50.742 271.857 51.884V88.058L289.378 88.065V60.616C292.671 78.341 307.698 89.783 325.62 89.783C345.949 89.783 357.431 76.774 360.509 63.167H343.561C342.077 68.005 336.06 75.432 325.611 75.432C316.188 75.43 308.151 68.994 306.118 58.486L362.437 58.484V88.063H379.775V54.344C379.775 52.806 379.863 51.099 379.917 49.523C380.243 39.092 387.16 32.93 398.143 32.93H400.062V16.387H398.143L398.146 16.388ZM36.483 73.149C25.069 73.149 16.281 64.223 16.281 52.943C16.281 41.665 25.012 32.741 36.483 32.741C47.952 32.739 56.687 41.612 56.687 52.943C56.687 64.274 47.897 73.151 36.483 73.149ZM138.97 73.149C127.558 73.149 118.77 64.223 118.77 52.943C118.77 41.665 127.503 32.741 138.97 32.741C150.441 32.739 159.174 41.612 159.174 52.943C159.174 64.274 150.384 73.151 138.97 73.149ZM306.883 44.826C309.734 35.994 317.087 30.537 325.617 30.537C336.58 30.537 343.149 39.334 344.397 44.826H306.883Z" fill="#005CAB"/>
<path fill-rule="evenodd" clip-rule="evenodd" d="M392.025 80.563C392.025 85.351 395.918 89.169 400.708 89.169C405.496 89.169 409.393 85.351 409.393 80.565C409.393 75.773 405.496 71.945 400.708 71.945C395.918 71.943 392.025 75.773 392.025 80.563ZM393.159 80.563C393.159 76.401 396.544 73.009 400.708 73.009C404.872 73.009 408.26 76.401 408.26 80.565C408.26 84.725 404.873 88.112 400.708 88.112C396.544 88.112 393.159 84.725 393.159 80.563Z" fill="#005CAB"/>
<path fill-rule="evenodd" clip-rule="evenodd" d="M398.122 76.525H401.636C403.019 76.525 403.514 77.171 403.514 78.339C403.514 79.51 403.026 80.247 401.641 80.247H398.122V76.525ZM398.122 81.4H401.568C402.651 81.4 403.104 82.072 403.211 83.249L403.336 84.446C403.382 85.026 403.483 85.466 403.537 85.735H405.075V85.534C404.915 85.33 404.775 84.958 404.694 84.206L404.561 83.013C404.447 81.86 404.066 81.133 403.301 80.746C404.253 80.427 404.925 79.505 404.925 78.14C404.927 76.4 403.802 75.35 401.682 75.35H396.75V85.735H398.122V81.4Z" fill="#005CAB"/>
</svg>
