<svg width="2427" height="758" viewBox="0 0 2427 758" fill="none" xmlns="http://www.w3.org/2000/svg">
<path fill-rule="evenodd" clip-rule="evenodd" d="M0 40.4138H295.062L327.409 41.7626L358.394 44.4603L388.042 51.1916L416.342 57.9359L441.932 68.7138L466.185 79.4917L489.09 92.9673L510.646 107.792L529.517 123.965L548.375 141.474L564.548 160.345L579.359 180.552L591.486 202.108L603.613 223.676L613.042 246.581L621.135 269.486L1040.12 0L1192.36 102.396L866.315 312.571L918.856 347.603L1247.6 138.776L1389.05 233.08L1064.36 447.301L1119.6 480.984L1449.67 270.809V40.4138H1692.19V499.842H1907.76V715.399H1449.67V494.446L1041.46 757.175L625.143 475.588L617.05 499.842L608.969 522.746L596.843 545.651L584.716 568.569L569.891 588.775L553.718 608.995L536.209 627.853L516.002 644.014L495.795 660.187L471.542 673.662L447.288 685.789L420.337 696.567L392.037 704.647L362.401 710.03L331.416 714.076L297.734 715.425H0V40.4138ZM231.744 251.938H295.062L323.362 254.635L346.267 262.716L366.474 274.842L383.983 291.016L396.123 309.874L405.552 330.093L410.934 352.998L412.283 375.903L410.934 398.807L405.552 421.725L396.123 441.932L382.647 460.803L366.474 476.963L346.267 489.103L322.013 497.183L295.062 499.881H231.744V251.938ZM1968.4 40.4138H2212.27V499.842H2426.5V715.399H1968.41L1968.4 40.4138Z" fill="#0382C7"/>
</svg>
