<svg width="458" height="98" viewBox="0 0 458 98" fill="none" xmlns="http://www.w3.org/2000/svg">
<path d="M224.859 46.3832C219.735 70.4912 210.02 75.2546 185.186 75.2546C158.115 75.2546 153.891 67.407 160.222 37.7013C165.697 11.914 172.3 0 201.2 0C223.089 0 234.009 3.36672 229.065 26.6323H211.389C213.778 15.418 210.686 13.4561 198.341 13.4561C183.187 13.4561 181.915 18.782 177.89 37.7013C173.986 56.0528 172.483 61.8012 188.047 61.8012C202.498 61.8012 204.443 59.2768 207.191 46.3832H224.859Z" fill="black"/>
<path d="M304.392 37.7013C298.341 66.1502 292.479 75.2546 261.75 75.2546C231.026 75.2546 229.038 66.1529 235.089 37.7013C241.178 9.10709 247.04 0 277.769 0C308.482 0 310.478 9.10709 304.392 37.7013ZM252.738 37.8332C248.565 57.4522 248.907 61.7985 264.614 61.7985C280.329 61.7985 282.516 57.4522 286.684 37.8332C290.916 17.9316 290.615 13.4534 274.9 13.4534C259.191 13.4561 256.971 17.9343 252.738 37.8332Z" fill="black"/>
<path d="M340.084 0.845044L337.821 11.4969H338.379C344.306 2.10454 354.708 0 363.967 0C373.227 0 383.389 2.38173 383.085 13.0309H383.643C389.195 2.80425 399.877 0 409.711 0C428.78 0 433.689 6.58811 429.86 24.6624L419.272 74.4042H401.594L411.818 26.3497C413.37 17.1 411.896 13.4561 402.221 13.4561C387.91 13.4561 383.737 19.9043 380.951 32.9379L372.136 74.4042H354.457L364.687 26.3497C366.233 17.1 364.76 13.4561 355.085 13.4561C340.774 13.4561 336.601 19.9043 333.828 32.9379L325 74.4042H307.332L322.982 0.845044H340.084Z" fill="black"/>
<path d="M44.4559 0C14.7155 0 8.06646 11.4969 2.46 37.8359C-3.59099 66.2902 0.248131 75.2546 28.4475 75.2546C49.4939 75.2546 63.0561 74.1351 67.9782 51.0202H50.3021C47.969 61.9492 41.1287 61.8066 31.3059 61.8066C15.451 61.8066 16.1084 56.7605 19.4814 40.9227H19.538L21.9924 29.7084H21.863C24.6407 16.6748 26.3056 13.4561 41.5948 13.4561C56.046 13.4561 58.0477 14.5783 54.8283 29.7057H30.6243L28.178 40.92H70.1282C76.9524 8.83797 74.7647 0 44.4559 0Z" fill="black"/>
<path d="M99.944 39.7144C103.659 22.2403 105.117 13.4292 123.175 13.4292C139.283 13.4292 136.805 23.0799 133.262 39.7144C129.331 58.1734 125.094 61.6693 112.905 61.6693C109.769 61.6693 107.264 61.3895 105.246 60.8243L102.654 73.134C106.259 74.6706 110.753 75.0959 115.233 75.0959C140.428 75.0959 146.321 61.2495 150.895 39.717C155.693 17.2023 158.509 0 131.215 0C120.856 0 112.264 2.2391 105.728 11.8871H105.171L108.218 0.83428H90.5765L70.007 97.6483H87.6453L94.6743 64.4655L99.944 39.7144Z" fill="black"/>
<path d="M449.985 0.645996C451.332 0.645996 452.647 0.993162 453.927 1.68211C455.212 2.37645 456.211 3.35875 456.92 4.64515C457.642 5.92886 457.987 7.2664 457.987 8.66314C457.987 10.0464 457.637 11.3705 456.923 12.6488C456.217 13.9218 455.228 14.9095 453.954 15.6119C452.679 16.3197 451.354 16.6722 449.966 16.6722C448.579 16.6722 447.251 16.3224 445.982 15.6119C444.708 14.9122 443.721 13.9245 443.008 12.6488C442.299 11.3705 441.941 10.0437 441.941 8.66314C441.941 7.2664 442.299 5.92886 443.016 4.64515C443.738 3.35875 444.737 2.37645 446.02 1.68211C447.326 0.993162 448.644 0.645996 449.985 0.645996ZM449.985 1.97277C448.854 1.97277 447.765 2.26342 446.696 2.83934C445.629 3.41795 444.791 4.23608 444.182 5.31257C443.568 6.38368 443.274 7.50054 443.274 8.66045C443.274 9.81768 443.563 10.9184 444.163 11.976C444.756 13.0364 445.578 13.8626 446.65 14.452C447.717 15.044 448.832 15.3401 449.966 15.3401C451.133 15.3401 452.23 15.0467 453.294 14.452C454.355 13.8626 455.182 13.0364 455.77 11.976C456.36 10.9157 456.651 9.81499 456.651 8.66045C456.651 7.50054 456.354 6.38368 455.751 5.31257C455.158 4.23608 454.323 3.41795 453.242 2.83934C452.203 2.26611 451.106 1.97277 449.985 1.97277ZM446.472 13.0902V4.47291H449.436C450.462 4.47291 451.181 4.54827 451.634 4.70705C452.092 4.86852 452.45 5.13764 452.72 5.53864C452.989 5.93963 453.127 6.35677 453.127 6.8062C453.127 7.43325 452.9 7.98226 452.448 8.44784C452 8.91612 451.392 9.17717 450.653 9.23368C450.963 9.36017 451.206 9.51626 451.384 9.69388C451.731 10.033 452.159 10.6008 452.663 11.4001L453.714 13.0875H452.017L451.252 11.7258C450.648 10.66 450.163 9.98992 449.794 9.72079C449.538 9.51895 449.172 9.42745 448.676 9.42745H447.86V13.0875L446.472 13.0902ZM447.86 8.23524H449.554C450.365 8.23524 450.912 8.11682 451.2 7.87192C451.486 7.6351 451.637 7.31484 451.637 6.91923C451.637 6.66087 451.575 6.43212 451.427 6.23028C451.281 6.03113 451.095 5.88042 450.829 5.78623C450.578 5.68665 450.109 5.63283 449.425 5.63283H447.841V8.23524H447.86Z" fill="black"/>
</svg>
