<?xml version="1.0" encoding="UTF-8"?>
<!DOCTYPE svg PUBLIC "-//W3C//DTD SVG 1.1//EN" "http://www.w3.org/Graphics/SVG/1.1/DTD/svg11.dtd">
<svg xmlns="http://www.w3.org/2000/svg" version="1.1" width="2560px" height="343px" style="shape-rendering:geometricPrecision; text-rendering:geometricPrecision; image-rendering:optimizeQuality; fill-rule:evenodd; clip-rule:evenodd" xmlns:xlink="http://www.w3.org/1999/xlink">
<g><path style="opacity:0.993" fill="#6c6d71" d="M 1975.5,9.5 C 2002.84,9.33336 2030.17,9.50002 2057.5,10C 2093.59,16.4236 2116.76,37.2569 2127,72.5C 2128.5,82.7884 2128.84,93.1218 2128,103.5C 2117.05,153.674 2099.39,201.34 2075,246.5C 2044.98,295.947 2001.14,324.447 1943.5,332C 1916.17,332.667 1888.83,332.667 1861.5,332C 1823.34,324.845 1799.84,302.345 1791,264.5C 1790.33,255.833 1790.33,247.167 1791,238.5C 1802.82,184.343 1822.49,133.343 1850,85.5C 1880.88,42.1267 1922.71,16.7934 1975.5,9.5 Z M 2006.5,42.5 C 2009.38,42.7357 2012.22,42.7357 2015,42.5C 2036.69,46.5187 2046.69,59.5187 2045,81.5C 2024.73,138.309 2004.06,194.976 1983,251.5C 1970.97,277.525 1950.8,293.025 1922.5,298C 1915.39,299.161 1909.22,299.661 1904,299.5C 1882.31,295.476 1872.31,282.476 1874,260.5C 1894.13,204.435 1914.47,148.435 1935,92.5C 1949.12,61.8637 1972.95,45.1971 2006.5,42.5 Z"/></g>
<g><path style="opacity:0.947" fill="#6e6c70" d="M 2510.5,9.5 C 2535.87,7.71125 2549.03,19.3779 2550,44.5C 2546.79,62.3821 2536.12,71.7154 2518,72.5C 2496.04,70.5365 2485.37,58.5365 2486,36.5C 2488.79,22.5459 2496.96,13.5459 2510.5,9.5 Z M 2512.5,16.5 C 2532.62,15.7906 2542.12,25.4573 2541,45.5C 2534.65,64.2861 2522.48,69.4528 2504.5,61C 2491.95,48.5883 2491.28,35.5883 2502.5,22C 2505.77,19.8703 2509.1,18.037 2512.5,16.5 Z M 2513.5,30.5 C 2516.65,30.2114 2519.65,30.7114 2522.5,32C 2523.55,33.3876 2523.72,34.8876 2523,36.5C 2519.98,38.2725 2516.98,39.2725 2514,39.5C 2513.5,36.5184 2513.34,33.5184 2513.5,30.5 Z"/></g>
<g><path style="opacity:0.992" fill="#d7121a" d="M 125.5,12.5 C 157.167,12.5 188.833,12.5 220.5,12.5C 206.238,52.951 191.571,93.2844 176.5,133.5C 213.833,134.833 251.167,134.833 288.5,133.5C 303.571,93.2844 318.238,52.951 332.5,12.5C 364.5,12.5 396.5,12.5 428.5,12.5C 392.973,110.58 357.139,208.58 321,306.5C 317.289,318.879 309.122,326.379 296.5,329C 269.833,329.667 243.167,329.667 216.5,329C 235.262,278.979 253.595,228.813 271.5,178.5C 234.167,178.5 196.833,178.5 159.5,178.5C 141.571,228.618 123.237,278.618 104.5,328.5C 72.5052,329.667 40.5052,329.833 8.5,329C 47.4052,223.45 86.4052,117.95 125.5,12.5 Z"/></g>
<g><path style="opacity:0.992" fill="#d7121a" d="M 488.5,12.5 C 520.502,12.3334 552.502,12.5 584.5,13C 545.278,117.996 506.445,223.163 468,328.5C 436.24,329.496 404.407,329.829 372.5,329.5C 410.771,223.687 449.438,118.02 488.5,12.5 Z"/></g>
<g><path style="opacity:0.992" fill="#d7121a" d="M 647.5,12.5 C 679.507,12.1668 711.507,12.5001 743.5,13.5C 728.803,52.2856 714.803,90.9523 701.5,129.5C 751.976,90.858 802.309,52.0247 852.5,13C 876.833,12.3333 901.167,12.3333 925.5,13C 872.833,53.6667 820.167,94.3333 767.5,135C 800.961,199.422 834.294,263.922 867.5,328.5C 838.506,329.667 809.506,329.833 780.5,329C 771.039,327.523 763.872,322.689 759,314.5C 737.667,273.167 716.333,231.833 695,190.5C 686.86,196.31 679.027,202.477 671.5,209C 656.694,248.779 642.028,288.612 627.5,328.5C 595.5,329.833 563.5,329.833 531.5,328.5C 570.374,223.208 609.041,117.875 647.5,12.5 Z"/></g>
<g><path style="opacity:0.993" fill="#6c6d71" d="M 953.5,12.5 C 983.74,12.1712 1013.91,12.5045 1044,13.5C 1049.56,85.175 1055.23,156.842 1061,228.5C 1109.29,156.753 1157.46,84.9195 1205.5,13C 1223.18,12.167 1240.84,12.3337 1258.5,13.5C 1190.42,114.661 1122.59,215.994 1055,317.5C 1050.12,323.376 1043.95,327.209 1036.5,329C 1017.17,329.5 997.836,329.667 978.5,329.5C 970.421,223.802 962.087,118.135 953.5,12.5 Z"/></g>
<g><path style="opacity:0.993" fill="#6c6d71" d="M 1294.5,12.5 C 1324.51,12.1668 1354.51,12.5002 1384.5,13.5C 1345.26,118.648 1306.59,223.981 1268.5,329.5C 1238.16,329.667 1207.83,329.5 1177.5,329C 1216.41,223.45 1255.41,117.95 1294.5,12.5 Z"/></g>
<g><path style="opacity:0.99" fill="#6c6d71" d="M 1494.5,12.5 C 1552.5,12.3333 1610.5,12.5 1668.5,13C 1663.41,26.1109 1658.41,39.2776 1653.5,52.5C 1607.5,53.3333 1561.5,53.8333 1515.5,54C 1500.77,59.2721 1493.94,69.7721 1495,85.5C 1495.99,91.1533 1498.33,96.1533 1502,100.5C 1520.9,122.408 1540.9,143.408 1562,163.5C 1572.4,175.296 1581.07,188.296 1588,202.5C 1603.06,246.655 1592.56,283.489 1556.5,313C 1545.67,320.745 1533.67,325.745 1520.5,328C 1455.53,329.479 1390.53,329.979 1325.5,329.5C 1330.17,315.833 1334.83,302.167 1339.5,288.5C 1388.83,288.667 1438.17,288.5 1487.5,288C 1504.1,281.295 1510.6,269.128 1507,251.5C 1499.17,238 1490.17,225.333 1480,213.5C 1461.22,194.391 1443.55,174.391 1427,153.5C 1409.37,121.384 1409.04,89.0511 1426,56.5C 1441.91,31.099 1464.74,16.4324 1494.5,12.5 Z"/></g>
<g><path style="opacity:0.993" fill="#6c6d71" d="M 1729.5,12.5 C 1759.51,12.1668 1789.51,12.5002 1819.5,13.5C 1780.26,118.648 1741.59,223.981 1703.5,329.5C 1673.16,329.667 1642.83,329.5 1612.5,329C 1651.41,223.45 1690.41,117.95 1729.5,12.5 Z"/></g>
<g><path style="opacity:0.992" fill="#6c6d71" d="M 2211.5,12.5 C 2231.5,12.5 2251.5,12.5 2271.5,12.5C 2298.65,83.4417 2326.48,154.108 2355,224.5C 2381.2,154.244 2407.2,83.9104 2433,13.5C 2448.76,12.3427 2464.59,12.176 2480.5,13C 2441.41,118.111 2402.41,223.278 2363.5,328.5C 2347.84,329.666 2332.18,329.833 2316.5,329C 2307.48,327.24 2300.64,322.407 2296,314.5C 2271.19,247.722 2246.19,181.056 2221,114.5C 2194.86,185.91 2168.53,257.244 2142,328.5C 2126.58,329.491 2111.08,329.824 2095.5,329.5C 2133.87,223.751 2172.54,118.084 2211.5,12.5 Z"/></g>
<g><path style="opacity:0.924" fill="#6d6c70" d="M 2509.5,24.5 C 2515.58,24.1959 2521.58,24.6959 2527.5,26C 2534.36,31.7403 2534.02,37.0736 2526.5,42C 2528.33,42.5 2529.5,43.6667 2530,45.5C 2531.01,49.2195 2532.18,52.8862 2533.5,56.5C 2530.57,57.4841 2527.57,57.8174 2524.5,57.5C 2523.78,54.1574 2522.94,50.824 2522,47.5C 2519.59,45.5428 2517.09,44.5428 2514.5,44.5C 2513.51,48.7828 2513.17,53.1161 2513.5,57.5C 2510.83,57.5 2508.17,57.5 2505.5,57.5C 2505.5,46.8333 2505.5,36.1667 2505.5,25.5C 2507.1,25.7678 2508.43,25.4345 2509.5,24.5 Z M 2513.5,30.5 C 2513.34,33.5184 2513.5,36.5184 2514,39.5C 2516.98,39.2725 2519.98,38.2725 2523,36.5C 2523.72,34.8876 2523.55,33.3876 2522.5,32C 2519.65,30.7114 2516.65,30.2114 2513.5,30.5 Z"/></g>
</svg>
