<svg width="500" height="89" viewBox="0 0 500 89" fill="none" xmlns="http://www.w3.org/2000/svg">
<path fill-rule="evenodd" clip-rule="evenodd" d="M453.074 0H472.069V67.5998H453.074V0Z" fill="#DE1E34"/>
<path fill-rule="evenodd" clip-rule="evenodd" d="M481.008 0H500V67.5998H481.008V0Z" fill="#DE1E34"/>
<path fill-rule="evenodd" clip-rule="evenodd" d="M40.5013 26.2562H25.1387V0H0V67.5998H25.1387V34.0806H40.5013V67.5998H65.6423V0H40.5013V26.2562Z" fill="#DE1E34"/>
<path fill-rule="evenodd" clip-rule="evenodd" d="M158.52 25.1387L156.982 20.6703H136.311V67.5998H156.982V39.386C156.982 33.2397 160.895 29.8888 164.245 29.8888C167.038 29.8888 170.668 30.4471 170.668 36.5935V67.5998H191.34V37.1526C191.34 20.1127 172.209 13.4102 158.52 25.1387Z" fill="#DE1E34"/>
<path fill-rule="evenodd" clip-rule="evenodd" d="M370.811 47.9054L361.175 20.6704H347.069L337.431 49.0228L327.374 20.6704H307.683H307.541H299.722L289.804 44.5515L275.838 20.6704H252.234L280.027 68.1583L276.398 77.0942C275.138 79.8904 272.129 80.0284 271.54 77.3738C271.54 72.575 267.648 68.6856 262.849 68.6856C258.049 68.6856 254.158 72.575 254.158 77.3738C254.191 82.4034 259.219 88.9673 269.134 88.5476C279.051 88.1294 283.24 79.8904 284.636 76.3979L307.607 20.8533L324.163 67.5999H339.247L348.465 40.6423L357.963 67.5999H372.207L388.269 20.6704H380.03L370.811 47.9054Z" fill="#DE1E34"/>
<path fill-rule="evenodd" clip-rule="evenodd" d="M101.255 18.2852C85.4385 18.2852 72.6191 30.0454 72.6191 44.5517C72.6191 59.0631 85.4385 70.824 101.255 70.824C117.074 70.824 129.896 59.0631 129.896 44.5517C129.896 30.0454 117.074 18.2852 101.255 18.2852ZM108.38 56.8415C108.38 60.7773 105.191 63.9674 101.255 63.9674C97.3241 63.9674 94.1348 60.7773 94.1348 56.8415V32.2641C94.1348 28.3312 97.3241 25.1448 101.255 25.1448C105.191 25.1448 108.38 28.3312 108.38 32.2641V56.8415Z" fill="#DE1E34"/>
<path fill-rule="evenodd" clip-rule="evenodd" d="M254.529 48.3237C254.68 47.224 254.758 45.6898 254.758 44.5517C254.758 30.0454 241.936 18.2852 226.119 18.2852C210.3 18.2852 197.478 30.0454 197.478 44.5517C197.478 59.0631 210.3 70.824 226.119 70.824C236.987 70.824 246.44 65.2692 251.294 57.0871L244.968 54.7467C241.145 60.5899 234.134 64.5021 226.119 64.5021C222.184 64.5021 218.994 60.7773 218.994 56.8415V48.3259L254.529 48.3237ZM218.994 32.2641C218.994 28.3312 222.184 25.1448 226.119 25.1448C230.052 25.1448 233.242 28.3312 233.242 32.2641V41.6212H218.994V32.2641Z" fill="#DE1E34"/>
<path fill-rule="evenodd" clip-rule="evenodd" d="M445.867 48.3237C446.022 47.224 446.1 45.6898 446.1 44.5517C446.1 30.0454 433.277 18.2852 417.459 18.2852C401.642 18.2852 388.82 30.0454 388.82 44.5517C388.82 59.0631 401.642 70.824 417.459 70.824C428.329 70.824 437.782 65.2692 442.636 57.0871L436.31 54.7467C432.487 60.5899 425.477 64.5021 417.459 64.5021C413.525 64.5021 410.336 60.7773 410.336 56.8415V48.3259L445.867 48.3237ZM410.336 32.2641C410.336 28.3312 413.525 25.1448 417.459 25.1448C421.395 25.1448 424.584 28.3312 424.584 32.2641V41.6212H410.336V32.2641Z" fill="#DE1E34"/>
</svg>
