<svg width="456" height="90" viewBox="0 0 456 90" fill="none" xmlns="http://www.w3.org/2000/svg">
<path d="M72.3855 0H0V17.6168L6.63308 43.8142L27.3834 45.0002L44.9984 27.3834L79.8312 19.9194L72.3855 0Z" fill="#00C425"/>
<path d="M0 17.6168V90.0005H17.6132L47.0685 87.5515L44.9984 62.6152L0 17.6168Z" fill="#3AF23A"/>
<path d="M17.6132 90.0005H90.0005V72.3855L82.3022 48.9519L62.6152 45.0002L17.6132 90.0005Z" fill="#006446"/>
<path d="M436.253 35.7041L420.34 50.1856L436.253 64.7567V73.1488H435.733L412.115 51.7066V72.0872H405.268V10.3834H412.115V48.9245L435.627 27.5244H436.253V35.7041ZM127.482 72.0872H162.421V65.1942H134.596V12.4096H127.482V72.0872ZM186.576 27.6159C175.843 27.6159 166.076 36.3337 166.076 50.3759C166.076 64.0155 175.034 73.0572 187.866 73.0572C193.595 73.0572 198.921 71.6131 203.684 68.1428V60.7795C198.679 64.9764 193.102 66.75 188.097 66.75C180.365 66.75 173.542 61.9692 172.914 53.0116H205.541C205.622 52.1257 205.794 50.2148 205.794 49.4882C205.794 35.122 197.147 27.6159 186.576 27.6159ZM186.645 33.8426C192.7 33.8426 198.855 37.7632 199.095 47.0447H172.914C173.319 39.8626 178.815 33.8426 186.645 33.8426ZM301.543 27.6159C295.732 27.6159 291.537 30.6835 289.035 35.2026C286.934 30.3614 283.063 27.6159 276.847 27.6159C271.438 27.6159 267.404 30.764 265.226 34.961H265.063L264.26 28.5036H258.853V72.0872H265.792V44.5646C265.792 39.2366 269.101 34.2343 275.15 34.2343C281.046 34.2343 283.628 37.7046 283.628 43.9991V72.0872H290.565V44.0796C290.565 38.995 293.959 34.2343 299.85 34.2343C305.821 34.2343 308.403 37.7046 308.403 43.9991V72.0872H315.346V43.0308C315.346 33.9104 311.067 27.6159 301.543 27.6159ZM343.375 27.6159C332.966 27.6159 323.278 36.4142 323.278 50.3759C323.278 64.1765 332.966 73.0572 343.375 73.0572C349.915 73.0572 356.049 69.9878 359.356 63.9349H359.436L360.245 72.089H365.897V28.5036H360.245L359.436 36.6558H359.356C356.05 30.6835 349.915 27.6159 343.375 27.6159ZM344.669 34.0714C352.899 34.0714 359.116 40.6899 359.116 50.2954C359.116 59.8991 352.899 66.5175 344.669 66.5175C336.598 66.5175 330.223 59.9796 330.223 50.3759C330.223 40.6093 336.598 34.0714 344.669 34.0714ZM395.486 28.0186C391.69 28.0186 385.961 29.7958 382.973 35.446H382.896L382.167 28.5036H376.601V72.0872H383.538V46.988C383.538 36.8993 391.69 33.7731 398.391 35.1458V28.2602C397.503 28.1009 396.614 28.0186 395.486 28.0186ZM249.91 27.5244H249.357L231.146 45.6866L212.969 27.5244H212.416V36.3264L226.425 50.3466L212.416 64.2735V73.1488H212.976L231.061 54.9023L249.346 73.1488H249.91V64.204L235.776 50.2148L249.91 35.9823V27.5244ZM436.257 11.3443V10.3834H443.822V11.3443H440.611V18.9548H439.467V11.3443H436.257ZM447.654 10.3834L450.919 17.5876L454.192 10.3834H455.75V18.9548H454.677V11.8129H454.655L451.415 18.9548H450.438L447.198 11.8129H447.18V18.9548H446.098V10.3834H447.654Z" fill="#32323C"/>
<path d="M90.0005 72.3855V0H72.3855L44.9984 27.3834L90.0005 72.3855Z" fill="#008A44"/>
</svg>
