<svg width="40" height="40" viewBox="0 0 40 40" fill="none" xmlns="http://www.w3.org/2000/svg">
<mask id="mask0_117_41" style="mask-type:alpha" maskUnits="userSpaceOnUse" x="0" y="0" width="40" height="40">
<rect width="40" height="40" fill="#D9D9D9"/>
</mask>
<g mask="url(#mask0_117_41)">
<path d="M15 25V15H25V25H15ZM18.3333 21.6667H21.6667V18.3333H18.3333V21.6667ZM15 35V31.6667H11.6667C10.75 31.6667 9.96528 31.3403 9.3125 30.6875C8.65972 30.0347 8.33333 29.25 8.33333 28.3333V25H5V21.6667H8.33333V18.3333H5V15H8.33333V11.6667C8.33333 10.75 8.65972 9.96528 9.3125 9.3125C9.96528 8.65972 10.75 8.33333 11.6667 8.33333H15V5H18.3333V8.33333H21.6667V5H25V8.33333H28.3333C29.25 8.33333 30.0347 8.65972 30.6875 9.3125C31.3403 9.96528 31.6667 10.75 31.6667 11.6667V15H35V18.3333H31.6667V21.6667H35V25H31.6667V28.3333C31.6667 29.25 31.3403 30.0347 30.6875 30.6875C30.0347 31.3403 29.25 31.6667 28.3333 31.6667H25V35H21.6667V31.6667H18.3333V35H15ZM28.3333 28.3333V11.6667H11.6667V28.3333H28.3333Z" fill="#1C1B1F"/>
</g>
</svg>
