<svg width="40" height="40" viewBox="0 0 40 40" fill="none" xmlns="http://www.w3.org/2000/svg">
<mask id="mask0_117_79" style="mask-type:alpha" maskUnits="userSpaceOnUse" x="0" y="0" width="40" height="40">
<rect width="40" height="40" fill="#D9D9D9"/>
</mask>
<g mask="url(#mask0_117_79)">
<path d="M1.66666 35V26.6667H4.99999V31.6667H9.99999V35H1.66666ZM30 35V31.6667H35V26.6667H38.3333V35H30ZM6.66666 30V10H9.99999V30H6.66666ZM11.6667 30V10H13.3333V30H11.6667ZM16.6667 30V10H20V30H16.6667ZM21.6667 30V10H26.6667V30H21.6667ZM28.3333 30V10H30V30H28.3333ZM31.6667 30V10H33.3333V30H31.6667ZM1.66666 13.3333V5H9.99999V8.33333H4.99999V13.3333H1.66666ZM35 13.3333V8.33333H30V5H38.3333V13.3333H35Z" fill="#1C1B1F"/>
</g>
</svg>
