<svg width="40" height="40" viewBox="0 0 40 40" fill="none" xmlns="http://www.w3.org/2000/svg">
<mask id="mask0_104_71" style="mask-type:alpha" maskUnits="userSpaceOnUse" x="0" y="0" width="40" height="40">
<rect width="40" height="40" fill="#D9D9D9"/>
</mask>
<g mask="url(#mask0_104_71)">
<path d="M3.33334 33.3334V30.5555H20.5833V33.3334H3.33334ZM7.77793 28.3334C7.02793 28.3334 6.37737 28.058 5.82626 27.5072C5.27543 26.9561 5.00001 26.3055 5.00001 25.5555V9.44466C5.00001 8.69466 5.27543 8.04411 5.82626 7.493C6.37737 6.94217 7.02793 6.66675 7.77793 6.66675H32.2221C32.9721 6.66675 33.6227 6.94217 34.1738 7.493C34.7246 8.04411 35 8.69466 35 9.44466H7.77793V25.5555H20.5833V28.3334H7.77793ZM33.8888 30.5555V15.0001H26.1388V30.5555H33.8888ZM25.4446 33.3334C24.8796 33.3334 24.3911 33.1274 23.9792 32.7155C23.5672 32.3033 23.3613 31.8148 23.3613 31.2501V14.3055C23.3613 13.7408 23.5672 13.2524 23.9792 12.8405C24.3911 12.4283 24.8796 12.2222 25.4446 12.2222H34.5833C35.1481 12.2222 35.6365 12.4283 36.0488 12.8405C36.4607 13.2524 36.6667 13.7408 36.6667 14.3055V31.2501C36.6667 31.8148 36.4607 32.3033 36.0488 32.7155C35.6365 33.1274 35.1481 33.3334 34.5833 33.3334H25.4446ZM30.0279 19.1667C30.3704 19.1667 30.6643 19.0417 30.9096 18.7917C31.1552 18.5417 31.2779 18.2501 31.2779 17.9167C31.2779 17.5742 31.1552 17.2802 30.9096 17.0347C30.6643 16.7894 30.366 16.6667 30.0146 16.6667C29.6902 16.6667 29.4029 16.7894 29.1529 17.0347C28.9029 17.2802 28.7779 17.5787 28.7779 17.9301C28.7779 18.2545 28.9029 18.5417 29.1529 18.7917C29.4029 19.0417 29.6946 19.1667 30.0279 19.1667Z" fill="#1C1B1F"/>
</g>
</svg>
