<svg width="40" height="40" viewBox="0 0 40 40" fill="none" xmlns="http://www.w3.org/2000/svg">
<mask id="mask0_117_24" style="mask-type:alpha" maskUnits="userSpaceOnUse" x="0" y="0" width="40" height="40">
<rect width="40" height="40" fill="#D9D9D9"/>
</mask>
<g mask="url(#mask0_117_24)">
<path d="M26.6667 13.3333V8.33333H13.3333V13.3333H10V5H30V13.3333H26.6667ZM30 20.8333C30.4722 20.8333 30.8681 20.6736 31.1875 20.3542C31.507 20.0347 31.6667 19.6389 31.6667 19.1667C31.6667 18.6944 31.507 18.2986 31.1875 17.9792C30.8681 17.6597 30.4722 17.5 30 17.5C29.5278 17.5 29.132 17.6597 28.8125 17.9792C28.4931 18.2986 28.3333 18.6944 28.3333 19.1667C28.3333 19.6389 28.4931 20.0347 28.8125 20.3542C29.132 20.6736 29.5278 20.8333 30 20.8333ZM26.6667 31.6667V25H13.3333V31.6667H26.6667ZM30 35H10V28.3333H3.33334V18.3333C3.33334 16.9167 3.81945 15.7292 4.79168 14.7708C5.7639 13.8125 6.94445 13.3333 8.33334 13.3333H31.6667C33.0833 13.3333 34.2708 13.8125 35.2292 14.7708C36.1875 15.7292 36.6667 16.9167 36.6667 18.3333V28.3333H30V35ZM33.3333 25V18.3333C33.3333 17.8611 33.1736 17.4653 32.8542 17.1458C32.5347 16.8264 32.1389 16.6667 31.6667 16.6667H8.33334C7.86112 16.6667 7.46529 16.8264 7.14584 17.1458C6.8264 17.4653 6.66668 17.8611 6.66668 18.3333V25H10V21.6667H30V25H33.3333Z" fill="#1C1B1F"/>
</g>
</svg>
