<svg width="40" height="40" viewBox="0 0 40 40" fill="none" xmlns="http://www.w3.org/2000/svg">
<mask id="mask0_117_67" style="mask-type:alpha" maskUnits="userSpaceOnUse" x="0" y="0" width="40" height="40">
<rect width="40" height="40" fill="#D9D9D9"/>
</mask>
<g mask="url(#mask0_117_67)">
<path d="M31.6946 36.6529C31.5093 36.6529 31.3379 36.6227 31.1804 36.5625C31.0232 36.5022 30.8704 36.398 30.7221 36.25L21.1667 26.6945C21.0186 26.5462 20.9145 26.3934 20.8542 26.2362C20.7939 26.0787 20.7638 25.9073 20.7638 25.722C20.7638 25.537 20.7939 25.3658 20.8542 25.2083C20.9145 25.0508 21.0186 24.898 21.1667 24.75L24.7083 21.2083C24.8564 21.0602 25.0092 20.9561 25.1667 20.8958C25.3242 20.8355 25.4954 20.8054 25.6804 20.8054C25.8657 20.8054 26.0371 20.8355 26.1946 20.8958C26.3518 20.9561 26.5046 21.0602 26.6529 21.2083L36.2083 30.7637C36.3564 30.912 36.4606 31.0648 36.5208 31.222C36.5811 31.3795 36.6113 31.5509 36.6113 31.7362C36.6113 31.9212 36.5811 32.0925 36.5208 32.25C36.4606 32.4075 36.3564 32.5602 36.2083 32.7083L32.6667 36.25C32.5186 36.398 32.3658 36.5022 32.2083 36.5625C32.0508 36.6227 31.8796 36.6529 31.6946 36.6529ZM31.6946 33.3333L33.2917 31.7362L25.6946 24.1387L24.0971 25.7362L31.6946 33.3333ZM8.26376 36.6666C8.07876 36.6666 7.90057 36.6343 7.72918 36.5695C7.55779 36.5045 7.39807 36.398 7.25001 36.25L3.75001 32.75C3.60195 32.6019 3.49543 32.4422 3.43043 32.2708C3.3657 32.0994 3.33334 31.9212 3.33334 31.7362C3.33334 31.5509 3.3657 31.3795 3.43043 31.222C3.49543 31.0648 3.60195 30.912 3.75001 30.7637L12.9446 21.5695H16.4863L18.0138 20.0416L10.8613 12.8887H8.48626L3.33334 7.73621L7.65293 3.41663L12.8054 8.56954V10.9445L19.9583 18.097L25.1804 12.875L22.7221 10.4166L25.0554 8.08329H20.3471L19.4583 7.19454L24.9863 1.66663L25.875 2.55538V7.26371L28.2083 4.93038L34.875 11.597C35.3103 12.0323 35.6482 12.5301 35.8888 13.0904C36.1296 13.6504 36.25 14.2452 36.25 14.875C36.25 15.4675 36.1482 16.0369 35.9446 16.5833C35.7407 17.1297 35.449 17.6204 35.0696 18.0554L31.5279 14.5137L29.1946 16.847L27.1667 14.8195L18.4304 23.5554V27.0554L9.23626 36.25C9.08793 36.398 8.93515 36.5045 8.77793 36.5695C8.62043 36.6343 8.44904 36.6666 8.26376 36.6666ZM8.26376 33.3333L16.1804 25.4166V23.8195H14.5833L6.66668 31.7362L8.26376 33.3333ZM8.26376 33.3333L6.66668 31.7362L7.48626 32.5137L8.26376 33.3333Z" fill="#1C1B1F"/>
</g>
</svg>
