<svg width="40" height="40" viewBox="0 0 40 40" fill="none" xmlns="http://www.w3.org/2000/svg">
<mask id="mask0_117_85" style="mask-type:alpha" maskUnits="userSpaceOnUse" x="0" y="0" width="40" height="40">
<rect width="40" height="40" fill="#D9D9D9"/>
</mask>
<g mask="url(#mask0_117_85)">
<path d="M12.5 25H15V18.3333H12.5V20.4167H9.99998V22.9167H12.5V25ZM16.6666 22.9167H30V20.4167H16.6666V22.9167ZM25 18.3333H27.5V16.25H30V13.75H27.5V11.6667H25V18.3333ZM9.99998 16.25H23.3333V13.75H9.99998V16.25ZM13.3333 35V31.6667H6.66665C5.74998 31.6667 4.96526 31.3403 4.31248 30.6875C3.6597 30.0347 3.33331 29.25 3.33331 28.3333V8.33333C3.33331 7.41667 3.6597 6.63194 4.31248 5.97917C4.96526 5.32639 5.74998 5 6.66665 5H33.3333C34.25 5 35.0347 5.32639 35.6875 5.97917C36.3403 6.63194 36.6666 7.41667 36.6666 8.33333V28.3333C36.6666 29.25 36.3403 30.0347 35.6875 30.6875C35.0347 31.3403 34.25 31.6667 33.3333 31.6667H26.6666V35H13.3333ZM6.66665 28.3333H33.3333V8.33333H6.66665V28.3333Z" fill="#1C1B1F"/>
</g>
</svg>
