<svg width="76" height="76" viewBox="0 0 76 76" fill="none" xmlns="http://www.w3.org/2000/svg">
<g clip-path="url(#clip0_469_36)">
<path d="M75.5 38C75.5 17.2893 58.7107 0.499994 38 0.499994C17.2893 0.499994 0.5 17.2893 0.5 38C0.5 56.7173 14.2132 72.2312 32.1406 75.0444V48.8398H22.6191V38H32.1406V29.7383C32.1406 20.3398 37.7391 15.1484 46.3049 15.1484C50.4077 15.1484 54.6992 15.8809 54.6992 15.8809V25.1094H49.9706C45.3121 25.1094 43.8594 28 43.8594 30.9656V38H54.2598L52.5972 48.8398H43.8594V75.0444C61.7868 72.2312 75.5 56.7173 75.5 38Z" fill="white"/>
</g>
<defs>
<clipPath id="clip0_469_36">
<rect width="75" height="75" fill="white" transform="translate(0.5 0.5)"/>
</clipPath>
</defs>
</svg>
