<svg width="200" height="200" viewBox="0 0 200 200" fill="none" xmlns="http://www.w3.org/2000/svg">
<mask id="mask0_226_133" style="mask-type:alpha" maskUnits="userSpaceOnUse" x="0" y="0" width="200" height="200">
<rect width="200" height="200" fill="#D9D9D9"/>
</mask>
<g mask="url(#mask0_226_133)">
<path d="M19.7125 171.475V36.0583L59.2959 7.37083L98.8771 36.0583V58.975H180.288V171.475H19.7125ZM32.2104 158.975H53.0459V138.142H32.2104V158.975ZM32.2104 125.642H53.0459V104.808H32.2104V125.642ZM32.2104 92.3083H53.0459V71.475H32.2104V92.3083ZM32.2104 58.975H53.0459V38.1417H32.2104V58.975ZM65.5438 58.975H86.3792V38.1417H65.5438V58.975ZM65.5438 158.975H167.79V71.475H65.5438V158.975ZM117.148 104.808V92.3083H147.917V104.808H117.148ZM117.148 138.142V125.642H147.917V138.142H117.148ZM86.3792 104.808V92.3083H98.8771V104.808H86.3792ZM86.3792 138.142V125.642H98.8771V138.142H86.3792Z" fill="black"/>
</g>
</svg>
