<svg width="76" height="76" viewBox="0 0 76 76" fill="none" xmlns="http://www.w3.org/2000/svg">
<g clip-path="url(#clip0_469_34)">
<path d="M22.4691 0.76251C18.4791 0.95076 15.7543 1.58751 13.3723 2.52351C10.9071 3.48426 8.81756 4.77351 6.73856 6.86001C4.65956 8.94651 3.37931 11.0375 2.42531 13.5065C1.50206 15.8938 0.876561 18.6208 0.700311 22.613C0.524061 26.6053 0.485061 27.8885 0.504561 38.072C0.524061 48.2555 0.569061 49.532 0.762561 53.5325C0.953061 57.5218 1.58756 60.2458 2.52356 62.6285C3.48581 65.0938 4.77356 67.1825 6.86081 69.2623C8.94806 71.342 11.0376 72.6193 13.5126 73.5748C15.8976 74.4965 18.6253 75.125 22.6168 75.2998C26.6083 75.4745 27.8931 75.515 38.0736 75.4955C48.2541 75.476 49.5358 75.431 53.5356 75.2413C57.5353 75.0515 60.2451 74.4125 62.6286 73.481C65.0938 72.5165 67.1841 71.231 69.2623 69.143C71.3406 67.055 72.6201 64.9625 73.5733 62.492C74.4973 60.107 75.1251 57.3793 75.2983 53.3908C75.4731 49.388 75.5143 48.11 75.4948 37.928C75.4753 27.746 75.4296 26.4695 75.2398 22.4705C75.0501 18.4715 74.4148 15.7558 73.4796 13.3715C72.5158 10.9063 71.2296 8.81901 69.1431 6.73776C67.0566 4.65651 64.9626 3.37776 62.4928 2.42676C60.1063 1.50351 57.3801 0.87426 53.3886 0.70176C49.3971 0.52926 48.1123 0.48501 37.9281 0.50451C27.7438 0.52401 26.4688 0.56751 22.4691 0.76251ZM22.9071 68.5535C19.2508 68.3945 17.2656 67.787 15.9426 67.2785C14.1906 66.6035 12.9426 65.7875 11.6241 64.4818C10.3056 63.176 9.49556 61.9235 8.81156 60.1753C8.29781 58.8523 7.67906 56.8693 7.50806 53.213C7.32206 49.2613 7.28306 48.0748 7.26131 38.063C7.23956 28.0513 7.27781 26.8663 7.45106 22.913C7.60706 19.2598 8.21831 17.2723 8.72606 15.95C9.40106 14.1958 10.2141 12.95 11.5228 11.6323C12.8316 10.3145 14.0803 9.50301 15.8301 8.81901C17.1516 8.30301 19.1346 7.68951 22.7893 7.51551C26.7441 7.32801 27.9291 7.29051 37.9393 7.26876C47.9496 7.24701 49.1376 7.28451 53.0938 7.45851C56.7471 7.61751 58.7353 8.22276 60.0561 8.73351C61.8088 9.40851 63.0561 10.2193 64.3738 11.5303C65.6916 12.8413 66.5038 14.0855 67.1878 15.839C67.7046 17.1568 68.3181 19.139 68.4906 22.796C68.6788 26.7508 68.7216 27.9365 68.7396 37.946C68.7576 47.9555 68.7223 49.1443 68.5491 53.096C68.3893 56.7523 67.7833 58.7383 67.2741 60.0628C66.5991 61.814 65.7853 63.0628 64.4758 64.3798C63.1663 65.6968 61.9191 66.5083 60.1686 67.1923C58.8486 67.7075 56.8633 68.3225 53.2116 68.4965C49.2568 68.6825 48.0718 68.7215 38.0578 68.7433C28.0438 68.765 26.8626 68.7245 22.9078 68.5535M53.4778 17.9578C53.4793 18.8478 53.7447 19.7175 54.2405 20.4567C54.7362 21.1959 55.4401 21.7715 56.263 22.1107C57.0859 22.4499 57.991 22.5374 58.8636 22.3622C59.7363 22.187 60.5374 21.7569 61.1656 21.1264C61.7938 20.4959 62.221 19.6932 62.393 18.8199C62.565 17.9466 62.4741 17.0419 62.132 16.2202C61.7898 15.3985 61.2116 14.6968 60.4705 14.2038C59.7295 13.7107 58.8589 13.4485 57.9688 13.4503C56.7756 13.4526 55.6322 13.9288 54.79 14.7741C53.9478 15.6194 53.4758 16.7645 53.4778 17.9578ZM18.7453 38.0375C18.7663 48.6725 27.4033 57.2743 38.0361 57.254C48.6688 57.2338 57.2766 48.5975 57.2563 37.9625C57.2361 27.3275 48.5968 18.7235 37.9626 18.7445C27.3283 18.7655 18.7251 27.404 18.7453 38.0375ZM25.4998 38.024C25.4949 35.5517 26.2233 33.1335 27.5927 31.0751C28.9622 29.0167 30.9113 27.4107 33.1936 26.4601C35.4758 25.5094 37.9887 25.2569 40.4144 25.7344C42.8402 26.2119 45.0699 27.3981 46.8215 29.1428C48.5732 30.8875 49.7681 33.1125 50.2552 35.5363C50.7424 37.9602 50.4998 40.4741 49.5582 42.76C48.6166 45.046 47.0183 47.0015 44.9654 48.3791C42.9125 49.7567 40.4971 50.4946 38.0248 50.4995C36.3832 50.503 34.757 50.183 33.2391 49.5579C31.7211 48.9327 30.3412 48.0147 29.1781 46.8562C28.015 45.6977 27.0915 44.3215 26.4604 42.806C25.8293 41.2906 25.5029 39.6656 25.4998 38.024Z" fill="white"/>
</g>
<defs>
<clipPath id="clip0_469_34">
<rect width="75" height="75" fill="white" transform="translate(0.5 0.5)"/>
</clipPath>
</defs>
</svg>
