<svg width="199" height="200" viewBox="0 0 199 200" fill="none" xmlns="http://www.w3.org/2000/svg">
<g clip-path="url(#clip0_37_75)" filter="url(#filter0_d_37_75)">
<path d="M126.568 180.368C125.655 180.031 124.444 179.097 123.907 178.323L123.451 177.648L86.6816 177.569C53.7641 177.509 49.7536 177.469 48.2447 177.192C42.1496 176.02 38.02 174.233 33.8507 170.977C27.9343 166.331 24.4003 160.713 22.673 153.208L22.1568 150.925L22.0973 125.869L22.0179 100.794H24.3209H26.6041V124.678C26.6041 150.587 26.6041 150.468 27.696 154.26C30.6543 164.465 38.6156 171.057 50.0911 172.764C51.8184 173.022 57.0002 173.062 87.7537 173.062H123.411L124.007 172.288C125.972 169.647 129.685 169.369 132.008 171.712C133.02 172.705 133.417 173.737 133.417 175.345C133.417 177.509 132.445 179.078 130.559 180.05C129.606 180.547 127.461 180.706 126.568 180.368Z" fill="#FF0000"/>
<path d="M142.332 177.509C142.272 177.41 142.233 176.397 142.252 175.246V173.161L144.933 173.042C149.221 172.844 152.656 172.149 155.932 170.799C163.695 167.582 168.936 161.547 171.04 153.367C171.894 150.111 171.934 149.357 171.914 133.851V118.96L171.299 118.563C170.306 117.948 169.412 116.618 169.134 115.367C168.618 113.084 169.651 110.84 171.735 109.649C172.668 109.113 173.026 109.033 174.217 109.033C176.302 109.033 177.771 109.887 178.843 111.714C179.3 112.468 179.379 112.826 179.379 114.195C179.379 116.121 178.982 117.015 177.513 118.285L176.52 119.159L176.441 134.843C176.381 150.19 176.361 150.568 175.924 152.692C174.574 159.264 171.775 164.346 167.01 168.913C162.364 173.38 157.163 175.921 150.234 177.132C148.228 177.469 142.451 177.747 142.332 177.509Z" fill="#FF0000"/>
<path d="M171.934 76.0365C171.934 48.8566 171.954 49.4125 170.425 44.866C167.228 35.3759 159.446 29.3006 148.328 27.6131C146.759 27.3748 140.545 27.3351 110.784 27.3351H75.1267L74.551 28.0896C73.3796 29.658 71.6126 30.4522 69.7265 30.2735C67.9595 30.0948 66.2521 28.8639 65.4976 27.2358C65.0013 26.1637 65.0013 23.9401 65.4976 22.868C67.1654 19.2745 72.2082 18.7781 74.5113 21.9746L75.0672 22.7489L111.936 22.8085L148.804 22.868L151.286 23.4041C157.996 24.8534 162.96 27.4542 167.447 31.8618C171.974 36.309 174.733 41.5306 176.044 48.1419C176.361 49.7103 176.381 52.1325 176.441 75.0438L176.52 100.199H174.217H171.934V76.0365Z" fill="#FF0000"/>
<path d="M22.4745 91.7011C21.7598 91.4827 20.092 89.9143 19.6354 89.0407C19.0993 87.9884 18.9207 86.2016 19.2582 85.1891C19.6155 84.0772 20.5288 82.8265 21.323 82.3301L22.0179 81.9132L22.0774 65.7919C22.1568 49.889 22.1568 49.6508 22.6135 47.6058C23.7848 42.2056 25.4923 38.4929 28.5497 34.6612C34.5456 27.1366 42.7452 23.2055 53.1486 22.8283L56.5833 22.7092V25.0122V27.3351H54.181C49.7734 27.3351 45.0284 28.3874 41.1569 30.2338C34.3669 33.4699 29.7807 38.9099 27.696 46.1962C26.6239 49.8493 26.6041 50.2662 26.6041 66.6655V81.8735L27.299 82.35C28.1527 82.9257 29.1057 84.3155 29.4035 85.3876C29.6814 86.42 29.4829 88.0877 28.9865 89.0804C28.4505 90.1326 26.7431 91.582 25.8298 91.7408C24.9364 91.8798 23.0701 91.8599 22.4745 91.7011Z" fill="#FF0000"/>
<path d="M50.925 114.931C49.3764 114.752 46.7954 114.017 45.3659 113.303C35.9155 108.716 34.1088 95.871 41.9312 88.8031C44.81 86.1824 48.4631 84.872 52.8111 84.872C57.298 84.8919 61.0901 86.2816 64.5844 89.1803L65.9543 90.312L65.2793 91.0068C64.9219 91.3841 64.366 91.8804 64.0682 92.0988L63.4924 92.4959L62.7777 91.8208C61.8446 90.9473 60.5938 90.0936 59.065 89.3193C55.0347 87.2942 50.647 87.2545 46.7557 89.22C43.9364 90.6495 41.6731 93.29 40.5811 96.4269C40.0054 98.0748 40.0451 101.629 40.6606 103.376C41.8518 106.83 44.5718 109.729 47.8476 111.059C54.0619 113.561 60.8916 111.496 63.413 106.334C63.8101 105.52 64.1873 104.488 64.2469 104.031L64.3858 103.177H57.7944H51.2228V101.787V100.398H59.482H67.7411L67.6022 102.026C67.0463 108.697 62.8968 113.561 56.7818 114.712C55.5311 114.931 52.1361 115.07 50.925 114.931Z" fill="black"/>
<path d="M84.5771 114.87C81.341 114.414 78.3828 112.865 76.0202 110.364C74.2929 108.537 73.2406 106.85 72.5259 104.666C72.0494 103.256 71.9898 102.76 71.9898 100.199C71.9898 97.0616 72.2281 95.8108 73.2605 93.5277C76.3577 86.6781 84.0014 83.3228 91.4267 85.5266C93.6305 86.1818 95.3975 87.2141 97.2042 88.9414C99.9241 91.5224 101.215 93.9843 101.771 97.6969C102.743 104.229 99.4675 110.602 93.6106 113.501C92.7371 113.937 91.4069 114.434 90.6524 114.593C89.0641 114.97 86.1655 115.089 84.5771 114.87ZM89.9377 111.694C92.1613 111.078 93.6305 110.225 95.3181 108.537C97.1049 106.77 98.0777 104.963 98.5939 102.402C100.063 95.0365 94.8217 88.1671 87.4559 87.7899C81.9564 87.512 76.7746 91.3437 75.3451 96.7241C74.9878 98.1139 74.9084 101.429 75.226 102.819C76.0003 106.234 78.2835 109.172 81.4601 110.84C83.922 112.131 87.178 112.468 89.9377 111.694Z" fill="black"/>
<path d="M107.608 99.9007V85.5067H109.097H110.586V91.5621V97.6175L117.852 97.5778L125.138 97.5183L125.099 91.8599C125.079 88.7429 125.119 86.0428 125.198 85.8442C125.377 85.3876 127.958 85.3479 128.136 85.8045C128.196 85.9634 128.216 92.4158 128.196 100.139L128.156 114.195H126.667H125.178L125.138 107.366L125.099 100.536L117.832 100.516L110.586 100.496V107.405V114.295H109.097H107.608V99.9007Z" fill="black"/>
<path d="M132.584 113.957C132.683 113.759 133.001 113.103 133.279 112.508C133.537 111.912 134.311 110.264 134.986 108.875C135.641 107.485 136.197 106.294 136.197 106.274C136.197 106.234 136.912 104.725 137.785 102.899C138.659 101.092 139.374 99.5632 139.374 99.5235C139.374 99.4838 140.088 97.9749 140.962 96.1484C141.835 94.3417 142.55 92.8129 142.55 92.7732C142.55 92.7335 143.245 91.2445 144.099 89.4576C144.953 87.6708 145.727 86.0428 145.786 85.8641C145.866 85.6656 146.104 85.5067 146.322 85.5067C146.739 85.5067 146.799 85.606 149.261 90.8672C149.578 91.582 150.273 93.0313 150.77 94.1034C151.266 95.1954 151.683 96.0888 151.683 96.1285C151.683 96.1484 152.318 97.4786 153.073 99.0867C153.847 100.675 154.463 102.025 154.463 102.085C154.463 102.124 154.919 103.097 155.475 104.209C156.011 105.341 156.766 106.929 157.143 107.743C157.5 108.557 158.294 110.284 158.91 111.555C159.525 112.845 160.022 113.977 160.022 114.096C160.022 114.215 159.406 114.295 158.453 114.295H156.885L156.249 112.965C155.912 112.21 155.296 110.9 154.899 110.026C154.502 109.153 153.768 107.644 153.271 106.691L152.378 104.924H146.322H140.267L139.374 106.691C138.877 107.664 138.202 109.073 137.845 109.828C137.507 110.602 136.892 111.912 136.495 112.766L135.76 114.295H134.093C132.544 114.295 132.425 114.275 132.584 113.957ZM151.087 101.926C151.087 101.886 150.531 100.655 149.837 99.186C149.142 97.7168 148.407 96.1682 148.209 95.7314C146.958 92.9519 146.124 91.4629 146.124 92.0188C146.124 92.1577 145.767 92.9916 145.35 93.9049C144.933 94.7983 144.278 96.2079 143.88 97.0219C143.186 98.5308 141.756 101.568 141.617 101.846C141.577 101.926 143.682 101.985 146.303 101.985C148.943 101.985 151.087 101.946 151.087 101.926Z" fill="black"/>
</g>
<defs>
<filter id="filter0_d_37_75" x="-4" y="0.731041" width="206.538" height="206.538" filterUnits="userSpaceOnUse" color-interpolation-filters="sRGB">
<feFlood flood-opacity="0" result="BackgroundImageFix"/>
<feColorMatrix in="SourceAlpha" type="matrix" values="0 0 0 0 0 0 0 0 0 0 0 0 0 0 0 0 0 0 127 0" result="hardAlpha"/>
<feOffset dy="4"/>
<feGaussianBlur stdDeviation="2"/>
<feColorMatrix type="matrix" values="0 0 0 0 0 0 0 0 0 0 0 0 0 0 0 0 0 0 0.25 0"/>
<feBlend mode="normal" in2="BackgroundImageFix" result="effect1_dropShadow_37_75"/>
<feBlend mode="normal" in="SourceGraphic" in2="effect1_dropShadow_37_75" result="shape"/>
</filter>
<clipPath id="clip0_37_75">
<rect width="198.538" height="198.538" fill="white" transform="translate(0 0.731041)"/>
</clipPath>
</defs>
</svg>
