<svg width="404" height="405" viewBox="0 0 404 405" fill="none" xmlns="http://www.w3.org/2000/svg">
<path d="M270.682 404.254C268.382 403.404 265.332 401.054 263.982 399.104L262.832 397.404L170.232 397.204C87.332 397.054 77.232 396.954 73.432 396.254C58.082 393.304 47.682 388.804 37.182 380.604C22.282 368.904 13.382 354.754 9.03196 335.854L7.73196 330.104L7.58196 267.004L7.38196 203.854H13.182H18.932V264.004C18.932 329.254 18.932 328.954 21.682 338.504C29.132 364.204 49.182 380.804 78.082 385.104C82.432 385.754 95.482 385.854 172.932 385.854H262.732L264.232 383.904C269.182 377.254 278.532 376.554 284.382 382.454C286.932 384.954 287.932 387.554 287.932 391.604C287.932 397.054 285.482 401.004 280.732 403.454C278.332 404.704 272.932 405.104 270.682 404.254Z" fill="#FF0000"/>
<path d="M310.382 397.054C310.232 396.804 310.132 394.254 310.182 391.354V386.104L316.932 385.804C327.732 385.304 336.382 383.554 344.632 380.154C364.182 372.054 377.382 356.854 382.682 336.254C384.832 328.054 384.932 326.154 384.882 287.104V249.604L383.332 248.604C380.832 247.054 378.582 243.704 377.882 240.554C376.582 234.804 379.182 229.154 384.432 226.154C386.782 224.804 387.682 224.604 390.682 224.604C395.932 224.604 399.632 226.754 402.332 231.354C403.482 233.254 403.682 234.154 403.682 237.604C403.682 242.454 402.682 244.704 398.982 247.904L396.482 250.104L396.282 289.604C396.132 328.254 396.082 329.204 394.982 334.554C391.582 351.104 384.532 363.904 372.532 375.404C360.832 386.654 347.732 393.054 330.282 396.104C325.232 396.954 310.682 397.654 310.382 397.054Z" fill="#FF0000"/>
<path d="M384.932 141.504C384.932 73.0545 384.982 74.4545 381.132 63.0045C373.082 39.1045 353.482 23.8045 325.482 19.5545C321.532 18.9545 305.882 18.8545 230.932 18.8545H141.132L139.682 20.7545C136.732 24.7045 132.282 26.7045 127.532 26.2545C123.082 25.8045 118.782 22.7045 116.882 18.6045C115.632 15.9045 115.632 10.3045 116.882 7.60446C121.082 -1.44554 133.782 -2.69554 139.582 5.35446L140.982 7.30446L233.832 7.45446L326.682 7.60446L332.932 8.95446C349.832 12.6045 362.332 19.1545 373.632 30.2545C385.032 41.4545 391.982 54.6045 395.282 71.2545C396.082 75.2045 396.132 81.3045 396.282 139.004L396.482 202.354H390.682H384.932V141.504Z" fill="#FF0000"/>
<path d="M8.53198 180.954C6.73198 180.404 2.53198 176.454 1.38198 174.254C0.0319787 171.604 -0.418022 167.104 0.431978 164.554C1.33198 161.754 3.63198 158.604 5.63198 157.354L7.38198 156.304L7.53198 115.704C7.73198 75.6545 7.73198 75.0545 8.88198 69.9045C11.832 56.3045 16.132 46.9544 23.832 37.3044C38.932 18.3544 59.582 8.45446 85.782 7.50446L94.432 7.20445V13.0045V18.8545H88.382C77.282 18.8545 65.332 21.5045 55.582 26.1545C38.482 34.3045 26.932 48.0045 21.682 66.3545C18.982 75.5545 18.932 76.6045 18.932 117.904V156.204L20.682 157.404C22.832 158.854 25.232 162.354 25.982 165.054C26.682 167.654 26.182 171.854 24.932 174.354C23.582 177.004 19.282 180.654 16.982 181.054C14.732 181.404 10.032 181.354 8.53198 180.954Z" fill="#FF0000"/>
<path d="M80.182 239.453C76.282 239.003 69.782 237.153 66.182 235.353C42.382 223.803 37.832 191.453 57.532 173.653C64.782 167.053 73.982 163.753 84.932 163.753C96.232 163.803 105.782 167.303 114.582 174.603L118.032 177.453L116.332 179.203C115.432 180.153 114.032 181.403 113.282 181.953L111.832 182.953L110.032 181.253C107.682 179.053 104.532 176.903 100.682 174.953C90.532 169.853 79.482 169.753 69.682 174.703C62.582 178.303 56.882 184.953 54.132 192.853C52.682 197.003 52.782 205.953 54.332 210.353C57.332 219.053 64.182 226.353 72.432 229.703C88.082 236.003 105.282 230.803 111.632 217.803C112.632 215.753 113.582 213.153 113.732 212.003L114.082 209.853H97.482H80.932V206.353V202.853H101.732H122.532L122.182 206.953C120.782 223.753 110.332 236.003 94.932 238.903C91.782 239.453 83.232 239.803 80.182 239.453Z" fill="black"/>
<path d="M164.932 239.304C156.782 238.154 149.332 234.254 143.382 227.954C139.032 223.354 136.382 219.104 134.582 213.604C133.382 210.054 133.232 208.804 133.232 202.354C133.232 194.454 133.832 191.304 136.432 185.554C144.232 168.304 163.482 159.854 182.182 165.404C187.732 167.054 192.182 169.654 196.732 174.004C203.582 180.504 206.832 186.704 208.232 196.054C210.682 212.504 202.432 228.554 187.682 235.854C185.482 236.954 182.132 238.204 180.232 238.604C176.232 239.554 168.932 239.854 164.932 239.304ZM178.432 231.304C184.032 229.754 187.732 227.604 191.982 223.354C196.482 218.904 198.932 214.354 200.232 207.904C203.932 189.354 190.732 172.054 172.182 171.104C158.332 170.404 145.282 180.054 141.682 193.604C140.782 197.104 140.582 205.454 141.382 208.954C143.332 217.554 149.082 224.954 157.082 229.154C163.282 232.404 171.482 233.254 178.432 231.304Z" fill="black"/>
<path d="M222.932 201.604V165.354H226.682H230.432V180.604V195.854L248.732 195.754L267.082 195.604L266.982 181.354C266.932 173.504 267.032 166.704 267.232 166.204C267.682 165.054 274.182 164.954 274.632 166.104C274.782 166.504 274.832 182.754 274.782 202.204L274.682 237.604H270.932H267.182L267.082 220.404L266.982 203.204L248.682 203.154L230.432 203.104V220.504V237.854H226.682H222.932V201.604Z" fill="black"/>
<path d="M285.832 237.004C286.082 236.504 286.882 234.854 287.582 233.354C288.232 231.854 290.182 227.704 291.882 224.204C293.532 220.704 294.932 217.704 294.932 217.654C294.932 217.554 296.732 213.754 298.932 209.154C301.132 204.604 302.932 200.754 302.932 200.654C302.932 200.554 304.732 196.754 306.932 192.154C309.132 187.604 310.932 183.754 310.932 183.654C310.932 183.554 312.682 179.804 314.832 175.304C316.982 170.804 318.932 166.704 319.082 166.254C319.282 165.754 319.882 165.354 320.432 165.354C321.482 165.354 321.632 165.604 327.832 178.854C328.632 180.654 330.382 184.304 331.632 187.004C332.882 189.754 333.932 192.004 333.932 192.104C333.932 192.154 335.532 195.504 337.432 199.554C339.382 203.554 340.932 206.954 340.932 207.104C340.932 207.204 342.082 209.654 343.482 212.454C344.832 215.304 346.732 219.304 347.682 221.354C348.582 223.404 350.582 227.754 352.132 230.954C353.682 234.204 354.932 237.054 354.932 237.354C354.932 237.654 353.382 237.854 350.982 237.854H347.032L345.432 234.504C344.582 232.604 343.032 229.304 342.032 227.104C341.032 224.904 339.182 221.104 337.932 218.704L335.682 214.254H320.432H305.182L302.932 218.704C301.682 221.154 299.982 224.704 299.082 226.604C298.232 228.554 296.682 231.854 295.682 234.004L293.832 237.854H289.632C285.732 237.854 285.432 237.804 285.832 237.004ZM332.432 206.704C332.432 206.604 331.032 203.504 329.282 199.804C327.532 196.104 325.682 192.204 325.182 191.104C322.032 184.104 319.932 180.354 319.932 181.754C319.932 182.104 319.032 184.204 317.982 186.504C316.932 188.754 315.282 192.304 314.282 194.354C312.532 198.154 308.932 205.804 308.582 206.504C308.482 206.704 313.782 206.854 320.382 206.854C327.032 206.854 332.432 206.754 332.432 206.704Z" fill="black"/>
</svg>
