<svg width="1440" height="188" viewBox="0 0 1440 188" fill="none" xmlns="http://www.w3.org/2000/svg">
<path d="M-1 129.655V0H1440V129.655L724.5 188L-1 129.655Z" fill="url(#paint0_linear_190_12)"/>
<path d="M375.831 89.776H382.999V94H370.359V71.536H375.831V89.776ZM391.497 76.144V94H386.025V76.144H391.497ZM392.489 71.696L384.777 74.928V71.152L392.489 67.44V71.696ZM394.802 85.04C394.802 83.2053 395.144 81.5947 395.826 80.208C396.53 78.8213 397.48 77.7547 398.674 77.008C399.869 76.2613 401.202 75.888 402.674 75.888C403.848 75.888 404.914 76.1333 405.874 76.624C406.856 77.1147 407.624 77.776 408.178 78.608V70.32H413.65V94H408.178V91.44C407.666 92.2933 406.93 92.976 405.97 93.488C405.032 94 403.933 94.256 402.674 94.256C401.202 94.256 399.869 93.8827 398.674 93.136C397.48 92.368 396.53 91.2907 395.826 89.904C395.144 88.496 394.802 86.8747 394.802 85.04ZM408.178 85.072C408.178 83.7067 407.794 82.6293 407.026 81.84C406.28 81.0507 405.362 80.656 404.274 80.656C403.186 80.656 402.258 81.0507 401.49 81.84C400.744 82.608 400.37 83.6747 400.37 85.04C400.37 86.4053 400.744 87.4933 401.49 88.304C402.258 89.0933 403.186 89.488 404.274 89.488C405.362 89.488 406.28 89.0933 407.026 88.304C407.794 87.5147 408.178 86.4373 408.178 85.072ZM434.441 84.784C434.441 85.296 434.409 85.8293 434.345 86.384H421.961C422.046 87.4933 422.398 88.3467 423.017 88.944C423.657 89.52 424.436 89.808 425.353 89.808C426.718 89.808 427.668 89.232 428.201 88.08H434.025C433.726 89.2533 433.182 90.3093 432.393 91.248C431.625 92.1867 430.654 92.9227 429.481 93.456C428.308 93.9893 426.996 94.256 425.545 94.256C423.796 94.256 422.238 93.8827 420.873 93.136C419.508 92.3893 418.441 91.3227 417.673 89.936C416.905 88.5493 416.521 86.928 416.521 85.072C416.521 83.216 416.894 81.5947 417.641 80.208C418.409 78.8213 419.476 77.7547 420.841 77.008C422.206 76.2613 423.774 75.888 425.545 75.888C427.273 75.888 428.809 76.2507 430.153 76.976C431.497 77.7013 432.542 78.736 433.289 80.08C434.057 81.424 434.441 82.992 434.441 84.784ZM428.841 83.344C428.841 82.4053 428.521 81.6587 427.881 81.104C427.241 80.5493 426.441 80.272 425.481 80.272C424.564 80.272 423.785 80.5387 423.145 81.072C422.526 81.6053 422.142 82.3627 421.993 83.344H428.841ZM442.8 79.12C443.44 78.1387 444.24 77.3707 445.2 76.816C446.16 76.24 447.226 75.952 448.4 75.952V81.744H446.896C445.53 81.744 444.506 82.0427 443.824 82.64C443.141 83.216 442.8 84.24 442.8 85.712V94H437.328V76.144H442.8V79.12ZM467.847 84.784C467.847 85.296 467.815 85.8293 467.751 86.384H455.367C455.453 87.4933 455.805 88.3467 456.423 88.944C457.063 89.52 457.842 89.808 458.759 89.808C460.125 89.808 461.074 89.232 461.607 88.08H467.431C467.133 89.2533 466.589 90.3093 465.799 91.248C465.031 92.1867 464.061 92.9227 462.887 93.456C461.714 93.9893 460.402 94.256 458.951 94.256C457.202 94.256 455.645 93.8827 454.279 93.136C452.914 92.3893 451.847 91.3227 451.079 89.936C450.311 88.5493 449.927 86.928 449.927 85.072C449.927 83.216 450.301 81.5947 451.047 80.208C451.815 78.8213 452.882 77.7547 454.247 77.008C455.613 76.2613 457.181 75.888 458.951 75.888C460.679 75.888 462.215 76.2507 463.559 76.976C464.903 77.7013 465.949 78.736 466.695 80.08C467.463 81.424 467.847 82.992 467.847 84.784ZM462.247 83.344C462.247 82.4053 461.927 81.6587 461.287 81.104C460.647 80.5493 459.847 80.272 458.887 80.272C457.97 80.272 457.191 80.5387 456.551 81.072C455.933 81.6053 455.549 82.3627 455.399 83.344H462.247ZM477.998 94.256C476.441 94.256 475.054 93.9893 473.838 93.456C472.622 92.9227 471.662 92.1973 470.958 91.28C470.254 90.3413 469.859 89.296 469.774 88.144H475.182C475.246 88.7627 475.534 89.264 476.046 89.648C476.558 90.032 477.187 90.224 477.934 90.224C478.617 90.224 479.139 90.096 479.502 89.84C479.886 89.5627 480.078 89.2107 480.078 88.784C480.078 88.272 479.811 87.8987 479.278 87.664C478.745 87.408 477.881 87.1307 476.686 86.832C475.406 86.5333 474.339 86.224 473.486 85.904C472.633 85.5627 471.897 85.04 471.278 84.336C470.659 83.6107 470.35 82.64 470.35 81.424C470.35 80.4 470.627 79.472 471.182 78.64C471.758 77.7867 472.59 77.1147 473.678 76.624C474.787 76.1333 476.099 75.888 477.614 75.888C479.854 75.888 481.614 76.4427 482.894 77.552C484.195 78.6613 484.942 80.1333 485.134 81.968H480.078C479.993 81.3493 479.715 80.8587 479.246 80.496C478.798 80.1333 478.201 79.952 477.454 79.952C476.814 79.952 476.323 80.08 475.982 80.336C475.641 80.5707 475.47 80.9013 475.47 81.328C475.47 81.84 475.737 82.224 476.27 82.48C476.825 82.736 477.678 82.992 478.83 83.248C480.153 83.5893 481.23 83.9307 482.062 84.272C482.894 84.592 483.619 85.1253 484.238 85.872C484.878 86.5973 485.209 87.5787 485.23 88.816C485.23 89.8613 484.931 90.8 484.334 91.632C483.758 92.4427 482.915 93.0827 481.806 93.552C480.718 94.0213 479.449 94.256 477.998 94.256ZM494.271 85.04C494.271 83.2053 494.612 81.5947 495.295 80.208C495.999 78.8213 496.948 77.7547 498.143 77.008C499.338 76.2613 500.671 75.888 502.143 75.888C503.316 75.888 504.383 76.1333 505.343 76.624C506.324 77.1147 507.092 77.776 507.647 78.608V70.32H513.119V94H507.647V91.44C507.135 92.2933 506.399 92.976 505.439 93.488C504.5 94 503.402 94.256 502.143 94.256C500.671 94.256 499.338 93.8827 498.143 93.136C496.948 92.368 495.999 91.2907 495.295 89.904C494.612 88.496 494.271 86.8747 494.271 85.04ZM507.647 85.072C507.647 83.7067 507.263 82.6293 506.495 81.84C505.748 81.0507 504.831 80.656 503.743 80.656C502.655 80.656 501.727 81.0507 500.959 81.84C500.212 82.608 499.839 83.6747 499.839 85.04C499.839 86.4053 500.212 87.4933 500.959 88.304C501.727 89.0933 502.655 89.488 503.743 89.488C504.831 89.488 505.748 89.0933 506.495 88.304C507.263 87.5147 507.647 86.4373 507.647 85.072ZM533.91 84.784C533.91 85.296 533.878 85.8293 533.814 86.384H521.43C521.515 87.4933 521.867 88.3467 522.486 88.944C523.126 89.52 523.904 89.808 524.822 89.808C526.187 89.808 527.136 89.232 527.67 88.08H533.494C533.195 89.2533 532.651 90.3093 531.862 91.248C531.094 92.1867 530.123 92.9227 528.95 93.456C527.776 93.9893 526.464 94.256 525.014 94.256C523.264 94.256 521.707 93.8827 520.342 93.136C518.976 92.3893 517.91 91.3227 517.142 89.936C516.374 88.5493 515.99 86.928 515.99 85.072C515.99 83.216 516.363 81.5947 517.11 80.208C517.878 78.8213 518.944 77.7547 520.31 77.008C521.675 76.2613 523.243 75.888 525.014 75.888C526.742 75.888 528.278 76.2507 529.622 76.976C530.966 77.7013 532.011 78.736 532.758 80.08C533.526 81.424 533.91 82.992 533.91 84.784ZM528.31 83.344C528.31 82.4053 527.99 81.6587 527.35 81.104C526.71 80.5493 525.91 80.272 524.95 80.272C524.032 80.272 523.254 80.5387 522.614 81.072C521.995 81.6053 521.611 82.3627 521.462 83.344H528.31ZM549.05 70.32V94H543.578V70.32H549.05ZM551.927 85.04C551.927 83.2053 552.269 81.5947 552.951 80.208C553.655 78.8213 554.605 77.7547 555.799 77.008C556.994 76.2613 558.327 75.888 559.799 75.888C561.058 75.888 562.157 76.144 563.095 76.656C564.055 77.168 564.791 77.84 565.303 78.672V76.144H570.775V94H565.303V91.472C564.77 92.304 564.023 92.976 563.063 93.488C562.125 94 561.026 94.256 559.767 94.256C558.317 94.256 556.994 93.8827 555.799 93.136C554.605 92.368 553.655 91.2907 552.951 89.904C552.269 88.496 551.927 86.8747 551.927 85.04ZM565.303 85.072C565.303 83.7067 564.919 82.6293 564.151 81.84C563.405 81.0507 562.487 80.656 561.399 80.656C560.311 80.656 559.383 81.0507 558.615 81.84C557.869 82.608 557.495 83.6747 557.495 85.04C557.495 86.4053 557.869 87.4933 558.615 88.304C559.383 89.0933 560.311 89.488 561.399 89.488C562.487 89.488 563.405 89.0933 564.151 88.304C564.919 87.5147 565.303 86.4373 565.303 85.072ZM584.267 74.288C583.307 74.288 582.518 74.0107 581.899 73.456C581.302 72.88 581.003 72.176 581.003 71.344C581.003 70.4907 581.302 69.7867 581.899 69.232C582.518 68.656 583.307 68.368 584.267 68.368C585.206 68.368 585.974 68.656 586.571 69.232C587.19 69.7867 587.499 70.4907 587.499 71.344C587.499 72.176 587.19 72.88 586.571 73.456C585.974 74.0107 585.206 74.288 584.267 74.288ZM586.987 76.144V94H581.515V76.144H586.987ZM601.833 75.952C603.923 75.952 605.587 76.6347 606.825 78C608.083 79.344 608.713 81.2 608.713 83.568V94H603.273V84.304C603.273 83.1093 602.963 82.1813 602.345 81.52C601.726 80.8587 600.894 80.528 599.849 80.528C598.803 80.528 597.971 80.8587 597.353 81.52C596.734 82.1813 596.425 83.1093 596.425 84.304V94H590.953V76.144H596.425V78.512C596.979 77.7227 597.726 77.104 598.665 76.656C599.603 76.1867 600.659 75.952 601.833 75.952ZM611.427 85.04C611.427 83.2053 611.769 81.5947 612.451 80.208C613.155 78.8213 614.105 77.7547 615.299 77.008C616.494 76.2613 617.827 75.888 619.299 75.888C620.473 75.888 621.539 76.1333 622.499 76.624C623.481 77.1147 624.249 77.776 624.803 78.608V70.32H630.275V94H624.803V91.44C624.291 92.2933 623.555 92.976 622.595 93.488C621.657 94 620.558 94.256 619.299 94.256C617.827 94.256 616.494 93.8827 615.299 93.136C614.105 92.368 613.155 91.2907 612.451 89.904C611.769 88.496 611.427 86.8747 611.427 85.04ZM624.803 85.072C624.803 83.7067 624.419 82.6293 623.651 81.84C622.905 81.0507 621.987 80.656 620.899 80.656C619.811 80.656 618.883 81.0507 618.115 81.84C617.369 82.608 616.995 83.6747 616.995 85.04C616.995 86.4053 617.369 87.4933 618.115 88.304C618.883 89.0933 619.811 89.488 620.899 89.488C621.987 89.488 622.905 89.0933 623.651 88.304C624.419 87.5147 624.803 86.4373 624.803 85.072ZM651.866 76.144V94H646.394V91.568C645.839 92.3573 645.082 92.9973 644.122 93.488C643.183 93.9573 642.138 94.192 640.986 94.192C639.621 94.192 638.415 93.8933 637.37 93.296C636.325 92.6773 635.514 91.792 634.938 90.64C634.362 89.488 634.074 88.1333 634.074 86.576V76.144H639.514V85.84C639.514 87.0347 639.823 87.9627 640.442 88.624C641.061 89.2853 641.893 89.616 642.938 89.616C644.005 89.616 644.847 89.2853 645.466 88.624C646.085 87.9627 646.394 87.0347 646.394 85.84V76.144H651.866ZM663.061 94.256C661.503 94.256 660.117 93.9893 658.901 93.456C657.685 92.9227 656.725 92.1973 656.021 91.28C655.317 90.3413 654.922 89.296 654.837 88.144H660.245C660.309 88.7627 660.597 89.264 661.109 89.648C661.621 90.032 662.25 90.224 662.997 90.224C663.679 90.224 664.202 90.096 664.565 89.84C664.949 89.5627 665.141 89.2107 665.141 88.784C665.141 88.272 664.874 87.8987 664.341 87.664C663.807 87.408 662.943 87.1307 661.749 86.832C660.469 86.5333 659.402 86.224 658.549 85.904C657.695 85.5627 656.959 85.04 656.341 84.336C655.722 83.6107 655.413 82.64 655.413 81.424C655.413 80.4 655.69 79.472 656.245 78.64C656.821 77.7867 657.653 77.1147 658.741 76.624C659.85 76.1333 661.162 75.888 662.677 75.888C664.917 75.888 666.677 76.4427 667.957 77.552C669.258 78.6613 670.005 80.1333 670.197 81.968H665.141C665.055 81.3493 664.778 80.8587 664.309 80.496C663.861 80.1333 663.263 79.952 662.517 79.952C661.877 79.952 661.386 80.08 661.045 80.336C660.703 80.5707 660.533 80.9013 660.533 81.328C660.533 81.84 660.799 82.224 661.333 82.48C661.887 82.736 662.741 82.992 663.893 83.248C665.215 83.5893 666.293 83.9307 667.125 84.272C667.957 84.592 668.682 85.1253 669.301 85.872C669.941 86.5973 670.271 87.5787 670.293 88.816C670.293 89.8613 669.994 90.8 669.397 91.632C668.821 92.4427 667.978 93.0827 666.869 93.552C665.781 94.0213 664.511 94.256 663.061 94.256ZM683.592 89.36V94H680.808C678.824 94 677.278 93.52 676.168 92.56C675.059 91.5787 674.504 89.9893 674.504 87.792V80.688H672.328V76.144H674.504V71.792H679.976V76.144H683.56V80.688H679.976V87.856C679.976 88.3893 680.104 88.7733 680.36 89.008C680.616 89.2427 681.043 89.36 681.64 89.36H683.592ZM692.112 79.12C692.752 78.1387 693.552 77.3707 694.512 76.816C695.472 76.24 696.539 75.952 697.712 75.952V81.744H696.208C694.843 81.744 693.819 82.0427 693.136 82.64C692.454 83.216 692.112 84.24 692.112 85.712V94H686.64V76.144H692.112V79.12ZM703.08 74.288C702.12 74.288 701.33 74.0107 700.712 73.456C700.114 72.88 699.816 72.176 699.816 71.344C699.816 70.4907 700.114 69.7867 700.712 69.232C701.33 68.656 702.12 68.368 703.08 68.368C704.018 68.368 704.786 68.656 705.384 69.232C706.002 69.7867 706.312 70.4907 706.312 71.344C706.312 72.176 706.002 72.88 705.384 73.456C704.786 74.0107 704.018 74.288 703.08 74.288ZM705.8 76.144V94H700.328V76.144H705.8ZM708.677 85.04C708.677 83.2053 709.019 81.5947 709.701 80.208C710.405 78.8213 711.355 77.7547 712.549 77.008C713.744 76.2613 715.077 75.888 716.549 75.888C717.808 75.888 718.907 76.144 719.845 76.656C720.805 77.168 721.541 77.84 722.053 78.672V76.144H727.525V94H722.053V91.472C721.52 92.304 720.773 92.976 719.813 93.488C718.875 94 717.776 94.256 716.517 94.256C715.067 94.256 713.744 93.8827 712.549 93.136C711.355 92.368 710.405 91.2907 709.701 89.904C709.019 88.496 708.677 86.8747 708.677 85.04ZM722.053 85.072C722.053 83.7067 721.669 82.6293 720.901 81.84C720.155 81.0507 719.237 80.656 718.149 80.656C717.061 80.656 716.133 81.0507 715.365 81.84C714.619 82.608 714.245 83.6747 714.245 85.04C714.245 86.4053 714.619 87.4933 715.365 88.304C716.133 89.0933 717.061 89.488 718.149 89.488C719.237 89.488 720.155 89.0933 720.901 88.304C721.669 87.5147 722.053 86.4373 722.053 85.072ZM737.177 85.072C737.177 83.216 737.551 81.5947 738.297 80.208C739.065 78.8213 740.121 77.7547 741.465 77.008C742.831 76.2613 744.388 75.888 746.137 75.888C748.377 75.888 750.244 76.4747 751.737 77.648C753.252 78.8213 754.244 80.4747 754.713 82.608H748.889C748.399 81.2427 747.449 80.56 746.041 80.56C745.039 80.56 744.239 80.9547 743.641 81.744C743.044 82.512 742.745 83.6213 742.745 85.072C742.745 86.5227 743.044 87.6427 743.641 88.432C744.239 89.2 745.039 89.584 746.041 89.584C747.449 89.584 748.399 88.9013 748.889 87.536H754.713C754.244 89.6267 753.252 91.2693 751.737 92.464C750.223 93.6587 748.356 94.256 746.137 94.256C744.388 94.256 742.831 93.8827 741.465 93.136C740.121 92.3893 739.065 91.3227 738.297 89.936C737.551 88.5493 737.177 86.928 737.177 85.072ZM765.768 94.256C764.019 94.256 762.44 93.8827 761.032 93.136C759.646 92.3893 758.547 91.3227 757.736 89.936C756.947 88.5493 756.552 86.928 756.552 85.072C756.552 83.2373 756.958 81.6267 757.768 80.24C758.579 78.832 759.688 77.7547 761.096 77.008C762.504 76.2613 764.083 75.888 765.832 75.888C767.582 75.888 769.16 76.2613 770.568 77.008C771.976 77.7547 773.086 78.832 773.896 80.24C774.707 81.6267 775.112 83.2373 775.112 85.072C775.112 86.9067 774.696 88.528 773.864 89.936C773.054 91.3227 771.934 92.3893 770.504 93.136C769.096 93.8827 767.518 94.256 765.768 94.256ZM765.768 89.52C766.814 89.52 767.699 89.136 768.424 88.368C769.171 87.6 769.544 86.5013 769.544 85.072C769.544 83.6427 769.182 82.544 768.456 81.776C767.752 81.008 766.878 80.624 765.832 80.624C764.766 80.624 763.88 81.008 763.176 81.776C762.472 82.5227 762.12 83.6213 762.12 85.072C762.12 86.5013 762.462 87.6 763.144 88.368C763.848 89.136 764.723 89.52 765.768 89.52ZM788.895 75.952C790.986 75.952 792.65 76.6347 793.887 78C795.146 79.344 795.775 81.2 795.775 83.568V94H790.335V84.304C790.335 83.1093 790.026 82.1813 789.407 81.52C788.789 80.8587 787.957 80.528 786.911 80.528C785.866 80.528 785.034 80.8587 784.415 81.52C783.797 82.1813 783.487 83.1093 783.487 84.304V94H778.015V76.144H783.487V78.512C784.042 77.7227 784.789 77.104 785.727 76.656C786.666 76.1867 787.722 75.952 788.895 75.952ZM808.538 80.688H805.594V94H800.122V80.688H798.138V76.144H800.122V75.632C800.122 73.4347 800.751 71.7707 802.01 70.64C803.268 69.488 805.114 68.912 807.546 68.912C807.951 68.912 808.25 68.9227 808.442 68.944V73.584C807.396 73.52 806.66 73.6693 806.234 74.032C805.807 74.3947 805.594 75.0453 805.594 75.984V76.144H808.538V80.688ZM816.997 76.144V94H811.525V76.144H816.997ZM817.989 71.696L810.277 74.928V71.152L817.989 67.44V71.696ZM820.302 85.04C820.302 83.2053 820.644 81.5947 821.326 80.208C822.03 78.8213 822.98 77.7547 824.174 77.008C825.369 76.2613 826.702 75.888 828.174 75.888C829.433 75.888 830.532 76.144 831.47 76.656C832.43 77.168 833.166 77.84 833.678 78.672V76.144H839.15V94H833.678V91.472C833.145 92.304 832.398 92.976 831.438 93.488C830.5 94 829.401 94.256 828.142 94.256C826.692 94.256 825.369 93.8827 824.174 93.136C822.98 92.368 822.03 91.2907 821.326 89.904C820.644 88.496 820.302 86.8747 820.302 85.04ZM833.678 85.072C833.678 83.7067 833.294 82.6293 832.526 81.84C831.78 81.0507 830.862 80.656 829.774 80.656C828.686 80.656 827.758 81.0507 826.99 81.84C826.244 82.608 825.87 83.6747 825.87 85.04C825.87 86.4053 826.244 87.4933 826.99 88.304C827.758 89.0933 828.686 89.488 829.774 89.488C830.862 89.488 831.78 89.0933 832.526 88.304C833.294 87.5147 833.678 86.4373 833.678 85.072ZM853.989 75.952C856.08 75.952 857.744 76.6347 858.981 78C860.24 79.344 860.869 81.2 860.869 83.568V94H855.429V84.304C855.429 83.1093 855.12 82.1813 854.501 81.52C853.882 80.8587 853.05 80.528 852.005 80.528C850.96 80.528 850.128 80.8587 849.509 81.52C848.89 82.1813 848.581 83.1093 848.581 84.304V94H843.109V76.144H848.581V78.512C849.136 77.7227 849.882 77.104 850.821 76.656C851.76 76.1867 852.816 75.952 853.989 75.952ZM888.285 84.784C888.285 85.296 888.253 85.8293 888.189 86.384H875.805C875.89 87.4933 876.242 88.3467 876.861 88.944C877.501 89.52 878.279 89.808 879.197 89.808C880.562 89.808 881.511 89.232 882.045 88.08H887.869C887.57 89.2533 887.026 90.3093 886.237 91.248C885.469 92.1867 884.498 92.9227 883.325 93.456C882.151 93.9893 880.839 94.256 879.389 94.256C877.639 94.256 876.082 93.8827 874.717 93.136C873.351 92.3893 872.285 91.3227 871.517 89.936C870.749 88.5493 870.365 86.928 870.365 85.072C870.365 83.216 870.738 81.5947 871.485 80.208C872.253 78.8213 873.319 77.7547 874.685 77.008C876.05 76.2613 877.618 75.888 879.389 75.888C881.117 75.888 882.653 76.2507 883.997 76.976C885.341 77.7013 886.386 78.736 887.133 80.08C887.901 81.424 888.285 82.992 888.285 84.784ZM882.685 83.344C882.685 82.4053 882.365 81.6587 881.725 81.104C881.085 80.5493 880.285 80.272 879.325 80.272C878.407 80.272 877.629 80.5387 876.989 81.072C876.37 81.6053 875.986 82.3627 875.837 83.344H882.685ZM902.052 75.952C904.142 75.952 905.806 76.6347 907.044 78C908.302 79.344 908.932 81.2 908.932 83.568V94H903.492V84.304C903.492 83.1093 903.182 82.1813 902.564 81.52C901.945 80.8587 901.113 80.528 900.068 80.528C899.022 80.528 898.19 80.8587 897.572 81.52C896.953 82.1813 896.644 83.1093 896.644 84.304V94H891.172V76.144H896.644V78.512C897.198 77.7227 897.945 77.104 898.884 76.656C899.822 76.1867 900.878 75.952 902.052 75.952ZM930.395 75.952C932.486 75.952 934.15 76.6347 935.387 78C936.646 79.344 937.275 81.2 937.275 83.568V94H931.835V84.304C931.835 83.1093 931.526 82.1813 930.907 81.52C930.289 80.8587 929.457 80.528 928.411 80.528C927.366 80.528 926.534 80.8587 925.915 81.52C925.297 82.1813 924.987 83.1093 924.987 84.304V94H919.515V76.144H924.987V78.512C925.542 77.7227 926.289 77.104 927.227 76.656C928.166 76.1867 929.222 75.952 930.395 75.952ZM949.206 94.256C947.456 94.256 945.878 93.8827 944.47 93.136C943.083 92.3893 941.984 91.3227 941.174 89.936C940.384 88.5493 939.99 86.928 939.99 85.072C939.99 83.2373 940.395 81.6267 941.206 80.24C942.016 78.832 943.126 77.7547 944.534 77.008C945.942 76.2613 947.52 75.888 949.27 75.888C951.019 75.888 952.598 76.2613 954.006 77.008C955.414 77.7547 956.523 78.832 957.334 80.24C958.144 81.6267 958.55 83.2373 958.55 85.072C958.55 86.9067 958.134 88.528 957.302 89.936C956.491 91.3227 955.371 92.3893 953.942 93.136C952.534 93.8827 950.955 94.256 949.206 94.256ZM949.206 89.52C950.251 89.52 951.136 89.136 951.862 88.368C952.608 87.6 952.982 86.5013 952.982 85.072C952.982 83.6427 952.619 82.544 951.894 81.776C951.19 81.008 950.315 80.624 949.27 80.624C948.203 80.624 947.318 81.008 946.614 81.776C945.91 82.5227 945.558 83.6213 945.558 85.072C945.558 86.5013 945.899 87.6 946.582 88.368C947.286 89.136 948.16 89.52 949.206 89.52ZM968.717 94.256C967.159 94.256 965.773 93.9893 964.557 93.456C963.341 92.9227 962.381 92.1973 961.677 91.28C960.973 90.3413 960.578 89.296 960.493 88.144H965.901C965.965 88.7627 966.253 89.264 966.765 89.648C967.277 90.032 967.906 90.224 968.653 90.224C969.335 90.224 969.858 90.096 970.221 89.84C970.605 89.5627 970.797 89.2107 970.797 88.784C970.797 88.272 970.53 87.8987 969.997 87.664C969.463 87.408 968.599 87.1307 967.405 86.832C966.125 86.5333 965.058 86.224 964.205 85.904C963.351 85.5627 962.615 85.04 961.997 84.336C961.378 83.6107 961.069 82.64 961.069 81.424C961.069 80.4 961.346 79.472 961.901 78.64C962.477 77.7867 963.309 77.1147 964.397 76.624C965.506 76.1333 966.818 75.888 968.333 75.888C970.573 75.888 972.333 76.4427 973.613 77.552C974.914 78.6613 975.661 80.1333 975.853 81.968H970.797C970.711 81.3493 970.434 80.8587 969.965 80.496C969.517 80.1333 968.919 79.952 968.173 79.952C967.533 79.952 967.042 80.08 966.701 80.336C966.359 80.5707 966.189 80.9013 966.189 81.328C966.189 81.84 966.455 82.224 966.989 82.48C967.543 82.736 968.397 82.992 969.549 83.248C970.871 83.5893 971.949 83.9307 972.781 84.272C973.613 84.592 974.338 85.1253 974.957 85.872C975.597 86.5973 975.927 87.5787 975.949 88.816C975.949 89.8613 975.65 90.8 975.053 91.632C974.477 92.4427 973.634 93.0827 972.525 93.552C971.437 94.0213 970.167 94.256 968.717 94.256ZM987.425 94.256C985.675 94.256 984.097 93.8827 982.689 93.136C981.302 92.3893 980.203 91.3227 979.393 89.936C978.603 88.5493 978.209 86.928 978.209 85.072C978.209 83.2373 978.614 81.6267 979.424 80.24C980.235 78.832 981.345 77.7547 982.753 77.008C984.161 76.2613 985.739 75.888 987.489 75.888C989.238 75.888 990.817 76.2613 992.225 77.008C993.633 77.7547 994.742 78.832 995.553 80.24C996.363 81.6267 996.769 83.2373 996.769 85.072C996.769 86.9067 996.353 88.528 995.521 89.936C994.71 91.3227 993.59 92.3893 992.161 93.136C990.753 93.8827 989.174 94.256 987.425 94.256ZM987.425 89.52C988.47 89.52 989.355 89.136 990.081 88.368C990.827 87.6 991.201 86.5013 991.201 85.072C991.201 83.6427 990.838 82.544 990.113 81.776C989.409 81.008 988.534 80.624 987.489 80.624C986.422 80.624 985.537 81.008 984.833 81.776C984.129 82.5227 983.777 83.6213 983.777 85.072C983.777 86.5013 984.118 87.6 984.801 88.368C985.505 89.136 986.379 89.52 987.425 89.52ZM1009.62 89.36V94H1006.84C1004.86 94 1003.31 93.52 1002.2 92.56C1001.09 91.5787 1000.54 89.9893 1000.54 87.792V80.688H998.36V76.144H1000.54V71.792H1006.01V76.144H1009.59V80.688H1006.01V87.856C1006.01 88.3893 1006.14 88.7733 1006.39 89.008C1006.65 89.2427 1007.07 89.36 1007.67 89.36H1009.62ZM1018.14 79.12C1018.78 78.1387 1019.58 77.3707 1020.54 76.816C1021.5 76.24 1022.57 75.952 1023.74 75.952V81.744H1022.24C1020.87 81.744 1019.85 82.0427 1019.17 82.64C1018.48 83.216 1018.14 84.24 1018.14 85.712V94H1012.67V76.144H1018.14V79.12ZM1034.49 94.256C1032.74 94.256 1031.16 93.8827 1029.75 93.136C1028.36 92.3893 1027.27 91.3227 1026.46 89.936C1025.67 88.5493 1025.27 86.928 1025.27 85.072C1025.27 83.2373 1025.68 81.6267 1026.49 80.24C1027.3 78.832 1028.41 77.7547 1029.82 77.008C1031.22 76.2613 1032.8 75.888 1034.55 75.888C1036.3 75.888 1037.88 76.2613 1039.29 77.008C1040.7 77.7547 1041.8 78.832 1042.62 80.24C1043.43 81.6267 1043.83 83.2373 1043.83 85.072C1043.83 86.9067 1043.42 88.528 1042.58 89.936C1041.77 91.3227 1040.65 92.3893 1039.22 93.136C1037.82 93.8827 1036.24 94.256 1034.49 94.256ZM1034.49 89.52C1035.53 89.52 1036.42 89.136 1037.14 88.368C1037.89 87.6 1038.26 86.5013 1038.26 85.072C1038.26 83.6427 1037.9 82.544 1037.18 81.776C1036.47 81.008 1035.6 80.624 1034.55 80.624C1033.48 80.624 1032.6 81.008 1031.9 81.776C1031.19 82.5227 1030.84 83.6213 1030.84 85.072C1030.84 86.5013 1031.18 87.6 1031.86 88.368C1032.57 89.136 1033.44 89.52 1034.49 89.52ZM1054 94.256C1052.44 94.256 1051.05 93.9893 1049.84 93.456C1048.62 92.9227 1047.66 92.1973 1046.96 91.28C1046.25 90.3413 1045.86 89.296 1045.77 88.144H1051.18C1051.25 88.7627 1051.53 89.264 1052.05 89.648C1052.56 90.032 1053.19 90.224 1053.93 90.224C1054.62 90.224 1055.14 90.096 1055.5 89.84C1055.89 89.5627 1056.08 89.2107 1056.08 88.784C1056.08 88.272 1055.81 87.8987 1055.28 87.664C1054.74 87.408 1053.88 87.1307 1052.69 86.832C1051.41 86.5333 1050.34 86.224 1049.49 85.904C1048.63 85.5627 1047.9 85.04 1047.28 84.336C1046.66 83.6107 1046.35 82.64 1046.35 81.424C1046.35 80.4 1046.63 79.472 1047.18 78.64C1047.76 77.7867 1048.59 77.1147 1049.68 76.624C1050.79 76.1333 1052.1 75.888 1053.61 75.888C1055.85 75.888 1057.61 76.4427 1058.89 77.552C1060.2 78.6613 1060.94 80.1333 1061.13 81.968H1056.08C1055.99 81.3493 1055.72 80.8587 1055.25 80.496C1054.8 80.1333 1054.2 79.952 1053.45 79.952C1052.81 79.952 1052.32 80.08 1051.98 80.336C1051.64 80.5707 1051.47 80.9013 1051.47 81.328C1051.47 81.84 1051.74 82.224 1052.27 82.48C1052.82 82.736 1053.68 82.992 1054.83 83.248C1056.15 83.5893 1057.23 83.9307 1058.06 84.272C1058.89 84.592 1059.62 85.1253 1060.24 85.872C1060.88 86.5973 1061.21 87.5787 1061.23 88.816C1061.23 89.8613 1060.93 90.8 1060.33 91.632C1059.76 92.4427 1058.92 93.0827 1057.81 93.552C1056.72 94.0213 1055.45 94.256 1054 94.256ZM1067.14 94.256C1066.18 94.256 1065.39 93.9787 1064.77 93.424C1064.17 92.848 1063.87 92.144 1063.87 91.312C1063.87 90.4587 1064.17 89.744 1064.77 89.168C1065.39 88.592 1066.18 88.304 1067.14 88.304C1068.08 88.304 1068.84 88.592 1069.44 89.168C1070.06 89.744 1070.37 90.4587 1070.37 91.312C1070.37 92.144 1070.06 92.848 1069.44 93.424C1068.84 93.9787 1068.08 94.256 1067.14 94.256Z" fill="white"/>
<defs>
<linearGradient id="paint0_linear_190_12" x1="719.5" y1="0" x2="719.5" y2="188" gradientUnits="userSpaceOnUse">
<stop stop-color="#FF0000"/>
<stop offset="1" stop-color="#990000"/>
</linearGradient>
</defs>
</svg>
