<svg width="1440" height="188" viewBox="0 0 1440 188" fill="none" xmlns="http://www.w3.org/2000/svg">
<path d="M-1 129.655V0H1440V129.655L724.5 188L-1 129.655Z" fill="url(#paint0_linear_190_12)"/>
<path d="M335.815 100.776H342.983V105H330.343V82.536H335.815V100.776ZM351.065 82.536V105H345.593V82.536H351.065ZM352.057 78.024L344.345 81.256V77.48L352.057 73.768V78.024ZM363.447 82.536C365.815 82.536 367.884 83.0053 369.655 83.944C371.426 84.8827 372.791 86.2053 373.751 87.912C374.732 89.5973 375.223 91.5493 375.223 93.768C375.223 95.9653 374.732 97.9173 373.751 99.624C372.791 101.331 371.415 102.653 369.623 103.592C367.852 104.531 365.794 105 363.447 105H355.031V82.536H363.447ZM363.095 100.264C365.164 100.264 366.775 99.6987 367.927 98.568C369.079 97.4373 369.655 95.8373 369.655 93.768C369.655 91.6987 369.079 90.088 367.927 88.936C366.775 87.784 365.164 87.208 363.095 87.208H360.503V100.264H363.095ZM383.753 86.92V91.464H391.081V95.688H383.753V100.616H392.041V105H378.281V82.536H392.041V86.92H383.753ZM407.049 105L402.377 96.52H401.065V105H395.593V82.536H404.777C406.548 82.536 408.052 82.8453 409.289 83.464C410.548 84.0827 411.487 84.936 412.105 86.024C412.724 87.0907 413.033 88.2853 413.033 89.608C413.033 91.1013 412.607 92.4347 411.753 93.608C410.921 94.7813 409.684 95.6133 408.041 96.104L413.225 105H407.049ZM401.065 92.648H404.457C405.46 92.648 406.207 92.4027 406.697 91.912C407.209 91.4213 407.465 90.728 407.465 89.832C407.465 88.9787 407.209 88.3067 406.697 87.816C406.207 87.3253 405.46 87.08 404.457 87.08H401.065V92.648ZM421.94 86.92V91.464H429.268V95.688H421.94V100.616H430.228V105H416.468V82.536H430.228V86.92H421.94ZM441.909 105.224C440.266 105.224 438.794 104.957 437.493 104.424C436.192 103.891 435.146 103.101 434.357 102.056C433.589 101.011 433.184 99.752 433.141 98.28H438.965C439.05 99.112 439.338 99.752 439.829 100.2C440.32 100.627 440.96 100.84 441.749 100.84C442.56 100.84 443.2 100.659 443.669 100.296C444.138 99.912 444.373 99.3893 444.373 98.728C444.373 98.1733 444.181 97.7147 443.797 97.352C443.434 96.9893 442.976 96.6907 442.421 96.456C441.888 96.2213 441.12 95.9547 440.117 95.656C438.666 95.208 437.482 94.76 436.565 94.312C435.648 93.864 434.858 93.2027 434.197 92.328C433.536 91.4533 433.205 90.312 433.205 88.904C433.205 86.8133 433.962 85.1813 435.477 84.008C436.992 82.8133 438.965 82.216 441.397 82.216C443.872 82.216 445.866 82.8133 447.381 84.008C448.896 85.1813 449.706 86.824 449.813 88.936H443.893C443.85 88.2107 443.584 87.6453 443.093 87.24C442.602 86.8133 441.973 86.6 441.205 86.6C440.544 86.6 440.01 86.7813 439.605 87.144C439.2 87.4853 438.997 87.9867 438.997 88.648C438.997 89.3733 439.338 89.9387 440.021 90.344C440.704 90.7493 441.77 91.1867 443.221 91.656C444.672 92.1467 445.845 92.616 446.741 93.064C447.658 93.512 448.448 94.1627 449.109 95.016C449.77 95.8693 450.101 96.968 450.101 98.312C450.101 99.592 449.77 100.755 449.109 101.8C448.469 102.845 447.53 103.677 446.293 104.296C445.056 104.915 443.594 105.224 441.909 105.224ZM468.666 82.536C471.034 82.536 473.103 83.0053 474.874 83.944C476.644 84.8827 478.01 86.2053 478.97 87.912C479.951 89.5973 480.442 91.5493 480.442 93.768C480.442 95.9653 479.951 97.9173 478.97 99.624C478.01 101.331 476.634 102.653 474.842 103.592C473.071 104.531 471.012 105 468.666 105H460.25V82.536H468.666ZM468.314 100.264C470.383 100.264 471.994 99.6987 473.146 98.568C474.298 97.4373 474.874 95.8373 474.874 93.768C474.874 91.6987 474.298 90.088 473.146 88.936C471.994 87.784 470.383 87.208 468.314 87.208H465.722V100.264H468.314ZM488.972 86.92V91.464H496.3V95.688H488.972V100.616H497.26V105H483.5V82.536H497.26V86.92H488.972ZM513.065 100.776H520.233V105H507.593V82.536H513.065V100.776ZM536.827 101.032H528.443L527.099 105H521.371L529.499 82.536H535.835L543.963 105H538.171L536.827 101.032ZM535.419 96.808L532.635 88.584L529.883 96.808H535.419ZM558.69 82.536V105H553.218V82.536H558.69ZM582.752 105H577.28L568.128 91.144V105H562.656V82.536H568.128L577.28 96.456V82.536H582.752V105ZM595.134 82.536C597.502 82.536 599.572 83.0053 601.342 83.944C603.113 84.8827 604.478 86.2053 605.438 87.912C606.42 89.5973 606.91 91.5493 606.91 93.768C606.91 95.9653 606.42 97.9173 605.438 99.624C604.478 101.331 603.102 102.653 601.31 103.592C599.54 104.531 597.481 105 595.134 105H586.718V82.536H595.134ZM594.782 100.264C596.852 100.264 598.462 99.6987 599.614 98.568C600.766 97.4373 601.342 95.8373 601.342 93.768C601.342 91.6987 600.766 90.088 599.614 88.936C598.462 87.784 596.852 87.208 594.782 87.208H592.19V100.264H594.782ZM615.344 82.536V95.976C615.344 97.32 615.675 98.3547 616.336 99.08C616.998 99.8053 617.968 100.168 619.248 100.168C620.528 100.168 621.51 99.8053 622.192 99.08C622.875 98.3547 623.216 97.32 623.216 95.976V82.536H628.688V95.944C628.688 97.9493 628.262 99.6453 627.408 101.032C626.555 102.419 625.403 103.464 623.952 104.168C622.523 104.872 620.923 105.224 619.152 105.224C617.382 105.224 615.792 104.883 614.384 104.2C612.998 103.496 611.899 102.451 611.088 101.064C610.278 99.656 609.872 97.9493 609.872 95.944V82.536H615.344ZM640.659 105.224C639.016 105.224 637.544 104.957 636.243 104.424C634.942 103.891 633.896 103.101 633.107 102.056C632.339 101.011 631.934 99.752 631.891 98.28H637.715C637.8 99.112 638.088 99.752 638.579 100.2C639.07 100.627 639.71 100.84 640.499 100.84C641.31 100.84 641.95 100.659 642.419 100.296C642.888 99.912 643.123 99.3893 643.123 98.728C643.123 98.1733 642.931 97.7147 642.547 97.352C642.184 96.9893 641.726 96.6907 641.171 96.456C640.638 96.2213 639.87 95.9547 638.867 95.656C637.416 95.208 636.232 94.76 635.315 94.312C634.398 93.864 633.608 93.2027 632.947 92.328C632.286 91.4533 631.955 90.312 631.955 88.904C631.955 86.8133 632.712 85.1813 634.227 84.008C635.742 82.8133 637.715 82.216 640.147 82.216C642.622 82.216 644.616 82.8133 646.131 84.008C647.646 85.1813 648.456 86.824 648.563 88.936H642.643C642.6 88.2107 642.334 87.6453 641.843 87.24C641.352 86.8133 640.723 86.6 639.955 86.6C639.294 86.6 638.76 86.7813 638.355 87.144C637.95 87.4853 637.747 87.9867 637.747 88.648C637.747 89.3733 638.088 89.9387 638.771 90.344C639.454 90.7493 640.52 91.1867 641.971 91.656C643.422 92.1467 644.595 92.616 645.491 93.064C646.408 93.512 647.198 94.1627 647.859 95.016C648.52 95.8693 648.851 96.968 648.851 98.312C648.851 99.592 648.52 100.755 647.859 101.8C647.219 102.845 646.28 103.677 645.043 104.296C643.806 104.915 642.344 105.224 640.659 105.224ZM668.378 82.536V86.92H662.426V105H656.954V86.92H651.002V82.536H668.378ZM682.581 105L677.909 96.52H676.597V105H671.125V82.536H680.309C682.079 82.536 683.583 82.8453 684.821 83.464C686.079 84.0827 687.018 84.936 687.637 86.024C688.255 87.0907 688.565 88.2853 688.565 89.608C688.565 91.1013 688.138 92.4347 687.285 93.608C686.453 94.7813 685.215 95.6133 683.573 96.104L688.757 105H682.581ZM676.597 92.648H679.989C680.991 92.648 681.738 92.4027 682.229 91.912C682.741 91.4213 682.997 90.728 682.997 89.832C682.997 88.9787 682.741 88.3067 682.229 87.816C681.738 87.3253 680.991 87.08 679.989 87.08H676.597V92.648ZM697.472 82.536V105H692V82.536H697.472ZM715.421 101.032H707.037L705.693 105H699.965L708.093 82.536H714.429L722.557 105H716.765L715.421 101.032ZM714.013 96.808L711.229 88.584L708.477 96.808H714.013ZM730.884 93.736C730.884 91.5173 731.364 89.544 732.324 87.816C733.284 86.0667 734.617 84.712 736.324 83.752C738.052 82.7707 740.004 82.28 742.18 82.28C744.847 82.28 747.129 82.984 749.028 84.392C750.927 85.8 752.196 87.72 752.836 90.152H746.82C746.372 89.2133 745.732 88.4987 744.9 88.008C744.089 87.5173 743.161 87.272 742.116 87.272C740.431 87.272 739.065 87.8587 738.02 89.032C736.975 90.2053 736.452 91.7733 736.452 93.736C736.452 95.6987 736.975 97.2667 738.02 98.44C739.065 99.6133 740.431 100.2 742.116 100.2C743.161 100.2 744.089 99.9547 744.9 99.464C745.732 98.9733 746.372 98.2587 746.82 97.32H752.836C752.196 99.752 750.927 101.672 749.028 103.08C747.129 104.467 744.847 105.16 742.18 105.16C740.004 105.16 738.052 104.68 736.324 103.72C734.617 102.739 733.284 101.384 732.324 99.656C731.364 97.928 730.884 95.9547 730.884 93.736ZM766.811 105.224C764.699 105.224 762.758 104.733 760.987 103.752C759.238 102.771 757.84 101.405 756.795 99.656C755.771 97.8853 755.259 95.9013 755.259 93.704C755.259 91.5067 755.771 89.5333 756.795 87.784C757.84 86.0347 759.238 84.6693 760.987 83.688C762.758 82.7067 764.699 82.216 766.811 82.216C768.923 82.216 770.854 82.7067 772.603 83.688C774.374 84.6693 775.76 86.0347 776.763 87.784C777.787 89.5333 778.299 91.5067 778.299 93.704C778.299 95.9013 777.787 97.8853 776.763 99.656C775.739 101.405 774.352 102.771 772.603 103.752C770.854 104.733 768.923 105.224 766.811 105.224ZM766.811 100.232C768.603 100.232 770.032 99.6347 771.099 98.44C772.187 97.2453 772.731 95.6667 772.731 93.704C772.731 91.72 772.187 90.1413 771.099 88.968C770.032 87.7733 768.603 87.176 766.811 87.176C764.998 87.176 763.547 87.7627 762.459 88.936C761.392 90.1093 760.859 91.6987 760.859 93.704C760.859 95.688 761.392 97.2773 762.459 98.472C763.547 99.6453 764.998 100.232 766.811 100.232ZM801.439 105H795.967L786.815 91.144V105H781.343V82.536H786.815L795.967 96.456V82.536H801.439V105ZM820.03 82.536V86.92H810.878V91.656H817.726V95.912H810.878V105H805.406V82.536H820.03ZM828.378 82.536V105H822.906V82.536H828.378ZM829.37 78.024L821.658 81.256V77.48L829.37 73.768V78.024ZM846.327 101.032H837.943L836.599 105H830.871L838.999 82.536H845.335L853.463 105H847.671L846.327 101.032ZM844.919 96.808L842.135 88.584L839.383 96.808H844.919ZM876.033 105H870.561L861.409 91.144V105H855.937V82.536H861.409L870.561 96.456V82.536H876.033V105ZM892.253 86.92V91.464H899.581V95.688H892.253V100.616H900.541V105H886.781V82.536H900.541V86.92H892.253ZM924.189 105H918.717L909.565 91.144V105H904.093V82.536H909.565L918.717 96.456V82.536H924.189V105ZM955.033 105H949.561L940.409 91.144V105H934.937V82.536H940.409L949.561 96.456V82.536H955.033V105ZM969.624 105.224C967.512 105.224 965.57 104.733 963.8 103.752C962.05 102.771 960.653 101.405 959.608 99.656C958.584 97.8853 958.072 95.9013 958.072 93.704C958.072 91.5067 958.584 89.5333 959.608 87.784C960.653 86.0347 962.05 84.6693 963.8 83.688C965.57 82.7067 967.512 82.216 969.624 82.216C971.736 82.216 973.666 82.7067 975.416 83.688C977.186 84.6693 978.573 86.0347 979.576 87.784C980.6 89.5333 981.112 91.5067 981.112 93.704C981.112 95.9013 980.6 97.8853 979.576 99.656C978.552 101.405 977.165 102.771 975.416 103.752C973.666 104.733 971.736 105.224 969.624 105.224ZM969.624 100.232C971.416 100.232 972.845 99.6347 973.912 98.44C975 97.2453 975.544 95.6667 975.544 93.704C975.544 91.72 975 90.1413 973.912 88.968C972.845 87.7733 971.416 87.176 969.624 87.176C967.81 87.176 966.36 87.7627 965.272 88.936C964.205 90.1093 963.672 91.6987 963.672 93.704C963.672 95.688 964.205 97.2773 965.272 98.472C966.36 99.6453 967.81 100.232 969.624 100.232ZM992.284 105.224C990.641 105.224 989.169 104.957 987.868 104.424C986.567 103.891 985.521 103.101 984.732 102.056C983.964 101.011 983.559 99.752 983.516 98.28H989.34C989.425 99.112 989.713 99.752 990.204 100.2C990.695 100.627 991.335 100.84 992.124 100.84C992.935 100.84 993.575 100.659 994.044 100.296C994.513 99.912 994.748 99.3893 994.748 98.728C994.748 98.1733 994.556 97.7147 994.172 97.352C993.809 96.9893 993.351 96.6907 992.796 96.456C992.263 96.2213 991.495 95.9547 990.492 95.656C989.041 95.208 987.857 94.76 986.94 94.312C986.023 93.864 985.233 93.2027 984.572 92.328C983.911 91.4533 983.58 90.312 983.58 88.904C983.58 86.8133 984.337 85.1813 985.852 84.008C987.367 82.8133 989.34 82.216 991.772 82.216C994.247 82.216 996.241 82.8133 997.756 84.008C999.271 85.1813 1000.08 86.824 1000.19 88.936H994.268C994.225 88.2107 993.959 87.6453 993.468 87.24C992.977 86.8133 992.348 86.6 991.58 86.6C990.919 86.6 990.385 86.7813 989.98 87.144C989.575 87.4853 989.372 87.9867 989.372 88.648C989.372 89.3733 989.713 89.9387 990.396 90.344C991.079 90.7493 992.145 91.1867 993.596 91.656C995.047 92.1467 996.22 92.616 997.116 93.064C998.033 93.512 998.823 94.1627 999.484 95.016C1000.15 95.8693 1000.48 96.968 1000.48 98.312C1000.48 99.592 1000.15 100.755 999.484 101.8C998.844 102.845 997.905 103.677 996.668 104.296C995.431 104.915 993.969 105.224 992.284 105.224ZM1014.47 105.224C1012.36 105.224 1010.41 104.733 1008.64 103.752C1006.89 102.771 1005.5 101.405 1004.45 99.656C1003.43 97.8853 1002.92 95.9013 1002.92 93.704C1002.92 91.5067 1003.43 89.5333 1004.45 87.784C1005.5 86.0347 1006.89 84.6693 1008.64 83.688C1010.41 82.7067 1012.36 82.216 1014.47 82.216C1016.58 82.216 1018.51 82.7067 1020.26 83.688C1022.03 84.6693 1023.42 86.0347 1024.42 87.784C1025.44 89.5333 1025.96 91.5067 1025.96 93.704C1025.96 95.9013 1025.44 97.8853 1024.42 99.656C1023.4 101.405 1022.01 102.771 1020.26 103.752C1018.51 104.733 1016.58 105.224 1014.47 105.224ZM1014.47 100.232C1016.26 100.232 1017.69 99.6347 1018.76 98.44C1019.84 97.2453 1020.39 95.6667 1020.39 93.704C1020.39 91.72 1019.84 90.1413 1018.76 88.968C1017.69 87.7733 1016.26 87.176 1014.47 87.176C1012.65 87.176 1011.2 87.7627 1010.12 88.936C1009.05 90.1093 1008.52 91.6987 1008.52 93.704C1008.52 95.688 1009.05 97.2773 1010.12 98.472C1011.2 99.6453 1012.65 100.232 1014.47 100.232ZM1045.16 82.536V86.92H1039.21V105H1033.74V86.92H1027.78V82.536H1045.16ZM1059.36 105L1054.69 96.52H1053.38V105H1047.91V82.536H1057.09C1058.86 82.536 1060.36 82.8453 1061.6 83.464C1062.86 84.0827 1063.8 84.936 1064.42 86.024C1065.04 87.0907 1065.35 88.2853 1065.35 89.608C1065.35 91.1013 1064.92 92.4347 1064.07 93.608C1063.23 94.7813 1062 95.6133 1060.35 96.104L1065.54 105H1059.36ZM1053.38 92.648H1056.77C1057.77 92.648 1058.52 92.4027 1059.01 91.912C1059.52 91.4213 1059.78 90.728 1059.78 89.832C1059.78 88.9787 1059.52 88.3067 1059.01 87.816C1058.52 87.3253 1057.77 87.08 1056.77 87.08H1053.38V92.648ZM1079.4 105.224C1077.29 105.224 1075.35 104.733 1073.58 103.752C1071.83 102.771 1070.43 101.405 1069.39 99.656C1068.36 97.8853 1067.85 95.9013 1067.85 93.704C1067.85 91.5067 1068.36 89.5333 1069.39 87.784C1070.43 86.0347 1071.83 84.6693 1073.58 83.688C1075.35 82.7067 1077.29 82.216 1079.4 82.216C1081.52 82.216 1083.45 82.7067 1085.2 83.688C1086.97 84.6693 1088.35 86.0347 1089.36 87.784C1090.38 89.5333 1090.89 91.5067 1090.89 93.704C1090.89 95.9013 1090.38 97.8853 1089.36 99.656C1088.33 101.405 1086.95 102.771 1085.2 103.752C1083.45 104.733 1081.52 105.224 1079.4 105.224ZM1079.4 100.232C1081.2 100.232 1082.63 99.6347 1083.69 98.44C1084.78 97.2453 1085.32 95.6667 1085.32 93.704C1085.32 91.72 1084.78 90.1413 1083.69 88.968C1082.63 87.7733 1081.2 87.176 1079.4 87.176C1077.59 87.176 1076.14 87.7627 1075.05 88.936C1073.99 90.1093 1073.45 91.6987 1073.45 93.704C1073.45 95.688 1073.99 97.2773 1075.05 98.472C1076.14 99.6453 1077.59 100.232 1079.4 100.232ZM1102.07 105.224C1100.42 105.224 1098.95 104.957 1097.65 104.424C1096.35 103.891 1095.3 103.101 1094.51 102.056C1093.75 101.011 1093.34 99.752 1093.3 98.28H1099.12C1099.21 99.112 1099.49 99.752 1099.99 100.2C1100.48 100.627 1101.12 100.84 1101.91 100.84C1102.72 100.84 1103.36 100.659 1103.83 100.296C1104.29 99.912 1104.53 99.3893 1104.53 98.728C1104.53 98.1733 1104.34 97.7147 1103.95 97.352C1103.59 96.9893 1103.13 96.6907 1102.58 96.456C1102.04 96.2213 1101.28 95.9547 1100.27 95.656C1098.82 95.208 1097.64 94.76 1096.72 94.312C1095.8 93.864 1095.01 93.2027 1094.35 92.328C1093.69 91.4533 1093.36 90.312 1093.36 88.904C1093.36 86.8133 1094.12 85.1813 1095.63 84.008C1097.15 82.8133 1099.12 82.216 1101.55 82.216C1104.03 82.216 1106.02 82.8133 1107.54 84.008C1109.05 85.1813 1109.86 86.824 1109.97 88.936H1104.05C1104.01 88.2107 1103.74 87.6453 1103.25 87.24C1102.76 86.8133 1102.13 86.6 1101.36 86.6C1100.7 86.6 1100.17 86.7813 1099.76 87.144C1099.36 87.4853 1099.15 87.9867 1099.15 88.648C1099.15 89.3733 1099.49 89.9387 1100.18 90.344C1100.86 90.7493 1101.93 91.1867 1103.38 91.656C1104.83 92.1467 1106 92.616 1106.9 93.064C1107.81 93.512 1108.6 94.1627 1109.27 95.016C1109.93 95.8693 1110.26 96.968 1110.26 98.312C1110.26 99.592 1109.93 100.755 1109.27 101.8C1108.63 102.845 1107.69 103.677 1106.45 104.296C1105.21 104.915 1103.75 105.224 1102.07 105.224Z" fill="white"/>
<defs>
<linearGradient id="paint0_linear_190_12" x1="719.5" y1="0" x2="719.5" y2="188" gradientUnits="userSpaceOnUse">
<stop stop-color="#FF0000"/>
<stop offset="1" stop-color="#990000"/>
</linearGradient>
</defs>
</svg>
