<svg width="75" height="75" viewBox="0 0 75 75" fill="none" xmlns="http://www.w3.org/2000/svg">
<g clip-path="url(#clip0_34_57)">
<path d="M47.8125 67.86C47.4675 67.7325 47.01 67.38 46.8075 67.0875L46.635 66.8325L32.745 66.8025C20.31 66.78 18.795 66.765 18.225 66.66C15.9225 66.2175 14.3625 65.5425 12.7875 64.3125C10.5525 62.5575 9.2175 60.435 8.565 57.6L8.37 56.7375L8.3475 47.2725L8.3175 37.8H9.1875H10.05V46.8225C10.05 56.61 10.05 56.565 10.4625 57.9975C11.58 61.8525 14.5875 64.3425 18.9225 64.9875C19.575 65.085 21.5325 65.1 33.15 65.1H46.62L46.845 64.8075C47.5875 63.81 48.99 63.705 49.8675 64.59C50.25 64.965 50.4 65.355 50.4 65.9625C50.4 66.78 50.0325 67.3725 49.32 67.74C48.96 67.9275 48.15 67.9875 47.8125 67.86Z" fill="black"/>
<path d="M53.7675 66.78C53.745 66.7425 53.73 66.36 53.7375 65.925V65.1375L54.75 65.0925C56.37 65.0175 57.6675 64.755 58.905 64.245C61.8375 63.03 63.8175 60.75 64.6125 57.66C64.935 56.43 64.95 56.145 64.9425 50.2875V44.6625L64.71 44.5125C64.335 44.28 63.9975 43.7775 63.8925 43.305C63.6975 42.4425 64.0875 41.595 64.875 41.145C65.2275 40.9425 65.3625 40.9125 65.8125 40.9125C66.6 40.9125 67.155 41.235 67.56 41.925C67.7325 42.21 67.7625 42.345 67.7625 42.8625C67.7625 43.59 67.6125 43.9275 67.0575 44.4075L66.6825 44.7375L66.6525 50.6625C66.63 56.46 66.6225 56.6025 66.4575 57.405C65.9475 59.8875 64.89 61.8075 63.09 63.5325C61.335 65.22 59.37 66.18 56.7525 66.6375C55.995 66.765 53.8125 66.87 53.7675 66.78Z" fill="black"/>
<path d="M64.95 28.4475C64.95 18.18 64.9575 18.39 64.38 16.6725C63.1725 13.0875 60.2325 10.7925 56.0325 10.155C55.44 10.065 53.0925 10.05 41.85 10.05H28.38L28.1625 10.335C27.72 10.9275 27.0525 11.2275 26.34 11.16C25.6725 11.0925 25.0275 10.6275 24.7425 10.0125C24.555 9.6075 24.555 8.7675 24.7425 8.3625C25.3725 7.005 27.2775 6.8175 28.1475 8.025L28.3575 8.3175L42.285 8.34L56.2125 8.3625L57.15 8.565C59.685 9.1125 61.56 10.095 63.255 11.76C64.965 13.44 66.0075 15.4125 66.5025 17.91C66.6225 18.5025 66.63 19.4175 66.6525 28.0725L66.6825 37.575H65.8125H64.95V28.4475Z" fill="black"/>
<path d="M8.49 34.365C8.22 34.2825 7.59 33.69 7.4175 33.36C7.215 32.9625 7.1475 32.2875 7.275 31.905C7.41 31.485 7.755 31.0125 8.055 30.825L8.3175 30.6675L8.34 24.5775C8.37 18.57 8.37 18.48 8.5425 17.7075C8.985 15.6675 9.63 14.265 10.785 12.8175C13.05 9.97501 16.1475 8.49001 20.0775 8.34751L21.375 8.30251V9.17251V10.05H20.4675C18.8025 10.05 17.01 10.4475 15.5475 11.145C12.9825 12.3675 11.25 14.4225 10.4625 17.175C10.0575 18.555 10.05 18.7125 10.05 24.9075V30.6525L10.3125 30.8325C10.635 31.05 10.995 31.575 11.1075 31.98C11.2125 32.37 11.1375 33 10.95 33.375C10.7475 33.7725 10.1025 34.32 9.7575 34.38C9.42 34.4325 8.715 34.425 8.49 34.365Z" fill="black"/>
<path d="M19.2375 43.1393C18.6525 43.0718 17.6775 42.7943 17.1375 42.5243C13.5675 40.7918 12.885 35.9393 15.84 33.2693C16.9275 32.2793 18.3075 31.7843 19.95 31.7843C21.645 31.7918 23.0775 32.3168 24.3975 33.4118L24.915 33.8393L24.66 34.1018C24.525 34.2443 24.315 34.4318 24.2025 34.5143L23.985 34.6643L23.715 34.4093C23.3625 34.0793 22.89 33.7568 22.3125 33.4643C20.79 32.6993 19.1325 32.6843 17.6625 33.4268C16.5975 33.9668 15.7425 34.9643 15.33 36.1493C15.1125 36.7718 15.1275 38.1143 15.36 38.7743C15.81 40.0793 16.8375 41.1743 18.075 41.6768C20.4225 42.6218 23.0025 41.8418 23.955 39.8918C24.105 39.5843 24.2475 39.1943 24.27 39.0218L24.3225 38.6993H21.8325H19.35V38.1743V37.6493H22.47H25.59L25.5375 38.2643C25.3275 40.7843 23.76 42.6218 21.45 43.0568C20.9775 43.1393 19.695 43.1918 19.2375 43.1393Z" fill="black"/>
<path d="M31.95 43.1175C30.7275 42.945 29.61 42.36 28.7175 41.415C28.065 40.725 27.6675 40.0875 27.3975 39.2625C27.2175 38.73 27.195 38.5425 27.195 37.575C27.195 36.39 27.285 35.9175 27.675 35.055C28.845 32.4675 31.7325 31.2 34.5375 32.0325C35.37 32.28 36.0375 32.67 36.72 33.3225C37.7475 34.2975 38.235 35.2275 38.445 36.63C38.8125 39.0975 37.575 41.505 35.3625 42.6C35.0325 42.765 34.53 42.9525 34.245 43.0125C33.645 43.155 32.55 43.2 31.95 43.1175ZM33.975 41.9175C34.815 41.685 35.37 41.3625 36.0075 40.725C36.6825 40.0575 37.05 39.375 37.245 38.4075C37.8 35.625 35.82 33.03 33.0375 32.8875C30.96 32.7825 29.0025 34.23 28.4625 36.2625C28.3275 36.7875 28.2975 38.04 28.4175 38.565C28.71 39.855 29.5725 40.965 30.7725 41.595C31.7025 42.0825 32.9325 42.21 33.975 41.9175Z" fill="black"/>
<path d="M40.65 37.4625V32.025H41.2125H41.775V34.3125V36.6L44.52 36.585L47.2725 36.5625L47.2575 34.425C47.25 33.2475 47.265 32.2275 47.295 32.1525C47.3625 31.98 48.3375 31.965 48.405 32.1375C48.4275 32.1975 48.435 34.635 48.4275 37.5525L48.4125 42.8625H47.85H47.2875L47.2725 40.2825L47.2575 37.7025L44.5125 37.695L41.775 37.6875V40.2975V42.9H41.2125H40.65V37.4625Z" fill="black"/>
<path d="M50.085 42.7725C50.1225 42.6975 50.2425 42.45 50.3475 42.225C50.445 42 50.7375 41.3775 50.9925 40.8525C51.24 40.3275 51.45 39.8775 51.45 39.87C51.45 39.855 51.72 39.285 52.05 38.595C52.38 37.9125 52.65 37.335 52.65 37.32C52.65 37.305 52.92 36.735 53.25 36.045C53.58 35.3625 53.85 34.785 53.85 34.77C53.85 34.755 54.1125 34.1925 54.435 33.5175C54.7575 32.8425 55.05 32.2275 55.0725 32.16C55.1025 32.085 55.1925 32.025 55.275 32.025C55.4325 32.025 55.455 32.0625 56.385 34.05C56.505 34.32 56.7675 34.8675 56.955 35.2725C57.1425 35.685 57.3 36.0225 57.3 36.0375C57.3 36.045 57.54 36.5475 57.825 37.155C58.1175 37.755 58.35 38.265 58.35 38.2875C58.35 38.3025 58.5225 38.67 58.7325 39.09C58.935 39.5175 59.22 40.1175 59.3625 40.425C59.4975 40.7325 59.7975 41.385 60.03 41.865C60.2625 42.3525 60.45 42.78 60.45 42.825C60.45 42.87 60.2175 42.9 59.8575 42.9H59.265L59.025 42.3975C58.8975 42.1125 58.665 41.6175 58.515 41.2875C58.365 40.9575 58.0875 40.3875 57.9 40.0275L57.5625 39.36H55.275H52.9875L52.65 40.0275C52.4625 40.395 52.2075 40.9275 52.0725 41.2125C51.945 41.505 51.7125 42 51.5625 42.3225L51.285 42.9H50.655C50.07 42.9 50.025 42.8925 50.085 42.7725ZM57.075 38.2275C57.075 38.2125 56.865 37.7475 56.6025 37.1925C56.34 36.6375 56.0625 36.0525 55.9875 35.8875C55.515 34.8375 55.2 34.275 55.2 34.485C55.2 34.5375 55.065 34.8525 54.9075 35.1975C54.75 35.535 54.5025 36.0675 54.3525 36.375C54.09 36.945 53.55 38.0925 53.4975 38.1975C53.4825 38.2275 54.2775 38.25 55.2675 38.25C56.265 38.25 57.075 38.235 57.075 38.2275Z" fill="black"/>
</g>
<defs>
<clipPath id="clip0_34_57">
<rect width="75" height="75" fill="white"/>
</clipPath>
</defs>
</svg>
