<svg width="126" height="46" viewBox="0 0 126 46" fill="none" xmlns="http://www.w3.org/2000/svg">
<g clip-path="url(#clip0_39_161)">
<path d="M13.8575 5.68127H0V38.8219L13.8575 5.68127Z" fill="#FA0C00"/>
<path d="M23.6076 5.68127H37.447V38.8219L23.6076 5.68127Z" fill="#FA0C00"/>
<path d="M18.7327 17.8958L27.5527 38.8219H21.766L19.1299 32.1595H12.6751L18.7327 17.8958Z" fill="#FA0C00"/>
<path d="M60.0542 26.7566L61.6883 31.4419C61.7424 31.5593 61.8237 31.6135 61.9681 31.6135H65.1097C65.2813 31.6135 65.3083 31.5323 65.2813 31.3607L58.7903 13.3324C58.7633 13.188 58.7362 13.1609 58.5917 13.1609H54.6918C54.5835 13.1609 54.5202 13.2421 54.5202 13.3594C54.4661 14.3074 54.3848 14.5963 54.2675 14.8762L48.4807 31.3336C48.4536 31.5323 48.5168 31.6135 48.6793 31.6135H51.4869C51.6585 31.6135 51.7397 31.5593 51.8029 31.3878L53.3467 26.7566H60.0542ZM54.2404 23.6962C55.089 21.1323 56.2084 17.8462 56.6598 15.9685H56.6869C57.2466 17.9365 58.5646 21.8364 59.1605 23.6962H54.2404Z" fill="#FA0C00"/>
<path d="M73.6259 31.8933C75.3141 31.8933 77.1106 31.5863 78.9341 30.801C79.0786 30.7468 79.1057 30.6836 79.1057 30.5482C79.0515 30.0427 78.9883 29.3114 78.9883 28.7517V11.7796C78.9883 11.6713 78.9883 11.6171 78.8529 11.6171H75.7925C75.6752 11.6171 75.621 11.6713 75.621 11.8158V17.5664C75.1425 17.5122 74.8085 17.4851 74.4113 17.4851C69.4732 17.4851 66.4398 20.7441 66.4398 24.8156C66.4398 29.5371 69.5544 31.8933 73.6259 31.8933ZM75.621 28.7517C75.1154 28.9142 74.5557 28.9774 73.987 28.9774C71.7481 28.9774 69.9154 27.7135 69.9154 24.6441C69.9154 21.9268 71.8023 20.3199 74.303 20.3199C74.8085 20.3199 75.2509 20.374 75.621 20.5184V28.7517Z" fill="#FA0C00"/>
<path d="M88.8688 17.4852C84.6529 17.4852 82.0439 20.717 82.0439 24.7073C82.0439 28.2732 84.1202 31.8934 88.8056 31.8934C92.7688 31.8934 95.5492 28.9774 95.5492 24.617C95.5492 20.7712 93.193 17.4852 88.8688 17.4852ZM88.6973 20.3198C91.0806 20.3198 92.0916 22.3691 92.0916 24.7073C92.0916 27.5962 90.6021 29.0316 88.8688 29.0316C86.7292 29.0316 85.4653 27.235 85.4653 24.6441C85.4653 21.9809 86.8104 20.3198 88.6973 20.3198Z" fill="#FA0C00"/>
<path d="M98.7136 11.6171C98.5962 11.6171 98.5148 11.6713 98.5148 11.8158V31.0266C98.5148 31.1079 98.5962 31.2524 98.7136 31.2795C100.058 31.6947 101.467 31.8933 102.921 31.8933C107.082 31.8933 111.126 29.3114 111.126 24.1114C111.126 20.3469 108.544 17.4851 104.5 17.4851C103.57 17.4851 102.704 17.6296 101.945 17.8823L101.909 11.8429C101.909 11.6442 101.855 11.6171 101.657 11.6171H98.7136ZM107.669 24.4545C107.669 27.569 105.539 29.0316 103.236 29.0316C102.758 29.0316 102.334 29.0045 101.945 28.8871V20.69C102.387 20.5184 102.921 20.374 103.904 20.374C106.125 20.374 107.669 21.7823 107.669 24.4545Z" fill="#FA0C00"/>
<path d="M122.547 25.4656C123.919 25.4656 125.048 25.4385 125.436 25.3483C125.581 25.3212 125.635 25.2671 125.663 25.1496C125.743 24.8427 125.779 24.2017 125.779 23.4163C125.779 20.7441 124.172 17.4852 120.02 17.4852C115.777 17.4852 113.42 20.9428 113.42 24.8427C113.42 28.3003 115.244 31.8934 120.353 31.8934C122.268 31.8934 123.505 31.5864 124.57 31.0809C124.678 31.0267 124.732 30.9364 124.732 30.7739V28.4358C124.732 28.3003 124.651 28.2732 124.57 28.3274C123.505 28.7788 122.349 29.0045 121.085 29.0045C118.223 29.0045 116.923 27.4246 116.842 25.4656H122.547ZM116.842 23.0462C117.068 21.674 117.934 20.1844 119.875 20.1844C122.015 20.1844 122.575 21.9809 122.575 22.7934C122.575 22.8205 122.575 22.9378 122.575 23.0191C122.457 23.0462 122.097 23.0462 121.031 23.0462H116.842Z" fill="#FA0C00"/>
</g>
<defs>
<clipPath id="clip0_39_161">
<rect width="125.934" height="45.45" fill="white"/>
</clipPath>
</defs>
</svg>
