<svg width="101" height="101" viewBox="0 0 101 101" fill="none" xmlns="http://www.w3.org/2000/svg">
<g clip-path="url(#clip0_38_125)">
<mask id="mask0_38_125" style="mask-type:luminance" maskUnits="userSpaceOnUse" x="0" y="0" width="101" height="101">
<path d="M101 0H0V101H101V0Z" fill="white"/>
</mask>
<g mask="url(#mask0_38_125)">
<path d="M50.5 100.966C50.0011 100.966 49.4955 100.96 49.0032 100.946L59.3122 72.6014H73.5048C75.9995 72.6014 78.7368 70.6798 79.5864 68.3403L90.7719 37.6088C92.6059 32.579 89.7268 28.4594 84.3667 28.4594H64.6792L48.1538 73.8621H48.1469L38.7818 99.5977C16.5659 94.3116 0.0337296 74.3342 0.0337296 50.5C0.0337296 27.347 15.622 7.84136 36.8739 1.89463L27.212 28.4594H27.2054L11.1383 72.6014H21.8384L35.4983 35.0939H43.5419L29.8752 72.6014H40.5687L53.2981 37.6088C55.1321 32.579 52.2463 28.4594 46.8996 28.4594H37.9122L48.2346 0.0876911C48.9852 0.0517321 49.7405 0.0337524 50.5 0.0337524C78.3728 0.0337524 100.966 22.6273 100.966 50.5C100.966 78.3728 78.3728 100.966 50.5 100.966Z" fill="black"/>
<path d="M69.7831 65.9399H61.7462L72.9992 35.0668H81.0359L69.7831 65.9399Z" fill="black"/>
</g>
</g>
<defs>
<clipPath id="clip0_38_125">
<rect width="101" height="101" fill="white"/>
</clipPath>
</defs>
</svg>
