<svg width="129" height="51" viewBox="0 0 129 51" fill="none" xmlns="http://www.w3.org/2000/svg">
<g clip-path="url(#clip0_39_153)">
<mask id="mask0_39_153" style="mask-type:luminance" maskUnits="userSpaceOnUse" x="0" y="-6" width="129" height="52">
<path d="M128.08 -5.04999H0V45.45H128.08V-5.04999Z" fill="white"/>
</mask>
<g mask="url(#mask0_39_153)">
<path d="M10.6248 -3.3656H1.52246V5.7367H10.6248V-3.3656Z" fill="#00C7FD"/>
<path d="M10.3981 44.0571V11.2759H1.78162V44.0571H10.3981ZM67.6681 44.3811V36.3478C66.4048 36.3478 65.3358 36.283 64.5584 36.1534C63.6514 36.0238 62.9712 35.6999 62.5177 35.2464C62.0642 34.7929 61.7726 34.1451 61.6106 33.3029C61.4812 32.493 61.4163 31.4241 61.4163 30.1284V18.6614H67.6681V11.2759H61.4163V-1.51915H52.7675V30.1932C52.7675 32.8818 52.9942 35.1492 53.4477 36.9632C53.9012 38.7448 54.6787 40.2025 55.7476 41.3038C56.8166 42.4052 58.2419 43.1826 59.9587 43.6685C61.7079 44.1544 63.9105 44.3811 66.5344 44.3811H67.6681ZM117.164 44.0571V-4.04578H108.515V44.0571H117.164ZM44.4427 14.4828C42.0456 11.8914 38.6768 10.5956 34.4009 10.5956C32.3278 10.5956 30.449 11.0168 28.7322 11.8589C27.0478 12.7012 25.5902 13.8673 24.4564 15.3574L23.9706 15.9729V15.4221V11.2759H15.4513V44.0571H24.0353V26.5976V27.7961C24.0353 27.6018 24.0353 27.4074 24.0353 27.2131C24.1325 24.1358 24.8775 21.8682 26.3028 20.4106C27.8252 18.8558 29.6716 18.0783 31.7772 18.0783C34.2714 18.0783 36.1826 18.8558 37.4459 20.3459C38.6768 21.8359 39.3246 23.9414 39.3246 26.63V26.6947V44.0248H48.0382V25.4314C48.0706 20.7669 46.8397 17.0742 44.4427 14.4828ZM104.045 27.6018C104.045 25.2371 103.624 23.0344 102.814 20.9613C101.972 18.9206 100.806 17.1066 99.348 15.5517C97.8579 13.9969 96.0764 12.7983 94.0033 11.9238C91.9301 11.0491 89.6303 10.628 87.1361 10.628C84.7714 10.628 82.5363 11.0815 80.4632 11.9562C78.3901 12.8632 76.576 14.0616 75.0536 15.5841C73.5312 17.1066 72.3003 18.9206 71.4256 20.9937C70.5186 23.0668 70.0976 25.3019 70.0976 27.6665C70.0976 30.0312 70.5186 32.2663 71.3609 34.3394C72.203 36.4125 73.4016 38.2265 74.8916 39.749C76.3817 41.2715 78.2281 42.5023 80.366 43.3769C82.5039 44.2839 84.8685 44.7375 87.3951 44.7375C94.7159 44.7375 99.2508 41.401 101.972 38.2913L95.7525 33.562C94.4568 35.1168 91.3471 37.2224 87.46 37.2224C85.0305 37.2224 83.0221 36.6717 81.4998 35.538C79.9773 34.4366 78.9407 32.8818 78.3901 30.9706L78.2928 30.6791H104.045V27.6018ZM78.3577 24.5893C78.3577 22.1922 81.111 18.0136 87.0388 17.9812C92.9667 17.9812 95.7525 22.1598 95.7525 24.5569L78.3577 24.5893Z" fill="#0068B5"/>
<path d="M127.012 39.7813C126.849 39.3927 126.623 39.0688 126.331 38.7772C126.04 38.4857 125.716 38.2589 125.327 38.0969C124.938 37.935 124.517 37.8378 124.096 37.8378C123.642 37.8378 123.253 37.935 122.865 38.0969C122.477 38.2589 122.152 38.4857 121.861 38.7772C121.57 39.0688 121.342 39.3927 121.181 39.7813C121.018 40.1701 120.921 40.5911 120.921 41.0123C120.921 41.4658 121.018 41.8544 121.181 42.2432C121.342 42.6319 121.57 42.9558 121.861 43.2473C122.152 43.5389 122.477 43.7657 122.865 43.9276C123.253 44.0896 123.675 44.1867 124.096 44.1867C124.549 44.1867 124.938 44.0896 125.327 43.9276C125.716 43.7657 126.04 43.5389 126.331 43.2473C126.623 42.9558 126.849 42.6319 127.012 42.2432C127.173 41.8544 127.27 41.4334 127.27 41.0123C127.27 40.5911 127.173 40.1701 127.012 39.7813ZM126.493 42.0489C126.363 42.3728 126.169 42.6643 125.942 42.891C125.716 43.1177 125.424 43.3122 125.1 43.4418C124.776 43.5713 124.452 43.6361 124.063 43.6361C123.707 43.6361 123.351 43.5713 123.027 43.4418C122.703 43.3122 122.411 43.1177 122.185 42.891C121.958 42.6643 121.764 42.3728 121.634 42.0489C121.504 41.725 121.439 41.4009 121.439 41.0123C121.439 40.656 121.504 40.2996 121.634 39.9757C121.764 39.6518 121.958 39.3602 122.185 39.1335C122.411 38.9068 122.703 38.7124 123.027 38.5828C123.351 38.4533 123.675 38.3885 124.063 38.3885C124.42 38.3885 124.776 38.4533 125.1 38.5828C125.424 38.7124 125.716 38.9068 125.942 39.1335C126.169 39.3602 126.363 39.6518 126.493 39.9757C126.623 40.2996 126.687 40.6236 126.687 41.0123C126.72 41.4009 126.623 41.725 126.493 42.0489ZM124.679 41.2715C124.938 41.239 125.133 41.1419 125.295 40.9799C125.456 40.8179 125.553 40.5911 125.553 40.2672C125.553 39.9109 125.456 39.6518 125.23 39.4574C125.035 39.2631 124.679 39.1659 124.258 39.1659H122.832V42.8263H123.513V41.3362H123.999L124.906 42.8263H125.619L124.679 41.2715ZM124.323 40.7531C124.226 40.7531 124.128 40.7531 123.999 40.7531H123.513V39.7166H123.999C124.096 39.7166 124.193 39.7166 124.323 39.7166C124.42 39.7166 124.517 39.749 124.614 39.7813C124.712 39.8137 124.776 39.8786 124.809 39.9433C124.841 40.0081 124.873 40.1053 124.873 40.2349C124.873 40.3644 124.841 40.4616 124.809 40.5264C124.744 40.5911 124.679 40.656 124.614 40.6884C124.517 40.7207 124.42 40.7531 124.323 40.7531Z" fill="#0068B5"/>
</g>
</g>
<defs>
<clipPath id="clip0_39_153">
<rect width="128.27" height="50.5" fill="white"/>
</clipPath>
</defs>
</svg>
