<svg width="121" height="36" viewBox="0 0 121 36" fill="none" xmlns="http://www.w3.org/2000/svg">
<g clip-path="url(#clip0_39_170)">
<path d="M120.675 16.0798V13.9575H118.039V10.6582L117.95 10.6855L115.475 11.4429L115.426 11.4577V13.9576H111.519V12.5649C111.519 11.9165 111.664 11.4203 111.95 11.0893C112.233 10.7623 112.64 10.5961 113.157 10.5961C113.529 10.5961 113.915 10.6838 114.303 10.8566L114.4 10.9001V8.66509L114.354 8.64823C113.992 8.51824 113.5 8.4527 112.89 8.4527C112.121 8.4527 111.423 8.62002 110.814 8.9515C110.204 9.2835 109.725 9.75748 109.389 10.3601C109.055 10.962 108.885 11.6571 108.885 12.4264V13.9575H107.049V16.0798H108.885V25.0204H111.519V16.0798H115.426V21.7613C115.426 24.1013 116.53 25.2871 118.707 25.2871C119.064 25.2871 119.441 25.2452 119.825 25.1631C120.217 25.0788 120.483 24.9947 120.64 24.9048L120.675 24.8843V22.7423L120.567 22.8133C120.424 22.9085 120.246 22.9863 120.038 23.0443C119.828 23.1032 119.653 23.1327 119.517 23.1327C119.007 23.1327 118.63 22.9953 118.396 22.7242C118.159 22.4506 118.039 21.9721 118.039 21.3027V16.0798H120.675ZM101.167 23.1331C100.211 23.1331 99.4565 22.8161 98.9255 22.1915C98.3909 21.5638 98.1198 20.6689 98.1198 19.5319C98.1198 18.3589 98.3909 17.4407 98.9255 16.802C99.4573 16.1674 100.204 15.8453 101.145 15.8453C102.058 15.8453 102.786 16.1529 103.307 16.7601C103.83 17.3703 104.095 18.2811 104.095 19.4678C104.095 20.6691 103.846 21.5919 103.353 22.2092C102.864 22.8219 102.128 23.1331 101.167 23.1331ZM101.284 13.691C99.4595 13.691 98.0108 14.2255 96.9776 15.2797C95.9451 16.3341 95.4215 17.7932 95.4215 19.6168C95.4215 21.3489 95.9326 22.7421 96.9408 23.7572C97.9482 24.7725 99.3203 25.2869 101.017 25.2869C102.785 25.2869 104.205 24.7448 105.238 23.676C106.27 22.6084 106.794 21.1631 106.794 19.382C106.794 17.6229 106.303 16.2192 105.334 15.211C104.365 14.2023 103.003 13.691 101.284 13.691ZM91.1743 13.691C89.9334 13.691 88.9067 14.0084 88.1231 14.6342C87.3337 15.2638 86.9338 16.0894 86.9338 17.0886C86.9338 17.6079 87.0199 18.0692 87.1901 18.4606C87.3609 18.8531 87.626 19.1988 87.9773 19.4889C88.3264 19.7766 88.8648 20.078 89.5784 20.3847C90.1786 20.6316 90.6264 20.8404 90.9106 21.005C91.1883 21.1663 91.3857 21.3285 91.4969 21.4865C91.6051 21.641 91.6596 21.8525 91.6596 22.1136C91.6596 22.8568 91.1029 23.2184 89.9577 23.2184C89.5327 23.2184 89.0489 23.1297 88.5179 22.9548C87.9906 22.7826 87.4935 22.5304 87.0428 22.207L86.9338 22.1286V24.6649L86.9735 24.6836C87.3462 24.8556 87.8161 25.0008 88.3706 25.1149C88.9229 25.2292 89.4252 25.2873 89.8619 25.2873C91.2082 25.2873 92.293 24.9684 93.0839 24.3388C93.88 23.705 94.2836 22.8598 94.2836 21.8261C94.2836 21.0805 94.0664 20.441 93.6385 19.9252C93.2128 19.4137 92.4749 18.9441 91.4453 18.5289C90.6249 18.1997 90.0998 17.9265 89.8833 17.7167C89.6741 17.5141 89.5681 17.2275 89.5681 16.8645C89.5681 16.5428 89.6992 16.2851 89.968 16.0764C90.239 15.8666 90.6161 15.7599 91.0889 15.7599C91.5278 15.7599 91.977 15.8292 92.4233 15.9651C92.8696 16.101 93.2622 16.2829 93.5891 16.5056L93.6967 16.5791V14.1732L93.6554 14.1555C93.3535 14.026 92.9551 13.9152 92.4719 13.8253C91.9903 13.736 91.5543 13.691 91.1743 13.691ZM80.0663 23.1331C79.1104 23.1331 78.3562 22.8161 77.8253 22.1915C77.2906 21.5638 77.0196 20.6691 77.0196 19.5319C77.0196 18.3589 77.2906 17.4407 77.8253 16.802C78.357 16.1674 79.103 15.8453 80.0449 15.8453C80.9581 15.8453 81.685 16.1529 82.2064 16.7601C82.7301 17.3703 82.9952 18.2811 82.9952 19.4678C82.9952 20.6691 82.7455 21.5919 82.2528 22.2092C81.7638 22.8219 81.0281 23.1331 80.0663 23.1331ZM80.1834 13.691C78.3592 13.691 76.9098 14.2255 75.8773 15.2797C74.8448 16.3341 74.3212 17.7932 74.3212 19.6168C74.3212 21.3496 74.8323 22.7421 75.8405 23.7572C76.848 24.7725 78.22 25.2869 79.9168 25.2869C81.685 25.2869 83.1049 24.7448 84.1382 23.676C85.17 22.6084 85.6936 21.1631 85.6936 19.382C85.6936 17.6229 85.2024 16.2192 84.2339 15.211C83.2647 14.2023 81.9016 13.691 80.1834 13.691ZM70.3222 15.8733V13.9575H67.72V25.0201H70.3222V19.3611C70.3222 18.3989 70.5404 17.6083 70.971 17.0113C71.396 16.4213 71.9624 16.1223 72.6539 16.1223C72.8883 16.1223 73.1515 16.161 73.4364 16.2374C73.7188 16.3134 73.9228 16.396 74.0435 16.4828L74.1525 16.5621V13.9386L74.1106 13.9205C73.8683 13.8175 73.5252 13.7656 73.0914 13.7656C72.4375 13.7656 71.8523 13.9757 71.351 14.3894C70.9111 14.753 70.5931 15.2516 70.3499 15.8733H70.3222ZM63.0599 13.691C61.866 13.691 60.8011 13.947 59.8954 14.4516C58.9878 14.9575 58.2858 15.6796 57.8082 16.5978C57.3328 17.5138 57.0914 18.5838 57.0914 19.7771C57.0914 20.8223 57.3254 21.7816 57.7881 22.6269C58.2509 23.4737 58.906 24.1362 59.7353 24.5956C60.5635 25.0545 61.5206 25.2872 62.5803 25.2872C63.8169 25.2872 64.8729 25.0399 65.7194 24.5523L65.7536 24.5327V22.1487L65.6442 22.2285C65.2608 22.5079 64.8322 22.7309 64.3711 22.8915C63.9112 23.052 63.4919 23.1331 63.1241 23.1331C62.103 23.1331 61.2834 22.8136 60.6884 22.1837C60.0921 21.553 59.7898 20.6673 59.7898 19.5528C59.7898 18.4313 60.105 17.5229 60.7264 16.8527C61.3459 16.1843 62.1671 15.8453 63.1671 15.8453C64.0224 15.8453 64.8559 16.1349 65.6445 16.7069L65.7536 16.7862V14.2742L65.7183 14.2544C65.4216 14.0882 65.0169 13.9511 64.5144 13.847C64.0142 13.7433 63.5248 13.691 63.0599 13.691ZM55.2992 13.9576H52.6969V25.0201H55.2992V13.9576ZM54.0247 9.24491C53.5964 9.24491 53.2228 9.39073 52.9159 9.67964C52.6077 9.96936 52.4514 10.3341 52.4514 10.7647C52.4514 11.1884 52.6058 11.5466 52.9111 11.8286C53.2144 12.1098 53.5891 12.2523 54.0248 12.2523C54.4603 12.2523 54.8364 12.1098 55.1433 11.8291C55.4522 11.5466 55.6089 11.1885 55.6089 10.7647C55.6089 10.3492 55.4564 9.98814 55.156 9.69127C54.8559 9.395 54.4751 9.24491 54.0247 9.24491ZM47.5318 13.1414V25.0201H50.1876V9.58353H46.5119L41.84 21.0494L37.3061 9.58353H33.4808V25.02H35.9765V13.1403H36.0622L40.8498 25.0201H42.7332L47.4462 13.1414H47.5318Z" fill="#706D6E"/>
<path d="M12.2418 16.667H0V4.42523H12.2418V16.667Z" fill="#F1511B"/>
<path d="M25.7582 16.667H13.5166V4.42523H25.7582V16.667Z" fill="#80CC28"/>
<path d="M12.2414 30.1882H0V17.9465H12.2414V30.1882Z" fill="#00ADEF"/>
<path d="M25.7582 30.1882H13.5166V17.9465H25.7582V30.1882Z" fill="#FBBC09"/>
</g>
<defs>
<clipPath id="clip0_39_170">
<rect width="120.779" height="35.35" fill="white"/>
</clipPath>
</defs>
</svg>
