<svg width="156" height="51" viewBox="0 0 156 51" fill="none" xmlns="http://www.w3.org/2000/svg">
<g clip-path="url(#clip0_38_132)">
<mask id="mask0_38_132" style="mask-type:luminance" maskUnits="userSpaceOnUse" x="0" y="0" width="156" height="51">
<path d="M155.864 0H0V50.3697H155.864V0Z" fill="white"/>
</mask>
<g mask="url(#mask0_38_132)">
<path d="M33.4631 32.3857H29.9207V22.3701L33.4631 25.9125V32.3857Z" fill="black"/>
<path d="M19.2938 31.7745L22.8362 35.3169V40.3149L15.7514 33.2399V13.1795L6.58008 4.04697C7.06535 3.64584 7.57324 3.27379 8.10378 2.93088C8.58904 2.61385 9.08725 2.3227 9.59836 2.05742L19.2938 11.7237V0.0678711C22.5159 0.0678711 25.1265 2.67855 25.1265 5.90066C25.1265 8.92863 22.807 11.4229 19.8373 11.7043H24.3793L24.3987 11.714L27.9216 15.2467H19.2938V31.7745Z" fill="black"/>
<path d="M26.3785 18.828L26.3591 32.3664H22.8167L22.8361 15.2662L26.3785 18.828Z" fill="black"/>
<path d="M29.9209 22.3703L26.3785 18.8279H31.4543L34.9965 22.3703H29.9209Z" fill="black"/>
<path d="M0.0678711 17.5662C0.0872815 16.0425 0.291089 14.5673 0.669587 13.16L8.6666 21.1571V21.1474V16.1492L2.07683 9.55946C2.63973 8.48219 3.30939 7.47284 4.07608 6.55084L12.209 14.6837V29.6975V29.9111C11.8111 29.4938 0.0678711 17.5662 0.0678711 17.5662Z" fill="black"/>
<path d="M22.836 45.3228V50.3307L0.126007 27.6401V22.6323L22.836 45.3228Z" fill="black"/>
<path d="M45.1386 32.3858C45.1386 35.6081 42.5182 38.2188 39.2962 38.2188C36.0741 38.2188 33.4634 35.6081 33.4634 32.3858H37.0056V27.9119H40.5481L45.1386 32.3858Z" fill="black"/>
<path d="M69.4013 32.4634L66.7423 37.5099H50.1948L60.9578 16.8479H51.4274L54.0867 11.8012H70.6436L59.8708 32.4634H69.4013Z" fill="black"/>
<path d="M79.0188 22.0887H87.5012V27.145H79.0188V32.4634H87.5012V37.5199H72.7689V11.8012H87.5012V16.8479H79.0188V22.0887Z" fill="black"/>
<path fill-rule="evenodd" clip-rule="evenodd" d="M99.3609 11.8012C102.641 11.8012 104.534 12.1409 105.922 13.0338C107.697 14.111 108.775 16.3044 108.775 18.7792C108.775 20.5843 108.202 22.0887 107.047 23.2533C106.31 24.02 105.727 24.3694 104.34 24.7575C105.922 25.0972 106.62 25.4466 107.426 26.223C108.591 27.3003 109.163 28.8046 109.163 30.6874C109.163 33.0847 108.202 35.2004 106.543 36.3163C105.271 37.1705 103.728 37.5199 101.098 37.5199H90.568V11.8012H99.3609ZM96.8181 22.438H98.3612C101.214 22.438 102.408 21.5548 102.408 19.4295C102.408 17.3525 101.214 16.4597 98.2836 16.4597H96.8181V22.438ZM96.8181 33.0457H99.0891C101.719 33.0457 102.835 32.1626 102.835 30.0759C102.835 28.8434 102.369 27.9505 101.448 27.4556C100.749 27.0674 100.137 26.9897 98.2449 26.9897H96.8181V33.0457Z" fill="black"/>
<path fill-rule="evenodd" clip-rule="evenodd" d="M117.84 37.5199H111.589V11.8012H119.926C123.323 11.8012 125.788 12.4126 127.486 13.7228C129.262 15.1107 130.262 17.4302 130.262 20.2447C130.262 24.1752 128.602 26.7568 125.283 28.067L130.961 37.5199H123.478L117.84 27.572V37.5199ZM119.848 24.0588C122.391 24.0588 123.934 22.7486 123.934 20.5164C123.934 18.391 122.43 16.9255 120.236 16.9255H117.84V24.0588H119.848Z" fill="black"/>
<path fill-rule="evenodd" clip-rule="evenodd" d="M147.479 32.4537H139.142L137.551 37.5199H130.961L139.443 11.8012H147.392L155.845 37.5199H149.061L147.479 32.4537ZM145.897 27.3876L143.316 19.1577L140.724 27.3876H145.897Z" fill="black"/>
</g>
</g>
<defs>
<clipPath id="clip0_38_132">
<rect width="155.864" height="50.5" fill="white"/>
</clipPath>
</defs>
</svg>
