<svg width="415" height="310" viewBox="0 0 415 310" fill="none" xmlns="http://www.w3.org/2000/svg">
<g filter="url(#filter0_d_475_38)">
<rect y="10" width="404.338" height="300" rx="25" fill="url(#paint0_linear_475_38)"/>
<rect x="0.5" y="10.5" width="403.338" height="299" rx="24.5" stroke="black"/>
</g>
<path fill-rule="evenodd" clip-rule="evenodd" d="M69.0672 127.162L69.8055 184.2L86.7862 182.575L93.2831 169.423H106.277L113.069 182.427H126.063L129.312 148.44L116.17 130.413L113.365 145.189L109.673 149.327L108.049 146.371L92.5448 147.701L86.7862 130.413L69.0672 127.162Z" fill="white"/>
<path fill-rule="evenodd" clip-rule="evenodd" d="M106.572 123.911V143.416H93.4308V123.911H67V188.929H93.2831V169.423H106.277L106.425 188.929H132.708V123.911H106.572ZM126.063 182.427H113.069V169.275C112.922 165.877 110.116 163.217 106.72 163.069H93.4308C89.887 163.069 87.0815 165.729 86.7862 169.275V182.574H73.6446V130.412H86.7862V149.918H116.17C120.895 149.918 126.063 155.237 126.063 159.966V182.427Z" fill="#E83434"/>
<path d="M140.829 118.443C143.634 118.443 145.997 120.808 145.997 123.615C145.997 126.423 143.634 128.787 140.829 128.787C138.023 128.787 135.661 126.423 135.661 123.615C135.661 120.808 138.023 118.443 140.829 118.443ZM140.829 118C137.728 118 135.218 120.512 135.218 123.615C135.218 126.718 137.728 129.23 140.829 129.23C143.93 129.23 146.44 126.718 146.44 123.615C146.44 120.512 143.93 118 140.829 118Z" fill="#E83434"/>
<path d="M140.829 118C137.728 118 135.218 120.512 135.218 123.615C135.218 126.718 137.728 129.23 140.829 129.23C143.93 129.23 146.44 126.718 146.44 123.615C146.44 120.512 143.93 118 140.829 118ZM135.366 123.615C135.366 120.808 138.023 118.296 140.977 118.296C143.782 118.296 146.145 120.66 146.145 123.615C146.292 124.945 145.406 126.423 144.52 127.309C144.373 127.162 144.225 127.014 144.225 126.866C144.225 126.718 144.225 126.423 144.225 126.275V125.241C144.225 124.945 144.077 124.502 143.93 124.206C143.782 124.058 143.487 123.763 143.192 123.763C143.487 123.615 143.782 123.32 144.077 123.024C144.225 122.729 144.373 122.285 144.373 121.842C144.373 121.103 143.93 120.364 143.192 120.069C142.749 119.921 142.158 119.773 141.715 119.773H138.023V127.605H139.057V124.206H141.42C141.715 124.206 142.01 124.206 142.306 124.354C142.749 124.502 142.896 124.945 142.896 125.388V126.718C142.896 126.866 142.896 127.162 142.896 127.309C142.896 127.457 142.896 127.457 142.896 127.605H143.93H144.52L143.93 128.196L142.01 129.083H139.943L137.876 128.196L136.399 126.866L135.513 124.354L135.366 123.615ZM142.749 123.024C142.453 123.172 142.01 123.32 141.567 123.32H139.205V120.66H141.715C142.01 120.66 142.306 120.66 142.601 120.808C143.044 120.955 143.192 121.399 143.192 121.99C143.192 122.285 143.044 122.729 142.749 123.024Z" fill="#E83434"/>
<path fill-rule="evenodd" clip-rule="evenodd" d="M145 175.689H153.449V166.578H169.436V162.269H153.449V156.805H170.844V151.419H152.869C149.666 151.419 145.124 155.608 145.124 159.166L145 175.689Z" fill="#0165B0"/>
<path fill-rule="evenodd" clip-rule="evenodd" d="M181.7 151.684C178.918 151.684 174.249 156.141 174.249 158.642V168.661C174.249 171.333 178.928 175.689 181.192 175.689H197.906C199.76 175.689 204.675 171.75 204.675 168.661V159.092C204.675 156.095 200.42 151.684 197.514 151.684H181.7ZM182.612 156.99H196.601C196.601 156.99 196.71 170.08 196.601 170.484C196.492 170.892 182.612 170.484 182.612 170.484V156.99Z" fill="#0165B0"/>
<path fill-rule="evenodd" clip-rule="evenodd" d="M207.042 151.337H216.651L221.952 157.714L227.833 151.337H237.856L227.088 163.596L237.525 175.689H227.999L221.952 168.981L216.402 175.689H206.462L217.148 163.596L207.042 151.337Z" fill="#0165B0"/>
<path fill-rule="evenodd" clip-rule="evenodd" d="M265.274 157.134H247.713V170.554H265.274V175.689H247.713C245.929 175.689 239.678 171.658 239.678 168.568V158.544C239.678 156.411 244.703 151.586 247.713 151.586H265.357L265.274 157.134Z" fill="#0165B0"/>
<path fill-rule="evenodd" clip-rule="evenodd" d="M303.128 175.689H311.66V157.051H325.327V175.689H333.577V159.537C333.635 156.327 329.518 151.401 325.617 151.461H303.294L303.128 175.689Z" fill="#0165B0"/>
<path d="M371.087 144C371.773 144 372.442 144.176 373.095 144.527C373.748 144.879 374.257 145.382 374.621 146.037C374.985 146.692 375.168 147.375 375.168 148.085C375.168 148.789 374.988 149.465 374.629 150.115C374.27 150.764 373.767 151.268 373.12 151.628C372.472 151.985 371.795 152.166 371.087 152.166C370.381 152.166 369.703 151.985 369.056 151.628C368.408 151.268 367.904 150.764 367.543 150.115C367.183 149.465 367.002 148.789 367.002 148.085C367.002 147.375 367.185 146.692 367.551 146.037C367.917 145.382 368.427 144.879 369.08 144.527C369.733 144.176 370.402 144 371.087 144ZM371.087 144.676C370.514 144.676 369.956 144.823 369.413 145.117C368.87 145.411 368.445 145.831 368.138 146.378C367.832 146.925 367.678 147.494 367.678 148.085C367.678 148.673 367.829 149.237 368.13 149.776C368.431 150.316 368.853 150.736 369.394 151.037C369.935 151.338 370.5 151.489 371.087 151.489C371.676 151.489 372.24 151.338 372.781 151.037C373.322 150.736 373.743 150.316 374.042 149.776C374.341 149.237 374.491 148.673 374.491 148.085C374.491 147.494 374.339 146.925 374.034 146.378C373.729 145.831 373.304 145.411 372.76 145.117C372.215 144.823 371.658 144.676 371.087 144.676ZM369.296 150.342V145.948H370.806C371.322 145.948 371.696 145.989 371.926 146.07C372.157 146.151 372.341 146.292 372.478 146.494C372.615 146.696 372.684 146.911 372.684 147.138C372.684 147.459 372.569 147.739 372.34 147.977C372.111 148.215 371.807 148.349 371.428 148.377C371.584 148.442 371.708 148.52 371.802 148.61C371.979 148.783 372.195 149.074 372.451 149.481L372.987 150.342H372.121L371.731 149.649C371.425 149.104 371.178 148.763 370.99 148.627C370.86 148.525 370.671 148.475 370.422 148.475H370.005V150.342H369.296ZM370.005 147.869H370.866C371.277 147.869 371.557 147.807 371.707 147.685C371.857 147.562 371.932 147.4 371.932 147.198C371.932 147.068 371.895 146.952 371.824 146.849C371.751 146.746 371.651 146.67 371.523 146.619C371.395 146.568 371.158 146.543 370.811 146.543H370.005V147.869Z" fill="#0165B0"/>
<path fill-rule="evenodd" clip-rule="evenodd" d="M276.518 151.684C273.737 151.684 269.067 156.141 269.067 158.642V168.661C269.067 171.333 273.747 175.689 276.011 175.689H292.725C294.579 175.689 299.494 171.75 299.494 168.661V159.092C299.494 156.095 295.239 151.684 292.333 151.684H276.518ZM277.431 156.99H291.42C291.42 156.99 291.529 170.08 291.42 170.484C291.311 170.892 277.431 170.484 277.431 170.484V156.99Z" fill="#0165B0"/>
<path fill-rule="evenodd" clip-rule="evenodd" d="M336.882 175.689H345.414V157.051H359.081V175.689H367.331V159.537C367.389 156.327 363.272 151.401 359.371 151.461H337.048L336.882 175.689Z" fill="#0165B0"/>
<defs>
<filter id="filter0_d_475_38" x="0" y="0" width="414.338" height="310" filterUnits="userSpaceOnUse" color-interpolation-filters="sRGB">
<feFlood flood-opacity="0" result="BackgroundImageFix"/>
<feColorMatrix in="SourceAlpha" type="matrix" values="0 0 0 0 0 0 0 0 0 0 0 0 0 0 0 0 0 0 127 0" result="hardAlpha"/>
<feOffset dx="10" dy="-10"/>
<feComposite in2="hardAlpha" operator="out"/>
<feColorMatrix type="matrix" values="0 0 0 0 0.00392157 0 0 0 0 0.396078 0 0 0 0 0.690196 0 0 0 1 0"/>
<feBlend mode="normal" in2="BackgroundImageFix" result="effect1_dropShadow_475_38"/>
<feBlend mode="normal" in="SourceGraphic" in2="effect1_dropShadow_475_38" result="shape"/>
</filter>
<linearGradient id="paint0_linear_475_38" x1="202.169" y1="10" x2="202.169" y2="310" gradientUnits="userSpaceOnUse">
<stop stop-color="#D9D9D9"/>
<stop offset="1" stop-color="#7E7E7E"/>
</linearGradient>
</defs>
</svg>
