<svg width="413" height="310" viewBox="0 0 413 310" fill="none" xmlns="http://www.w3.org/2000/svg">
<g filter="url(#filter0_d_475_38)">
<rect x="4" width="404.338" height="300" rx="25" fill="url(#paint0_linear_475_38)" fill-opacity="0.85" shape-rendering="crispEdges"/>
</g>
<path fill-rule="evenodd" clip-rule="evenodd" d="M157.903 100.299L159.297 208L191.361 204.931L203.628 180.098H228.164L240.989 204.652H265.524L271.658 140.478L246.844 106.438L241.546 134.339L234.576 142.152L231.509 136.572L202.234 139.083L191.361 106.438L157.903 100.299Z" fill="white"/>
<path fill-rule="evenodd" clip-rule="evenodd" d="M228.721 94.1606V130.991H203.907V94.1606H154V216.929H203.628V180.098H228.164L228.442 216.929H278.071V94.1606H228.721ZM265.524 204.652H240.989V179.819C240.71 173.402 235.413 168.379 229 168.1H203.907C197.216 168.1 191.918 173.123 191.361 179.819V204.931H166.546V106.437H191.361V143.268H246.844C255.766 143.268 265.524 153.312 265.524 162.241V204.652Z" fill="#E83434"/>
<path d="M293.405 83.8371C298.703 83.8371 303.164 88.3013 303.164 93.6027C303.164 98.904 298.703 103.368 293.405 103.368C288.108 103.368 283.647 98.904 283.647 93.6027C283.647 88.3013 288.108 83.8371 293.405 83.8371ZM293.405 83C287.55 83 282.81 87.7433 282.81 93.6027C282.81 99.4621 287.55 104.205 293.405 104.205C299.26 104.205 304 99.4621 304 93.6027C304 87.7433 299.26 83 293.405 83Z" fill="#E83434"/>
<path d="M293.405 83C287.55 83 282.81 87.7433 282.81 93.6027C282.81 99.4621 287.55 104.205 293.405 104.205C299.26 104.205 304 99.4621 304 93.6027C304 87.7433 299.26 83 293.405 83ZM283.089 93.6027C283.089 88.3013 288.108 83.558 293.684 83.558C298.981 83.558 303.442 88.0223 303.442 93.6027C303.721 96.1138 302.048 98.904 300.375 100.578C300.097 100.299 299.818 100.02 299.818 99.7411C299.818 99.4621 299.818 98.904 299.818 98.625V96.6719C299.818 96.1138 299.539 95.2768 299.26 94.7187C298.981 94.4397 298.424 93.8817 297.866 93.8817C298.424 93.6027 298.981 93.0446 299.539 92.4866C299.818 91.9286 300.097 91.0915 300.097 90.2545C300.097 88.8594 299.26 87.4643 297.866 86.9062C297.03 86.6272 295.914 86.3482 295.078 86.3482H288.108V101.136H290.059V94.7187H294.52C295.078 94.7187 295.636 94.7188 296.193 94.9978C297.03 95.2768 297.309 96.1138 297.309 96.9509V99.4621C297.309 99.7411 297.309 100.299 297.309 100.578C297.309 100.857 297.309 100.857 297.309 101.136H299.26H300.375L299.26 102.252L295.636 103.926H291.732L287.829 102.252L285.041 99.7411L283.368 94.9978L283.089 93.6027ZM297.03 92.4866C296.472 92.7656 295.636 93.0446 294.799 93.0446H290.338V88.0223H295.078C295.636 88.0223 296.193 88.0223 296.751 88.3013C297.587 88.5804 297.866 89.4174 297.866 90.5335C297.866 91.0915 297.587 91.9286 297.03 92.4866Z" fill="#E83434"/>
<defs>
<filter id="filter0_d_475_38" x="0" y="0" width="412.338" height="310" filterUnits="userSpaceOnUse" color-interpolation-filters="sRGB">
<feFlood flood-opacity="0" result="BackgroundImageFix"/>
<feColorMatrix in="SourceAlpha" type="matrix" values="0 0 0 0 0 0 0 0 0 0 0 0 0 0 0 0 0 0 127 0" result="hardAlpha"/>
<feOffset dy="6"/>
<feGaussianBlur stdDeviation="2"/>
<feComposite in2="hardAlpha" operator="out"/>
<feColorMatrix type="matrix" values="0 0 0 0 0 0 0 0 0 0 0 0 0 0 0 0 0 0 0.25 0"/>
<feBlend mode="normal" in2="BackgroundImageFix" result="effect1_dropShadow_475_38"/>
<feBlend mode="normal" in="SourceGraphic" in2="effect1_dropShadow_475_38" result="shape"/>
</filter>
<linearGradient id="paint0_linear_475_38" x1="206.169" y1="0" x2="206.169" y2="300" gradientUnits="userSpaceOnUse">
<stop stop-color="#E83434" stop-opacity="0.6"/>
<stop offset="1" stop-color="#AFAFAF" stop-opacity="0.6"/>
</linearGradient>
</defs>
</svg>
