<svg width="413" height="310" viewBox="0 0 413 310" fill="none" xmlns="http://www.w3.org/2000/svg">
<g filter="url(#filter0_d_475_38)">
<rect x="4" width="404.338" height="300" rx="25" fill="url(#paint0_linear_475_38)" fill-opacity="0.85" shape-rendering="crispEdges"/>
</g>
<path fill-rule="evenodd" clip-rule="evenodd" d="M73.0672 117.162L73.8055 174.2L90.7862 172.575L97.2831 159.423H110.277L117.069 172.427H130.063L133.312 138.44L120.17 120.413L117.365 135.189L113.673 139.327L112.049 136.371L96.5448 137.701L90.7862 120.413L73.0672 117.162Z" fill="white"/>
<path fill-rule="evenodd" clip-rule="evenodd" d="M110.572 113.911V133.416H97.4308V113.911H71V178.929H97.2831V159.423H110.277L110.425 178.929H136.708V113.911H110.572ZM130.063 172.427H117.069V159.275C116.922 155.877 114.116 153.217 110.72 153.069H97.4308C93.887 153.069 91.0815 155.729 90.7862 159.275V172.574H77.6446V120.412H90.7862V139.918H120.17C124.895 139.918 130.063 145.237 130.063 149.966V172.427Z" fill="#E83434"/>
<path d="M144.829 108.443C147.634 108.443 149.997 110.808 149.997 113.615C149.997 116.423 147.634 118.787 144.829 118.787C142.023 118.787 139.661 116.423 139.661 113.615C139.661 110.808 142.023 108.443 144.829 108.443ZM144.829 108C141.728 108 139.218 110.512 139.218 113.615C139.218 116.718 141.728 119.23 144.829 119.23C147.93 119.23 150.44 116.718 150.44 113.615C150.44 110.512 147.93 108 144.829 108Z" fill="#E83434"/>
<path d="M144.829 108C141.728 108 139.218 110.512 139.218 113.615C139.218 116.718 141.728 119.23 144.829 119.23C147.93 119.23 150.44 116.718 150.44 113.615C150.44 110.512 147.93 108 144.829 108ZM139.366 113.615C139.366 110.808 142.023 108.296 144.977 108.296C147.782 108.296 150.145 110.66 150.145 113.615C150.292 114.945 149.406 116.423 148.52 117.309C148.373 117.162 148.225 117.014 148.225 116.866C148.225 116.718 148.225 116.423 148.225 116.275V115.241C148.225 114.945 148.077 114.502 147.93 114.206C147.782 114.058 147.487 113.763 147.192 113.763C147.487 113.615 147.782 113.32 148.077 113.024C148.225 112.729 148.373 112.285 148.373 111.842C148.373 111.103 147.93 110.364 147.192 110.069C146.749 109.921 146.158 109.773 145.715 109.773H142.023V117.605H143.057V114.206H145.42C145.715 114.206 146.01 114.206 146.306 114.354C146.749 114.502 146.896 114.945 146.896 115.388V116.718C146.896 116.866 146.896 117.162 146.896 117.309C146.896 117.457 146.896 117.457 146.896 117.605H147.93H148.52L147.93 118.196L146.01 119.083H143.943L141.876 118.196L140.399 116.866L139.513 114.354L139.366 113.615ZM146.749 113.024C146.453 113.172 146.01 113.32 145.567 113.32H143.205V110.66H145.715C146.01 110.66 146.306 110.66 146.601 110.808C147.044 110.955 147.192 111.399 147.192 111.99C147.192 112.285 147.044 112.729 146.749 113.024Z" fill="#E83434"/>
<path fill-rule="evenodd" clip-rule="evenodd" d="M149 165.689H157.449V156.578H173.436V152.269H157.449V146.805H174.844V141.419H156.869C153.666 141.419 149.124 145.608 149.124 149.166L149 165.689Z" fill="#0165B0"/>
<path fill-rule="evenodd" clip-rule="evenodd" d="M185.7 141.684C182.918 141.684 178.249 146.141 178.249 148.642V158.661C178.249 161.333 182.928 165.689 185.192 165.689H201.906C203.76 165.689 208.675 161.75 208.675 158.661V149.092C208.675 146.095 204.42 141.684 201.514 141.684H185.7ZM186.612 146.99H200.601C200.601 146.99 200.71 160.08 200.601 160.484C200.492 160.892 186.612 160.484 186.612 160.484V146.99Z" fill="#0165B0"/>
<path fill-rule="evenodd" clip-rule="evenodd" d="M211.042 141.337H220.651L225.952 147.714L231.833 141.337H241.856L231.088 153.596L241.525 165.689H231.999L225.952 158.981L220.402 165.689H210.462L221.148 153.596L211.042 141.337Z" fill="#0165B0"/>
<path fill-rule="evenodd" clip-rule="evenodd" d="M269.274 147.134H251.713V160.554H269.274V165.689H251.713C249.929 165.689 243.678 161.658 243.678 158.568V148.544C243.678 146.411 248.703 141.586 251.713 141.586H269.357L269.274 147.134Z" fill="#0165B0"/>
<path fill-rule="evenodd" clip-rule="evenodd" d="M307.128 165.689H315.66V147.051H329.327V165.689H337.577V149.537C337.635 146.327 333.518 141.401 329.617 141.461H307.294L307.128 165.689Z" fill="#0165B0"/>
<path d="M375.087 134C375.773 134 376.442 134.176 377.095 134.527C377.748 134.879 378.257 135.382 378.621 136.037C378.985 136.692 379.168 137.375 379.168 138.085C379.168 138.789 378.988 139.465 378.629 140.115C378.27 140.764 377.767 141.268 377.12 141.628C376.472 141.985 375.795 142.166 375.087 142.166C374.381 142.166 373.703 141.985 373.056 141.628C372.408 141.268 371.904 140.764 371.543 140.115C371.183 139.465 371.002 138.789 371.002 138.085C371.002 137.375 371.185 136.692 371.551 136.037C371.917 135.382 372.427 134.879 373.08 134.527C373.733 134.176 374.402 134 375.087 134ZM375.087 134.676C374.514 134.676 373.956 134.823 373.413 135.117C372.87 135.411 372.445 135.831 372.138 136.378C371.832 136.925 371.678 137.494 371.678 138.085C371.678 138.673 371.829 139.237 372.13 139.776C372.431 140.316 372.853 140.736 373.394 141.037C373.935 141.338 374.5 141.489 375.087 141.489C375.676 141.489 376.24 141.338 376.781 141.037C377.322 140.736 377.743 140.316 378.042 139.776C378.341 139.237 378.491 138.673 378.491 138.085C378.491 137.494 378.339 136.925 378.034 136.378C377.729 135.831 377.304 135.411 376.76 135.117C376.215 134.823 375.658 134.676 375.087 134.676ZM373.296 140.342V135.948H374.806C375.322 135.948 375.696 135.989 375.926 136.07C376.157 136.151 376.341 136.292 376.478 136.494C376.615 136.696 376.684 136.911 376.684 137.138C376.684 137.459 376.569 137.739 376.34 137.977C376.111 138.215 375.807 138.349 375.428 138.377C375.584 138.442 375.708 138.52 375.802 138.61C375.979 138.783 376.195 139.074 376.451 139.481L376.987 140.342H376.121L375.731 139.649C375.425 139.104 375.178 138.763 374.99 138.627C374.86 138.525 374.671 138.475 374.422 138.475H374.005V140.342H373.296ZM374.005 137.869H374.866C375.277 137.869 375.557 137.807 375.707 137.685C375.857 137.562 375.932 137.4 375.932 137.198C375.932 137.068 375.895 136.952 375.824 136.849C375.751 136.746 375.651 136.67 375.523 136.619C375.395 136.568 375.158 136.543 374.811 136.543H374.005V137.869Z" fill="#0165B0"/>
<path fill-rule="evenodd" clip-rule="evenodd" d="M280.518 141.684C277.737 141.684 273.067 146.141 273.067 148.642V158.661C273.067 161.333 277.747 165.689 280.011 165.689H296.725C298.579 165.689 303.494 161.75 303.494 158.661V149.092C303.494 146.095 299.239 141.684 296.333 141.684H280.518ZM281.431 146.99H295.42C295.42 146.99 295.529 160.08 295.42 160.484C295.311 160.892 281.431 160.484 281.431 160.484V146.99Z" fill="#0165B0"/>
<path fill-rule="evenodd" clip-rule="evenodd" d="M340.882 165.689H349.414V147.051H363.081V165.689H371.331V149.537C371.389 146.327 367.272 141.401 363.371 141.461H341.048L340.882 165.689Z" fill="#0165B0"/>
<defs>
<filter id="filter0_d_475_38" x="0" y="0" width="412.338" height="310" filterUnits="userSpaceOnUse" color-interpolation-filters="sRGB">
<feFlood flood-opacity="0" result="BackgroundImageFix"/>
<feColorMatrix in="SourceAlpha" type="matrix" values="0 0 0 0 0 0 0 0 0 0 0 0 0 0 0 0 0 0 127 0" result="hardAlpha"/>
<feOffset dy="6"/>
<feGaussianBlur stdDeviation="2"/>
<feComposite in2="hardAlpha" operator="out"/>
<feColorMatrix type="matrix" values="0 0 0 0 0 0 0 0 0 0 0 0 0 0 0 0 0 0 0.25 0"/>
<feBlend mode="normal" in2="BackgroundImageFix" result="effect1_dropShadow_475_38"/>
<feBlend mode="normal" in="SourceGraphic" in2="effect1_dropShadow_475_38" result="shape"/>
</filter>
<linearGradient id="paint0_linear_475_38" x1="206.169" y1="0" x2="206.169" y2="300" gradientUnits="userSpaceOnUse">
<stop stop-color="#E83434" stop-opacity="0.6"/>
<stop offset="1" stop-color="#AFAFAF" stop-opacity="0.6"/>
</linearGradient>
</defs>
</svg>
