<svg width="410" height="310" viewBox="0 0 410 310" fill="none" xmlns="http://www.w3.org/2000/svg">
<g filter="url(#filter0_d_475_39)">
<rect y="10" width="400" height="300" rx="25" fill="url(#paint0_linear_475_39)" fill-opacity="0.85" shape-rendering="crispEdges"/>
<rect x="0.5" y="10.5" width="399" height="299" rx="24.5" stroke="black" shape-rendering="crispEdges"/>
</g>
<path fill-rule="evenodd" clip-rule="evenodd" d="M335.747 131H348.398V176.022H335.747V131Z" fill="#DE1E34"/>
<path fill-rule="evenodd" clip-rule="evenodd" d="M354.351 131H367V176.022H354.351V131Z" fill="#DE1E34"/>
<path fill-rule="evenodd" clip-rule="evenodd" d="M60.9739 148.487H50.7424V131H34V176.022H50.7424V153.698H60.9739V176.022H77.7177V131H60.9739V148.487Z" fill="#DE1E34"/>
<path fill-rule="evenodd" clip-rule="evenodd" d="M139.574 147.743L138.55 144.767H124.783V176.022H138.55V157.231C138.55 153.138 141.156 150.906 143.387 150.906C145.247 150.906 147.665 151.278 147.665 155.372V176.022H161.432V155.744C161.432 144.395 148.691 139.931 139.574 147.743Z" fill="#DE1E34"/>
<path fill-rule="evenodd" clip-rule="evenodd" d="M280.96 162.905L274.543 144.767H265.148L258.729 163.649L252.031 144.767H238.917H238.822H233.615L227.009 160.671L217.708 144.767H201.988L220.498 176.394L218.081 182.345C217.242 184.207 215.238 184.299 214.846 182.531C214.846 179.335 212.254 176.745 209.057 176.745C205.861 176.745 203.269 179.335 203.269 182.531C203.291 185.881 206.64 190.252 213.243 189.973C219.848 189.694 222.638 184.207 223.568 181.881L238.866 144.888L249.893 176.022H259.939L266.078 158.068L272.403 176.022H281.89L292.587 144.767H287.1L280.96 162.905Z" fill="#DE1E34"/>
<path fill-rule="evenodd" clip-rule="evenodd" d="M101.436 143.178C90.9021 143.178 82.3644 151.01 82.3644 160.671C82.3644 170.336 90.9021 178.169 101.436 178.169C111.971 178.169 120.511 170.336 120.511 160.671C120.511 151.01 111.971 143.178 101.436 143.178ZM106.181 168.856C106.181 171.478 104.057 173.602 101.436 173.602C98.8179 173.602 96.6938 171.478 96.6938 168.856V152.488C96.6938 149.868 98.8179 147.746 101.436 147.746C104.057 147.746 106.181 149.868 106.181 152.488V168.856Z" fill="#DE1E34"/>
<path fill-rule="evenodd" clip-rule="evenodd" d="M203.516 163.183C203.617 162.451 203.669 161.429 203.669 160.671C203.669 151.01 195.129 143.178 184.595 143.178C174.06 143.178 165.52 151.01 165.52 160.671C165.52 170.336 174.06 178.169 184.595 178.169C191.833 178.169 198.129 174.469 201.362 169.02L197.149 167.461C194.602 171.353 189.933 173.958 184.595 173.958C181.974 173.958 179.85 171.478 179.85 168.856V163.185L203.516 163.183ZM179.85 152.488C179.85 149.868 181.974 147.746 184.595 147.746C187.215 147.746 189.339 149.868 189.339 152.488V158.72H179.85V152.488Z" fill="#DE1E34"/>
<path fill-rule="evenodd" clip-rule="evenodd" d="M330.948 163.183C331.05 162.451 331.102 161.429 331.102 160.671C331.102 151.01 322.563 143.178 312.028 143.178C301.493 143.178 292.954 151.01 292.954 160.671C292.954 170.336 301.493 178.169 312.028 178.169C319.267 178.169 325.563 174.469 328.795 169.02L324.582 167.461C322.036 171.353 317.367 173.958 312.028 173.958C309.408 173.958 307.284 171.478 307.284 168.856V163.185L330.948 163.183ZM307.284 152.488C307.284 149.868 309.408 147.746 312.028 147.746C314.649 147.746 316.773 149.868 316.773 152.488V158.72H307.284V152.488Z" fill="#DE1E34"/>
<defs>
<filter id="filter0_d_475_39" x="0" y="0" width="410" height="310" filterUnits="userSpaceOnUse" color-interpolation-filters="sRGB">
<feFlood flood-opacity="0" result="BackgroundImageFix"/>
<feColorMatrix in="SourceAlpha" type="matrix" values="0 0 0 0 0 0 0 0 0 0 0 0 0 0 0 0 0 0 127 0" result="hardAlpha"/>
<feOffset dx="10" dy="-10"/>
<feComposite in2="hardAlpha" operator="out"/>
<feColorMatrix type="matrix" values="0 0 0 0 0.870588 0 0 0 0 0.117647 0 0 0 0 0.203922 0 0 0 1 0"/>
<feBlend mode="normal" in2="BackgroundImageFix" result="effect1_dropShadow_475_39"/>
<feBlend mode="normal" in="SourceGraphic" in2="effect1_dropShadow_475_39" result="shape"/>
</filter>
<linearGradient id="paint0_linear_475_39" x1="200" y1="10" x2="200" y2="310" gradientUnits="userSpaceOnUse">
<stop stop-color="#D9D9D9"/>
<stop offset="1" stop-color="#7E7E7E"/>
</linearGradient>
</defs>
</svg>
