<svg width="408" height="310" viewBox="0 0 408 310" fill="none" xmlns="http://www.w3.org/2000/svg">
<g filter="url(#filter0_d_475_39)">
<rect x="4" width="400" height="300" rx="25" fill="url(#paint0_linear_475_39)" fill-opacity="0.85" shape-rendering="crispEdges"/>
</g>
<path fill-rule="evenodd" clip-rule="evenodd" d="M339.747 121H352.398V166.022H339.747V121Z" fill="#DE1E34"/>
<path fill-rule="evenodd" clip-rule="evenodd" d="M358.351 121H371V166.022H358.351V121Z" fill="#DE1E34"/>
<path fill-rule="evenodd" clip-rule="evenodd" d="M64.9739 138.487H54.7424V121H38V166.022H54.7424V143.698H64.9739V166.022H81.7177V121H64.9739V138.487Z" fill="#DE1E34"/>
<path fill-rule="evenodd" clip-rule="evenodd" d="M143.574 137.743L142.55 134.767H128.783V166.022H142.55V147.231C142.55 143.138 145.156 140.906 147.387 140.906C149.247 140.906 151.665 141.278 151.665 145.372V166.022H165.432V145.744C165.432 134.395 152.691 129.931 143.574 137.743Z" fill="#DE1E34"/>
<path fill-rule="evenodd" clip-rule="evenodd" d="M284.96 152.905L278.543 134.767H269.148L262.729 153.649L256.031 134.767H242.917H242.822H237.615L231.009 150.671L221.708 134.767H205.988L224.498 166.394L222.081 172.345C221.242 174.207 219.238 174.299 218.846 172.531C218.846 169.335 216.254 166.745 213.057 166.745C209.861 166.745 207.269 169.335 207.269 172.531C207.291 175.881 210.64 180.252 217.243 179.973C223.848 179.694 226.638 174.207 227.568 171.881L242.866 134.888L253.893 166.022H263.939L270.078 148.068L276.403 166.022H285.89L296.587 134.767H291.1L284.96 152.905Z" fill="#DE1E34"/>
<path fill-rule="evenodd" clip-rule="evenodd" d="M105.436 133.178C94.9021 133.178 86.3644 141.01 86.3644 150.671C86.3644 160.336 94.9021 168.169 105.436 168.169C115.971 168.169 124.511 160.336 124.511 150.671C124.511 141.01 115.971 133.178 105.436 133.178ZM110.181 158.856C110.181 161.478 108.057 163.602 105.436 163.602C102.818 163.602 100.694 161.478 100.694 158.856V142.488C100.694 139.868 102.818 137.746 105.436 137.746C108.057 137.746 110.181 139.868 110.181 142.488V158.856Z" fill="#DE1E34"/>
<path fill-rule="evenodd" clip-rule="evenodd" d="M207.516 153.183C207.617 152.451 207.669 151.429 207.669 150.671C207.669 141.01 199.129 133.178 188.595 133.178C178.06 133.178 169.52 141.01 169.52 150.671C169.52 160.336 178.06 168.169 188.595 168.169C195.833 168.169 202.129 164.469 205.362 159.02L201.149 157.461C198.602 161.353 193.933 163.958 188.595 163.958C185.974 163.958 183.85 161.478 183.85 158.856V153.185L207.516 153.183ZM183.85 142.488C183.85 139.868 185.974 137.746 188.595 137.746C191.215 137.746 193.339 139.868 193.339 142.488V148.72H183.85V142.488Z" fill="#DE1E34"/>
<path fill-rule="evenodd" clip-rule="evenodd" d="M334.948 153.183C335.05 152.451 335.102 151.429 335.102 150.671C335.102 141.01 326.563 133.178 316.028 133.178C305.493 133.178 296.954 141.01 296.954 150.671C296.954 160.336 305.493 168.169 316.028 168.169C323.267 168.169 329.563 164.469 332.795 159.02L328.582 157.461C326.036 161.353 321.367 163.958 316.028 163.958C313.408 163.958 311.284 161.478 311.284 158.856V153.185L334.948 153.183ZM311.284 142.488C311.284 139.868 313.408 137.746 316.028 137.746C318.649 137.746 320.773 139.868 320.773 142.488V148.72H311.284V142.488Z" fill="#DE1E34"/>
<defs>
<filter id="filter0_d_475_39" x="0" y="0" width="408" height="310" filterUnits="userSpaceOnUse" color-interpolation-filters="sRGB">
<feFlood flood-opacity="0" result="BackgroundImageFix"/>
<feColorMatrix in="SourceAlpha" type="matrix" values="0 0 0 0 0 0 0 0 0 0 0 0 0 0 0 0 0 0 127 0" result="hardAlpha"/>
<feOffset dy="6"/>
<feGaussianBlur stdDeviation="2"/>
<feComposite in2="hardAlpha" operator="out"/>
<feColorMatrix type="matrix" values="0 0 0 0 0 0 0 0 0 0 0 0 0 0 0 0 0 0 0.25 0"/>
<feBlend mode="normal" in2="BackgroundImageFix" result="effect1_dropShadow_475_39"/>
<feBlend mode="normal" in="SourceGraphic" in2="effect1_dropShadow_475_39" result="shape"/>
</filter>
<linearGradient id="paint0_linear_475_39" x1="204" y1="0" x2="204" y2="300" gradientUnits="userSpaceOnUse">
<stop stop-color="#542900" stop-opacity="0.6"/>
<stop offset="1" stop-color="#EE7500" stop-opacity="0.6"/>
</linearGradient>
</defs>
</svg>
