<svg width="410" height="310" viewBox="0 0 410 310" fill="none" xmlns="http://www.w3.org/2000/svg">
<g filter="url(#filter0_d_475_40)">
<path d="M0 35C0 21.1929 11.1929 10 25 10H375C388.807 10 400 21.1929 400 35V285C400 298.807 388.807 310 375 310H25C11.1929 310 0 298.807 0 285V35Z" fill="url(#paint0_linear_475_40)"/>
<path d="M25 10.5H375C388.531 10.5 399.5 21.469 399.5 35V285C399.5 298.531 388.531 309.5 375 309.5H25C11.469 309.5 0.5 298.531 0.5 285V35C0.5 21.469 11.469 10.5 25 10.5Z" stroke="black"/>
</g>
<path fill-rule="evenodd" clip-rule="evenodd" d="M340.5 153.539C340.5 151.302 342.202 149.543 344.318 149.543C346.525 149.543 348.226 151.302 348.226 153.539C348.226 155.746 346.525 157.535 344.318 157.535C342.202 157.535 340.5 155.746 340.5 153.539ZM344.318 158.19C346.884 158.19 349 156.074 349 153.539C348.993 152.299 348.498 151.112 347.621 150.235C346.745 149.358 345.558 148.863 344.318 148.855C341.872 148.855 339.816 150.974 339.816 153.539C339.816 156.074 341.872 158.19 344.318 158.19ZM342.617 155.836H343.484V153.867H344.587L345.271 155.836H346.285L345.361 153.689C345.689 153.6 346.195 153.451 346.195 152.496C346.195 151.065 345.181 150.975 344.228 150.975H342.617V155.836ZM343.484 151.84H344.498C345.004 151.84 345.272 151.988 345.272 152.437C345.272 152.854 345.004 153.092 344.589 153.092H343.486V151.84H343.484Z" fill="#929496"/>
<path fill-rule="evenodd" clip-rule="evenodd" d="M97.6313 136.359H83.4339L97.6313 156.671V136.359ZM50.4185 183.633H64.6448L50.4185 163.291V183.633ZM97.6313 169.436L77.379 183.633H97.6313V169.436ZM50.4185 136.359V150.557L70.6691 136.359H50.4185Z" fill="#CC2229"/>
<path fill-rule="evenodd" clip-rule="evenodd" d="M62.9435 159.98L56.4717 153.539L50 159.98L56.4717 166.453L62.9435 159.98ZM80.4516 159.98L73.9798 153.539L67.5965 159.98L73.9798 166.453L80.4516 159.98ZM71.6831 168.748L65.2402 162.278L58.7685 168.748L65.2402 175.222L71.6831 168.748ZM89.2796 168.748L82.8385 162.278L76.365 168.748L82.8385 175.222L89.2796 168.748ZM71.6831 151.242L65.2402 144.77L58.7685 151.242L65.2402 157.685L71.6831 151.242ZM89.2796 151.242L82.8385 144.77L76.365 151.242L82.8385 157.685L89.2796 151.242ZM80.4516 142.473L73.9798 136L67.5965 142.473L73.9798 148.945L80.4516 142.473ZM98.0498 159.98L91.5764 153.539L85.1352 159.98L91.5764 166.453L98.0498 159.98ZM80.4516 177.519L73.9798 171.135L67.5965 177.519L73.9798 183.961L80.4516 177.519ZM110.396 148.498H115.735V183.633H110.396V148.498ZM121.342 160.577H126.293V166.035H126.383C127.128 164.335 129.335 160.07 134.526 160.07C138.522 160.07 140.312 163.471 140.312 166.78V183.631H135.39V169.167C135.39 166.273 134.973 163.648 132.498 163.648C127.637 163.648 126.295 171.224 126.295 174.118V183.631H121.344L121.342 160.577ZM157.67 183.812C156.716 184.05 155.373 184.138 154.269 184.138C149.676 184.138 147.022 182.706 147.022 178.264V163.054H143.383V160.577H147.022V155.15L151.882 152.167V160.577H158.175V163.054H151.884V176.326C151.884 179.725 152.212 181.336 155.373 181.336C156.149 181.336 156.983 181.246 157.67 181.008V183.812ZM165.396 167.229C165.484 165.945 166.26 162.038 169.988 162.038C173.657 162.038 174.253 165.439 174.253 167.229H165.396ZM178.666 180.56C177.235 181.246 175.774 181.517 174.253 181.517C167.272 181.517 165.246 174.031 165.246 169.436H179.084C179.084 165.021 177.654 160.07 170.166 160.07C162.948 160.07 160.384 164.663 160.384 171.045C160.384 180.321 165.484 184.138 171.866 184.138C174.848 184.138 176.638 183.631 178.666 182.765V180.56ZM182.574 160.577H187.434V166.453H187.525C189.136 163.292 190.745 160.429 195.01 160.07V165.08C190.328 165.259 187.434 166.87 187.434 173.073V183.631H182.574V160.577ZM214.727 182.946C212.78 183.719 210.707 184.123 208.612 184.138C201.305 184.138 197.038 179.723 197.038 171.134C197.038 164.243 200.17 160.068 206.821 160.068C213.024 160.068 215.052 163.291 215.052 168.061H209.954C209.954 165.259 209.715 162.037 206.642 162.037C203.842 162.037 202.409 165.347 202.409 169.522C202.409 175.13 204.706 181.513 210.64 181.513C212.048 181.514 213.44 181.219 214.727 180.647V182.946ZM222.718 167.229C222.808 165.945 223.495 162.038 227.313 162.038C230.981 162.038 231.576 165.439 231.576 167.229H222.718ZM235.993 180.56C234.606 181.191 233.1 181.517 231.576 181.517C224.598 181.517 222.539 174.031 222.539 169.436H236.408C236.408 165.021 234.976 160.07 227.49 160.07C220.242 160.07 217.707 164.663 217.707 171.045C217.707 180.321 222.808 184.138 229.191 184.138C232.085 184.138 233.933 183.631 235.993 182.765V180.56ZM239.897 160.577H244.729V166.453H244.819C246.371 163.292 248.072 160.429 252.305 160.07V165.08C247.623 165.259 244.729 166.87 244.729 173.073V183.631H239.897V160.577ZM266.444 175.46C266.444 179.458 263.37 181.067 261.672 181.067C260.061 181.067 258.869 179.725 258.869 177.668C258.869 173.344 264.388 172.925 266.444 172.746V175.46ZM266.444 183.633H271.366V168.75C271.366 164.247 270.679 160.07 263.195 160.07C255.975 160.07 254.602 163.65 254.367 167.05H259.464C259.614 164.425 260.211 162.04 263.195 162.04C266.444 162.04 266.444 166.186 266.444 168.75V170.778C263.37 170.868 253.588 171.225 253.588 178.352C253.588 181.574 256.213 184.138 259.881 184.138C263.549 184.138 265.577 181.753 266.354 180.411H266.444V183.633ZM276.97 160.577H281.831V166.035H281.921C282.43 164.335 284.546 160.07 288.963 160.07C293.046 160.07 294.478 163.292 294.659 165.768H294.749C295.613 163.978 297.224 160.07 301.728 160.07C306.65 160.07 307.606 164.068 307.606 167.974V183.633H302.655V168.75C302.655 166.125 302.327 163.65 299.851 163.65C295.525 163.65 294.661 171.225 294.661 174.031V183.635H289.829V169.17C289.829 166.276 289.56 163.651 286.935 163.651C282.343 163.651 281.834 171.646 281.834 174.121V183.635H276.974V160.577H276.97ZM313.029 160.577H317.89V183.633H313.029V160.577ZM312.851 148.588H318.132V153.449H312.851V148.588ZM339.486 182.946C337.531 183.722 335.447 184.126 333.343 184.138C326.036 184.138 321.8 179.723 321.8 171.134C321.8 164.243 324.933 160.068 331.582 160.068C337.697 160.068 339.816 163.291 339.816 168.061H334.716C334.716 165.259 334.388 162.037 331.313 162.037C328.513 162.037 327.05 165.347 327.05 169.522C327.05 175.13 329.435 181.513 335.31 181.513C336.771 181.513 338.113 181.244 339.486 180.647V182.946Z" fill="white"/>
<defs>
<filter id="filter0_d_475_40" x="0" y="0" width="410" height="310" filterUnits="userSpaceOnUse" color-interpolation-filters="sRGB">
<feFlood flood-opacity="0" result="BackgroundImageFix"/>
<feColorMatrix in="SourceAlpha" type="matrix" values="0 0 0 0 0 0 0 0 0 0 0 0 0 0 0 0 0 0 127 0" result="hardAlpha"/>
<feOffset dx="10" dy="-10"/>
<feComposite in2="hardAlpha" operator="out"/>
<feColorMatrix type="matrix" values="0 0 0 0 0.8 0 0 0 0 0.133333 0 0 0 0 0.160784 0 0 0 1 0"/>
<feBlend mode="normal" in2="BackgroundImageFix" result="effect1_dropShadow_475_40"/>
<feBlend mode="normal" in="SourceGraphic" in2="effect1_dropShadow_475_40" result="shape"/>
</filter>
<linearGradient id="paint0_linear_475_40" x1="200" y1="10" x2="200" y2="310" gradientUnits="userSpaceOnUse">
<stop stop-color="#D9D9D9"/>
<stop offset="1" stop-color="#7E7E7E"/>
</linearGradient>
</defs>
</svg>
