<svg width="408" height="310" viewBox="0 0 408 310" fill="none" xmlns="http://www.w3.org/2000/svg">
<g filter="url(#filter0_d_475_39)">
<rect x="4" width="400" height="300" rx="25" fill="url(#paint0_linear_475_39)" fill-opacity="0.85" shape-rendering="crispEdges"/>
</g>
<g clip-path="url(#clip0_475_39)">
<mask id="mask0_475_39" style="mask-type:luminance" maskUnits="userSpaceOnUse" x="74" y="132" width="259" height="47">
<path d="M333 132H74V179H333V132Z" fill="white"/>
</mask>
<g mask="url(#mask0_475_39)">
<path d="M195.178 175.612H203.941V144.066H216.447V135.638H182.627V144.066H195.178V175.612Z" fill="#3E3E3E"/>
<path d="M253.851 155.215C253.851 167.115 261.37 176.639 274.147 176.626C286.924 176.612 294.488 167.115 294.488 155.215C294.488 142.983 286.969 134.388 274.192 134.388C261.415 134.388 253.907 143.011 253.907 155.215H253.851ZM264.027 156.062C264.027 148.842 266.198 142.483 274.079 142.386C281.96 142.289 285.239 148.662 284.798 155.854C284.368 162.533 281.949 168.35 274.079 168.35C266.458 168.35 264.027 162.588 264.027 156.118V156.062Z" fill="#3E3E3E"/>
<path d="M297.066 175.612H305.875V150.092H305.988L322.858 175.612H333V135.582L324.1 135.638V161.644H323.988L307.096 135.638H297.066V175.612Z" fill="#3E3E3E"/>
<path d="M116.798 175.64H144.387V167.128H125.595V135.582H116.798V175.64Z" fill="#3E3E3E"/>
<path d="M180.637 135.582H171.874V160.061C171.874 166.184 169.047 168.6 162.579 168.6C156.112 168.6 153.319 166.212 153.33 160.061V135.582H144.59V160.061C144.59 171.266 151.476 176.625 162.579 176.625C173.683 176.625 180.671 171.21 180.671 160.061V135.582H180.637Z" fill="#3E3E3E"/>
<path d="M218.357 175.612H226.487V160.048H239.66C243.052 159.978 243.697 162.033 244.251 166.296C244.951 171.558 245.494 175.807 247.959 175.612H254.913C252.923 176.112 252.335 169.114 251.917 165.893C250.786 157.076 249.576 156.646 246.263 156.479V156.34C250.492 154.688 253.172 150.689 253.047 145.843C252.912 139.401 249.26 134.999 240.734 135.652H218.357V175.612ZM226.374 143.802H237.285C241.333 143.802 244.149 144.51 244.149 148.495C244.149 152.48 241.333 153.202 237.285 153.202H226.374V143.802Z" fill="#3E3E3E"/>
<path d="M92.1818 143.802C92.4971 143.758 92.8142 143.735 93.1316 143.733C93.4602 143.735 93.7886 143.758 94.1153 143.802L95.0764 132.125C94.4303 132.041 93.7812 132 93.1316 132C92.4857 131.999 91.8403 132.041 91.1981 132.125L92.1818 143.802Z" fill="#3E3E3E"/>
<path d="M88.6088 145.136C88.8801 144.955 89.1741 144.788 89.4681 144.636C89.771 144.481 90.0805 144.346 90.3953 144.233L87.6363 132.986C87.0185 133.215 86.4108 133.484 85.8159 133.792C85.2187 134.084 84.6337 134.413 84.0633 134.777L88.6088 145.136Z" fill="#3E3E3E"/>
<path d="M85.7255 148.051C85.9177 147.759 86.1326 147.468 86.3587 147.176C86.5848 146.885 86.8449 146.621 87.0937 146.371L81.0444 137.276C80.5469 137.776 80.072 138.318 79.6536 138.943C79.2352 139.567 78.749 140.095 78.342 140.706L85.7255 148.051Z" fill="#3E3E3E"/>
<path d="M83.9612 152.105C84.063 151.73 84.1648 151.369 84.2891 150.994C84.4135 150.619 84.5605 150.258 84.7075 149.911L76.2611 144.357C75.9567 145.057 75.6812 145.776 75.4357 146.51C75.1854 147.24 74.9665 147.986 74.7799 148.745L83.9612 152.105Z" fill="#3E3E3E"/>
<path d="M83.611 156.674C83.575 156.282 83.5561 155.888 83.5545 155.493C83.5561 155.094 83.575 154.696 83.611 154.299L74.1018 153.119C74.0334 153.908 73.9994 154.7 74 155.493C73.9998 156.291 74.0337 157.088 74.1018 157.882L83.611 156.674Z" fill="#3E3E3E"/>
<path d="M84.697 161.061C84.55 160.714 84.4143 160.367 84.2899 159.992C84.1656 159.617 84.0525 159.242 83.962 158.867L74.8033 162.241C74.9842 162.991 75.2103 163.741 75.4591 164.491C75.7079 165.24 75.9905 165.949 76.2619 166.712L84.697 161.061Z" fill="#3E3E3E"/>
<path d="M87.0706 164.601C86.8294 164.351 86.5919 164.088 86.3582 163.81C86.1321 163.518 85.906 163.227 85.7024 162.921L78.2963 170.35C78.7034 170.947 79.1443 171.544 79.6079 172.113C80.0657 172.655 80.5449 173.17 81.0439 173.654L87.0706 164.601Z" fill="#3E3E3E"/>
<path d="M90.3727 166.712C90.0674 166.601 89.7734 166.462 89.4681 166.323C89.1628 166.184 88.8688 165.99 88.5862 165.795L84.0633 176.14C84.6308 176.523 85.216 176.867 85.8159 177.167C86.411 177.47 87.0187 177.734 87.6363 177.958L90.3727 166.712Z" fill="#3E3E3E"/>
<path d="M94.0927 167.198C93.7725 167.219 93.4517 167.219 93.1316 167.198C92.8076 167.219 92.4831 167.219 92.1591 167.198L91.1981 178.875C91.8403 178.959 92.4857 179.001 93.1316 179C93.7812 179.001 94.4303 178.959 95.0764 178.875L94.0927 167.198Z" fill="#3E3E3E"/>
<path d="M97.6661 165.851C97.3849 166.044 97.0941 166.216 96.7955 166.365C96.4902 166.518 96.1849 166.642 95.8796 166.767L98.6273 178C99.2379 177.778 99.8484 177.514 100.459 177.209C101.076 176.905 101.68 176.562 102.268 176.181L97.6661 165.851Z" fill="#3E3E3E"/>
<path d="M100.549 162.935C100.345 163.24 100.13 163.532 99.9043 163.809C99.6741 164.093 99.4326 164.361 99.1805 164.615L105.23 173.654C105.716 173.154 106.202 172.626 106.666 172.057C107.129 171.488 107.559 170.89 107.966 170.294L100.549 162.935Z" fill="#3E3E3E"/>
<path d="M102.268 158.895C102.177 159.256 102.064 159.631 101.951 159.992C101.838 160.353 101.68 160.728 101.521 161.089L109.945 166.643C110.253 165.943 110.533 165.225 110.782 164.49C111.031 163.741 111.245 162.991 111.426 162.241L102.268 158.895Z" fill="#3E3E3E"/>
<path d="M102.663 154.327C102.68 154.716 102.68 155.105 102.663 155.493C102.68 155.896 102.68 156.299 102.663 156.701L112.172 157.882C112.24 157.088 112.274 156.291 112.274 155.493C112.275 154.7 112.241 153.908 112.172 153.119L102.663 154.327Z" fill="#3E3E3E"/>
<path d="M101.567 149.939C101.725 150.28 101.864 150.632 101.985 150.994C102.11 151.369 102.212 151.744 102.313 152.133L111.461 148.745C111.278 147.986 111.063 147.24 110.816 146.51C110.572 145.773 110.292 145.054 109.979 144.357L101.567 149.939Z" fill="#3E3E3E"/>
<path d="M99.1923 146.398C99.4429 146.639 99.6808 146.898 99.9046 147.176C100.142 147.467 100.357 147.773 100.56 148.078L107.921 140.65C107.526 140.056 107.107 139.486 106.666 138.942C106.203 138.373 105.716 137.831 105.23 137.332L99.1923 146.398Z" fill="#3E3E3E"/>
<path d="M95.9018 144.233C96.1958 144.358 96.5011 144.483 96.7951 144.636C97.0891 144.788 97.3944 144.969 97.6884 145.149L102.268 134.777C101.702 134.416 101.137 134.069 100.515 133.764C99.8933 133.458 99.2374 133.208 98.6268 132.986L95.9018 144.233Z" fill="#3E3E3E"/>
</g>
</g>
<defs>
<filter id="filter0_d_475_39" x="0" y="0" width="408" height="310" filterUnits="userSpaceOnUse" color-interpolation-filters="sRGB">
<feFlood flood-opacity="0" result="BackgroundImageFix"/>
<feColorMatrix in="SourceAlpha" type="matrix" values="0 0 0 0 0 0 0 0 0 0 0 0 0 0 0 0 0 0 127 0" result="hardAlpha"/>
<feOffset dy="6"/>
<feGaussianBlur stdDeviation="2"/>
<feComposite in2="hardAlpha" operator="out"/>
<feColorMatrix type="matrix" values="0 0 0 0 0 0 0 0 0 0 0 0 0 0 0 0 0 0 0.25 0"/>
<feBlend mode="normal" in2="BackgroundImageFix" result="effect1_dropShadow_475_39"/>
<feBlend mode="normal" in="SourceGraphic" in2="effect1_dropShadow_475_39" result="shape"/>
</filter>
<linearGradient id="paint0_linear_475_39" x1="204" y1="0" x2="204" y2="300" gradientUnits="userSpaceOnUse">
<stop stop-color="#542900" stop-opacity="0.6"/>
<stop offset="1" stop-color="#EE7500" stop-opacity="0.6"/>
</linearGradient>
<clipPath id="clip0_475_39">
<rect width="259" height="47" fill="white" transform="translate(74 132)"/>
</clipPath>
</defs>
</svg>
