<svg width="408" height="310" viewBox="0 0 408 310" fill="none" xmlns="http://www.w3.org/2000/svg">
<g filter="url(#filter0_d_475_37)">
<rect x="4" width="400" height="300" rx="25" fill="url(#paint0_linear_475_37)" fill-opacity="0.85" shape-rendering="crispEdges"/>
</g>
<path d="M88 134.111H99.3457L106.376 159.444H106.515L112.411 134.111H124.043L130.428 159.444H130.572L137.034 134.111H147.813L135.542 174.469H125.038L117.872 147.652H117.73L111.339 174.469H100.63L88 134.111Z" fill="#006E94"/>
<path d="M150.064 124H161.409V134.112H150.064V124Z" fill="#006E94"/>
<path d="M150.064 134.112H161.409V174.47H150.064V134.112Z" fill="#91D44F"/>
<path d="M185.642 145.989C184.084 143.746 182.024 142.582 179.474 142.582C177.701 142.582 175.568 143.502 175.568 145.902C175.568 151.888 193.516 146.818 193.516 162.179C193.516 172.48 185.006 175.472 177.627 175.472C172.8 175.472 167.478 174.053 164.073 169.986L170.532 161.6C172.516 164.42 174.863 166 178.048 166C180.467 166 182.876 165.26 182.876 163.098C182.876 156.611 164.925 162.099 164.925 146.734C164.925 137.262 172.162 133.112 179.402 133.112C183.947 133.112 188.984 134.447 192.178 138.423L185.642 145.989Z" fill="#006E94"/>
<path d="M219.586 144.079H210.217V157.52C210.217 161.848 210.646 165.002 215.254 165.002C216.392 165.002 218.662 164.838 219.586 163.849V174.222C217.25 175.213 214.619 175.471 212.135 175.471C205.042 175.471 199.567 172.068 199.567 163.262V144.079H192.762V134.112H199.567V124H210.217V134.112H219.586V144.079Z" fill="#006E94"/>
<path d="M223.326 134.112H233.971V140.587H234.112C236.385 135.695 239.357 133.112 244.049 133.112C245.251 133.112 246.599 133.197 247.589 133.528V144.913C246.097 144.411 244.615 144.079 243.055 144.079C234.958 144.079 233.971 149.568 233.971 157.618V174.469H223.327L223.326 134.112Z" fill="#006E94"/>
<path d="M246.454 154.287C246.454 167.16 254.968 175.472 265.618 175.472C276.257 175.472 284.773 167.16 284.773 154.287C284.773 141.415 276.257 133.112 265.618 133.112C254.968 133.112 246.454 141.415 246.454 154.287ZM257.094 154.287C257.094 148.23 260.293 144.08 265.618 144.08C270.928 144.08 274.13 148.23 274.13 154.287C274.13 160.355 270.928 164.509 265.618 164.509C260.293 164.509 257.094 160.355 257.094 154.287Z" fill="#006E94"/>
<path d="M287.79 134.112H298.007V139.584H298.155C299.573 136.437 303.046 133.112 308.221 133.112C319.012 133.112 321 141.414 321 152.219V174.47H310.354V154.704C310.354 150.061 310.282 144.079 304.825 144.079C299.285 144.079 298.433 149.143 298.433 154.372V174.47H287.79L287.79 134.112Z" fill="#006E94"/>
<defs>
<filter id="filter0_d_475_37" x="0" y="0" width="408" height="310" filterUnits="userSpaceOnUse" color-interpolation-filters="sRGB">
<feFlood flood-opacity="0" result="BackgroundImageFix"/>
<feColorMatrix in="SourceAlpha" type="matrix" values="0 0 0 0 0 0 0 0 0 0 0 0 0 0 0 0 0 0 127 0" result="hardAlpha"/>
<feOffset dy="6"/>
<feGaussianBlur stdDeviation="2"/>
<feComposite in2="hardAlpha" operator="out"/>
<feColorMatrix type="matrix" values="0 0 0 0 0 0 0 0 0 0 0 0 0 0 0 0 0 0 0.25 0"/>
<feBlend mode="normal" in2="BackgroundImageFix" result="effect1_dropShadow_475_37"/>
<feBlend mode="normal" in="SourceGraphic" in2="effect1_dropShadow_475_37" result="shape"/>
</filter>
<linearGradient id="paint0_linear_475_37" x1="204" y1="0" x2="204" y2="300" gradientUnits="userSpaceOnUse">
<stop stop-color="#8ACF56" stop-opacity="0.6"/>
<stop offset="1" stop-color="#006E94" stop-opacity="0.6"/>
</linearGradient>
</defs>
</svg>
