<svg width="410" height="310" viewBox="0 0 410 310" fill="none" xmlns="http://www.w3.org/2000/svg">
<g filter="url(#filter0_d_475_37)">
<rect y="10" width="400" height="300" rx="25" fill="url(#paint0_linear_475_37)" fill-opacity="0.85" shape-rendering="crispEdges"/>
<rect x="0.5" y="10.5" width="399" height="299" rx="24.5" stroke="black" shape-rendering="crispEdges"/>
</g>
<path d="M84 144.111H95.9787L103.401 169.444H103.548L109.774 144.111H122.054L128.796 169.444H128.947L135.77 144.111H147.15L134.195 184.469H123.105L115.539 157.652H115.389L108.641 184.469H97.3344L84 144.111Z" fill="#006E94"/>
<path d="M149.527 134H161.505V144.112H149.527V134Z" fill="#006E94"/>
<path d="M149.527 144.112H161.505V184.47H149.527V144.112Z" fill="#91D44F"/>
<path d="M187.09 155.989C185.445 153.746 183.27 152.582 180.578 152.582C178.706 152.582 176.454 153.502 176.454 155.902C176.454 161.888 195.404 156.818 195.404 172.179C195.404 182.48 186.419 185.472 178.627 185.472C173.531 185.472 167.913 184.053 164.318 179.986L171.137 171.6C173.231 174.42 175.709 176 179.072 176C181.626 176 184.17 175.26 184.17 173.098C184.17 166.611 165.217 172.099 165.217 156.734C165.217 147.262 172.857 143.112 180.502 143.112C185.3 143.112 190.618 144.447 193.991 148.423L187.09 155.989Z" fill="#006E94"/>
<path d="M222.928 154.079H213.036V167.52C213.036 171.848 213.489 175.002 218.354 175.002C219.555 175.002 221.953 174.838 222.928 173.849V184.222C220.461 185.213 217.684 185.471 215.061 185.471C207.572 185.471 201.791 182.068 201.791 173.262V154.079H194.607V144.112H201.791V134H213.036V144.112H222.928V154.079Z" fill="#006E94"/>
<path d="M226.877 144.112H238.115V150.587H238.264C240.664 145.695 243.802 143.112 248.756 143.112C250.025 143.112 251.448 143.197 252.493 143.528V154.913C250.918 154.411 249.354 154.079 247.706 154.079C239.157 154.079 238.115 159.568 238.115 167.618V184.469H226.877L226.877 144.112Z" fill="#006E94"/>
<path d="M251.295 164.287C251.295 177.16 260.284 185.472 271.529 185.472C282.761 185.472 291.752 177.16 291.752 164.287C291.752 151.415 282.761 143.112 271.529 143.112C260.284 143.112 251.295 151.415 251.295 164.287ZM262.528 164.287C262.528 158.23 265.905 154.08 271.529 154.08C277.135 154.08 280.515 158.23 280.515 164.287C280.515 170.355 277.135 174.509 271.529 174.509C265.905 174.509 262.528 170.355 262.528 164.287Z" fill="#006E94"/>
<path d="M294.937 144.112H305.724V149.584H305.88C307.378 146.437 311.044 143.112 316.508 143.112C327.901 143.112 330 151.414 330 162.219V184.47H318.76V164.704C318.76 160.061 318.684 154.079 312.922 154.079C307.073 154.079 306.174 159.143 306.174 164.372V184.47H294.937L294.937 144.112Z" fill="#006E94"/>
<defs>
<filter id="filter0_d_475_37" x="0" y="0" width="410" height="310" filterUnits="userSpaceOnUse" color-interpolation-filters="sRGB">
<feFlood flood-opacity="0" result="BackgroundImageFix"/>
<feColorMatrix in="SourceAlpha" type="matrix" values="0 0 0 0 0 0 0 0 0 0 0 0 0 0 0 0 0 0 127 0" result="hardAlpha"/>
<feOffset dx="10" dy="-10"/>
<feComposite in2="hardAlpha" operator="out"/>
<feColorMatrix type="matrix" values="0 0 0 0 0.568627 0 0 0 0 0.831373 0 0 0 0 0.309804 0 0 0 1 0"/>
<feBlend mode="normal" in2="BackgroundImageFix" result="effect1_dropShadow_475_37"/>
<feBlend mode="normal" in="SourceGraphic" in2="effect1_dropShadow_475_37" result="shape"/>
</filter>
<linearGradient id="paint0_linear_475_37" x1="200" y1="10" x2="200" y2="310" gradientUnits="userSpaceOnUse">
<stop stop-color="#D9D9D9"/>
<stop offset="1" stop-color="#7E7E7E"/>
</linearGradient>
</defs>
</svg>
