<svg width="408" height="310" viewBox="0 0 408 310" fill="none" xmlns="http://www.w3.org/2000/svg">
<g filter="url(#filter0_d_475_41)">
<rect x="4" width="400" height="300" rx="25" fill="url(#paint0_linear_475_41)" fill-opacity="0.85" shape-rendering="crispEdges"/>
</g>
<path opacity="0.991" fill-rule="evenodd" clip-rule="evenodd" d="M199.158 49.0307C230.369 48.3411 256.662 59.2562 278.037 81.7761C298.931 105.638 307.288 133.381 303.108 165.004C298.467 192.356 285.135 214.329 263.114 230.921C241.403 246.426 217.242 252.622 190.631 249.511C162.262 245.353 139.494 231.909 122.326 209.176C106.4 186.745 100.317 161.845 104.077 134.476C108.622 107.379 121.726 85.5198 143.389 68.8997C159.971 56.7484 178.561 50.1254 199.158 49.0307ZM199.329 59.0931C227.374 58.4124 251.051 68.1337 270.362 88.257C271.844 89.9374 273.294 91.6429 274.711 93.3735C253.166 93.544 231.62 93.6008 210.073 93.544C210.073 123.902 210.073 154.259 210.073 184.617C219.169 184.617 228.265 184.617 237.361 184.617C237.361 172.849 237.361 161.081 237.361 149.314C245.547 149.314 253.734 149.314 261.92 149.314C261.92 145.22 261.92 141.127 261.92 137.034C253.677 137.034 245.434 137.034 237.191 137.034C237.191 126.687 237.191 116.341 237.191 105.994C252.484 105.937 267.776 105.994 283.068 106.165C294.304 127.268 297.062 149.44 291.34 172.679C289.433 179.904 286.675 186.783 283.068 193.315C244.411 193.486 205.753 193.542 167.095 193.486C180.461 160.183 193.877 126.898 207.345 93.6293C182.388 93.5725 157.43 93.5155 132.474 93.4587C146.662 75.884 164.911 64.9121 187.22 60.5428C191.257 59.8553 195.294 59.372 199.329 59.0931ZM123.946 105.994C140.206 105.937 156.464 105.994 172.723 106.165C159.354 139.327 145.937 172.471 132.474 205.595C179.886 205.708 227.299 205.822 274.711 205.936C260.468 223.639 242.105 234.639 219.624 238.937C189.584 243.569 163.376 235.724 141.001 215.401C120.107 194.683 110.869 169.583 113.287 140.104C114.666 128.038 118.219 116.668 123.946 105.994Z" fill="#1178BF"/>
<defs>
<filter id="filter0_d_475_41" x="0" y="0" width="408" height="310" filterUnits="userSpaceOnUse" color-interpolation-filters="sRGB">
<feFlood flood-opacity="0" result="BackgroundImageFix"/>
<feColorMatrix in="SourceAlpha" type="matrix" values="0 0 0 0 0 0 0 0 0 0 0 0 0 0 0 0 0 0 127 0" result="hardAlpha"/>
<feOffset dy="6"/>
<feGaussianBlur stdDeviation="2"/>
<feComposite in2="hardAlpha" operator="out"/>
<feColorMatrix type="matrix" values="0 0 0 0 0 0 0 0 0 0 0 0 0 0 0 0 0 0 0.25 0"/>
<feBlend mode="normal" in2="BackgroundImageFix" result="effect1_dropShadow_475_41"/>
<feBlend mode="normal" in="SourceGraphic" in2="effect1_dropShadow_475_41" result="shape"/>
</filter>
<linearGradient id="paint0_linear_475_41" x1="204" y1="0" x2="204" y2="300" gradientUnits="userSpaceOnUse">
<stop stop-color="#1278BE" stop-opacity="0.54"/>
<stop offset="1" stop-opacity="0.6"/>
</linearGradient>
</defs>
</svg>
