<svg width="410" height="310" viewBox="0 0 410 310" fill="none" xmlns="http://www.w3.org/2000/svg">
<g filter="url(#filter0_d_475_41)">
<rect y="10" width="400" height="300" rx="25" fill="url(#paint0_linear_475_41)" fill-opacity="0.85" shape-rendering="crispEdges"/>
<rect x="0.5" y="10.5" width="399" height="299" rx="24.5" stroke="black" shape-rendering="crispEdges"/>
</g>
<path opacity="0.991" fill-rule="evenodd" clip-rule="evenodd" d="M195.158 59.0307C226.369 58.3411 252.662 69.2562 274.037 91.7761C294.931 115.638 303.288 143.381 299.108 175.004C294.467 202.356 281.135 224.329 259.114 240.921C237.403 256.426 213.242 262.622 186.631 259.511C158.262 255.353 135.494 241.909 118.326 219.176C102.4 196.745 96.3173 171.845 100.077 144.476C104.622 117.379 117.726 95.5198 139.389 78.8997C155.971 66.7484 174.561 60.1254 195.158 59.0307ZM195.329 69.0931C223.374 68.4124 247.051 78.1337 266.362 98.257C267.844 99.9374 269.294 101.643 270.711 103.373C249.166 103.544 227.62 103.601 206.073 103.544C206.073 133.902 206.073 164.259 206.073 194.617C215.169 194.617 224.265 194.617 233.361 194.617C233.361 182.849 233.361 171.081 233.361 159.313C241.547 159.313 249.734 159.313 257.92 159.313C257.92 155.22 257.92 151.127 257.92 147.034C249.677 147.034 241.434 147.034 233.191 147.034C233.191 136.687 233.191 126.341 233.191 115.994C248.484 115.937 263.776 115.994 279.068 116.165C290.304 137.268 293.062 159.44 287.34 182.679C285.433 189.904 282.675 196.783 279.068 203.315C240.411 203.486 201.753 203.542 163.095 203.486C176.461 170.183 189.877 136.898 203.345 103.629C178.388 103.572 153.43 103.516 128.474 103.459C142.662 85.884 160.911 74.9121 183.22 70.5428C187.257 69.8553 191.294 69.372 195.329 69.0931ZM119.946 115.994C136.206 115.937 152.464 115.994 168.723 116.165C155.354 149.327 141.937 182.471 128.474 215.595C175.886 215.708 223.299 215.822 270.711 215.936C256.468 233.639 238.105 244.639 215.624 248.937C185.584 253.569 159.376 245.724 137.001 225.401C116.107 204.683 106.869 179.583 109.287 150.104C110.666 138.038 114.219 126.668 119.946 115.994Z" fill="#1178BF"/>
<defs>
<filter id="filter0_d_475_41" x="0" y="0" width="410" height="310" filterUnits="userSpaceOnUse" color-interpolation-filters="sRGB">
<feFlood flood-opacity="0" result="BackgroundImageFix"/>
<feColorMatrix in="SourceAlpha" type="matrix" values="0 0 0 0 0 0 0 0 0 0 0 0 0 0 0 0 0 0 127 0" result="hardAlpha"/>
<feOffset dx="10" dy="-10"/>
<feComposite in2="hardAlpha" operator="out"/>
<feColorMatrix type="matrix" values="0 0 0 0 0.0705882 0 0 0 0 0.470588 0 0 0 0 0.745098 0 0 0 1 0"/>
<feBlend mode="normal" in2="BackgroundImageFix" result="effect1_dropShadow_475_41"/>
<feBlend mode="normal" in="SourceGraphic" in2="effect1_dropShadow_475_41" result="shape"/>
</filter>
<linearGradient id="paint0_linear_475_41" x1="200" y1="10" x2="200" y2="310" gradientUnits="userSpaceOnUse">
<stop stop-color="#D9D9D9"/>
<stop offset="1" stop-color="#7E7E7E"/>
</linearGradient>
</defs>
</svg>
